<svg width="532" height="404" viewBox="0 0 532 404" fill="none" xmlns="http://www.w3.org/2000/svg">
<path d="M433.945 53.8201C433.945 53.8201 379.336 -2.60527 292.875 0.0938354C206.414 2.79294 132.681 57.4402 71.7022 100.217C10.7229 142.993 -5.6508 209.46 29.8469 261.331C65.3446 313.203 121.77 291.367 193.661 325.035C265.552 358.704 279.162 377.828 359.304 369.641C439.445 361.454 500.386 277.718 491.278 188.519C482.171 99.3211 433.945 53.8201 433.945 53.8201Z" fill="#0083FF"/>
<path opacity="0.7" d="M433.945 53.8201C433.945 53.8201 379.336 -2.60527 292.875 0.0938354C206.414 2.79294 132.681 57.4402 71.7022 100.217C10.7229 142.993 -5.6508 209.46 29.8469 261.331C65.3446 313.203 121.77 291.367 193.661 325.035C265.552 358.704 279.162 377.828 359.304 369.641C439.445 361.454 500.386 277.718 491.278 188.519C482.171 99.3211 433.945 53.8201 433.945 53.8201Z" fill="white"/>
<path d="M454.874 397.207C454.874 400.968 370.447 404 266.41 404C162.373 404 77.9332 400.968 77.9332 397.207C77.9332 393.447 162.36 390.428 266.41 390.428C370.46 390.428 454.874 393.459 454.874 397.207Z" fill="#0083FF"/>
<path opacity="0.6" d="M454.874 397.207C454.874 400.968 370.447 404 266.41 404C162.373 404 77.9332 400.968 77.9332 397.207C77.9332 393.447 162.36 390.428 266.41 390.428C370.46 390.428 454.874 393.459 454.874 397.207Z" fill="white"/>
<path d="M88.141 185.475C88.2178 185.475 87.2584 180.704 87.1561 180.358C86.0559 176.955 81.9241 171.02 77.9075 171.02C77.2412 171.041 76.5867 171.201 75.9864 171.491C75.3861 171.781 74.8534 172.194 74.4229 172.703C73.9923 173.212 73.6735 173.806 73.4871 174.446C73.3007 175.086 73.2508 175.758 73.3407 176.418C73.635 179.232 76.1678 181.637 78.4575 183.019C81.1438 184.695 88.141 185.475 88.141 185.475Z" fill="#0083FF"/>
<path d="M95.9051 153.342C92.1315 154.698 90.2639 161.682 90.379 165.264C90.379 165.571 91.0954 170.38 91.1721 170.38H91.2489C90.9419 171.481 90.6221 172.657 90.3023 173.962C89.7394 176.367 89.1254 179.079 88.6521 182.098C88.1033 185.332 87.7445 188.595 87.5776 191.871C87.38 195.542 87.5041 199.223 87.9485 202.872C87.9534 202.915 87.9534 202.957 87.9485 203C87.4624 201.938 85.9786 199.009 85.8379 198.791C83.8679 195.798 78.3162 191.116 74.4402 192.229C73.805 192.425 73.218 192.752 72.7172 193.189C72.2165 193.626 71.8131 194.164 71.5334 194.767C71.2536 195.37 71.1036 196.025 71.0931 196.69C71.0826 197.354 71.2119 198.014 71.4725 198.625C72.4959 201.273 75.5659 202.91 78.1371 203.652C81.0409 204.471 87.5136 203.499 88.0253 203.422C88.5799 207.12 89.3747 210.778 90.4046 214.372C91.0058 216.47 91.6838 218.568 92.349 220.653C91.9013 219.745 91.4791 218.939 91.4152 218.836C89.4452 215.843 83.8935 211.161 80.0175 212.274C79.3823 212.47 78.7953 212.797 78.2945 213.234C77.7938 213.671 77.3904 214.209 77.1106 214.812C76.8308 215.415 76.6809 216.07 76.6704 216.735C76.6599 217.399 76.7892 218.059 77.0498 218.67C78.0732 221.305 81.1432 222.955 83.7144 223.685C86.2856 224.414 91.8629 223.685 93.3212 223.505C93.5898 224.299 93.8584 225.104 94.1399 225.898C95.4191 229.735 96.8006 233.573 97.9774 237.334C98.3996 238.613 98.7578 239.994 99.1287 241.325C98.7322 240.519 98.374 239.841 98.31 239.751C96.3529 236.745 90.7884 232.076 86.9252 233.189C86.2888 233.383 85.7004 233.71 85.1983 234.146C84.6961 234.583 84.2913 235.12 84.0103 235.723C83.7292 236.326 83.5781 236.982 83.5668 237.647C83.5555 238.312 83.6842 238.973 83.9447 239.585C84.968 242.22 88.0509 243.87 90.6221 244.599C93.1933 245.329 98.2205 244.689 99.9602 244.446C100.306 245.815 100.651 247.196 100.92 248.539C101.073 249.46 101.291 250.33 101.406 251.277L101.789 254.014C101.969 255.767 102.173 257.57 102.301 259.285C102.403 260.487 102.48 261.626 102.557 262.764C102.16 261.485 101.278 258.837 101.278 258.632C99.8616 255.818 97.7476 253.413 95.1376 251.648C94.9923 251.327 94.8212 251.019 94.6259 250.727C94.2612 250.169 93.7834 249.694 93.2235 249.333C92.6636 248.972 92.034 248.732 91.3756 248.63C90.7172 248.527 90.0446 248.564 89.4013 248.738C88.7581 248.912 88.1585 249.219 87.6415 249.639C84.6098 252.262 85.3646 259.451 86.7589 262.751C86.8356 262.943 88.0381 264.964 88.7033 266.218L87.0787 264.197C85.953 262.828 84.8017 261.498 83.5737 260.065C82.9426 259.4 82.3158 258.722 81.6933 258.031C81.0793 257.34 80.3501 256.688 79.6721 255.997C78.0604 254.449 76.359 252.953 74.5554 251.494C75.7578 250.509 79.9408 246.979 81.1432 244.574C82.3457 242.169 83.2027 238.805 81.9491 236.259C81.6736 235.653 81.2738 235.113 80.7756 234.672C80.2775 234.23 79.6922 233.899 79.0578 233.699C78.4233 233.499 77.7538 233.434 77.0927 233.509C76.4316 233.584 75.7938 233.798 75.2205 234.136C71.8179 236.259 71.4725 243.487 72.3551 246.928C72.3551 247.145 73.3273 249.576 73.8518 250.893C72.7901 250.01 71.7411 249.141 70.641 248.335C67.4686 245.891 64.245 243.512 60.9191 241.12L57.9386 238.907C58.3607 238.562 63.4264 234.468 64.7823 231.769C65.9848 229.377 66.8418 226 65.5882 223.467C65.3141 222.859 64.9147 222.315 64.4161 221.871C63.9176 221.428 63.3311 221.094 62.6949 220.892C62.0587 220.691 61.3872 220.626 60.7241 220.701C60.0611 220.777 59.4214 220.991 58.8468 221.331C55.457 223.467 55.1116 230.682 55.9942 234.123C56.0582 234.379 57.3758 237.858 57.7595 238.728C55.5721 237.103 53.4103 235.466 51.3635 233.765C48.5642 231.473 45.915 229.003 43.4325 226.371C43.6244 226.217 48.9331 221.958 50.3146 219.207C51.517 216.815 52.3741 213.438 51.1205 210.893C50.8435 210.29 50.4433 209.752 49.9456 209.313C49.448 208.875 48.8639 208.546 48.2311 208.347C47.5983 208.148 46.9308 208.084 46.2718 208.159C45.6127 208.234 44.9767 208.446 44.4047 208.782C41.0021 210.918 40.6695 218.146 41.5393 221.574C41.6033 221.804 42.601 224.465 43.1127 225.706L42.9208 225.834C40.4908 223.116 38.3075 220.188 36.3969 217.084C35.3352 215.395 34.4014 213.707 33.5316 212.057C34.6061 211.366 39.4542 208.219 40.9765 205.814C42.4987 203.409 43.6628 200.301 42.6906 197.64C42.4825 197.015 42.1465 196.44 41.7041 195.952C41.2617 195.464 40.7225 195.073 40.1209 194.805C39.5193 194.537 38.8683 194.397 38.2096 194.394C37.5508 194.391 36.8987 194.525 36.2946 194.788C32.6873 196.527 31.5488 203.742 32.0477 207.221C32.0477 207.413 32.5594 209.345 32.9431 210.739C32.5594 209.997 32.15 209.217 31.8046 208.488C30.5254 205.763 29.4381 203.179 28.5427 200.889C28.0438 199.61 27.6089 198.331 27.2635 197.256C27.9543 196.041 30.7045 191.065 30.9604 188.302C31.2162 185.539 30.8069 182.175 28.7218 180.256C28.2459 179.788 27.677 179.426 27.0521 179.193C26.4272 178.959 25.7602 178.86 25.0943 178.901C24.4285 178.942 23.7787 179.122 23.1872 179.431C22.5956 179.739 22.0755 180.168 21.6606 180.691C19.2685 183.902 21.5583 190.771 23.6306 193.687C23.8097 193.943 27.0588 197.525 27.0972 197.525V197.448C27.4554 198.536 27.8391 199.687 28.2996 200.953C29.1567 203.269 30.1417 205.878 31.4081 208.628C32.7369 211.63 34.2404 214.552 35.9108 217.378C37.7736 220.546 39.914 223.543 42.3068 226.333L42.3964 226.422C41.3986 225.808 38.5588 224.183 38.3157 224.081C35.0282 222.661 27.8263 221.868 25.1912 224.887C24.7677 225.402 24.4573 226 24.2802 226.642C24.1032 227.285 24.0634 227.957 24.1636 228.616C24.2638 229.275 24.5016 229.905 24.8616 230.466C25.2215 231.027 25.6956 231.506 26.2529 231.871C28.5555 233.509 32.0349 233.151 34.5805 232.383C37.4587 231.475 42.2557 227.087 42.7034 226.742C45.2055 229.522 47.8892 232.133 50.7367 234.558C52.3869 235.978 54.0882 237.359 55.8535 238.728C54.9709 238.229 54.1778 237.781 54.0626 237.73C50.7751 236.31 43.586 235.517 40.9509 238.536C40.5248 239.049 40.2119 239.646 40.0328 240.288C39.8536 240.931 39.8122 241.604 39.9112 242.263C40.0103 242.923 40.2475 243.554 40.6074 244.115C40.9674 244.676 41.4419 245.155 41.9998 245.52C44.3152 247.158 47.7818 246.8 50.3402 246.032C52.8986 245.265 57.1327 241.555 58.2456 240.57L60.2412 242.131C63.4647 244.599 66.6371 247.043 69.7712 249.537C70.8585 250.42 71.8946 251.315 72.9436 252.223C72.1633 251.776 71.4981 251.405 71.383 251.354C68.0954 249.946 60.9063 249.141 58.2712 252.172C57.8451 252.685 57.5323 253.282 57.3531 253.925C57.1739 254.567 57.1325 255.24 57.2315 255.899C57.3306 256.559 57.5678 257.19 57.9278 257.751C58.2877 258.313 58.7622 258.792 59.3201 259.157C61.6355 260.794 65.1021 260.436 67.6605 259.656C70.2189 258.875 74.0565 255.537 75.3357 254.385C76.3718 255.332 77.4208 256.291 78.393 257.263C79.0326 257.941 79.6721 258.543 80.3117 259.272L82.141 261.357C83.2667 262.713 84.418 264.107 85.4797 265.463C86.2216 266.41 86.9124 267.318 87.616 268.226C86.5414 267.344 84.4052 265.668 84.2005 265.527C81.1688 263.621 74.1844 261.753 71.1143 264.337C70.6189 264.782 70.2226 265.327 69.9513 265.935C69.6801 266.543 69.5399 267.202 69.5399 267.868C69.5399 268.534 69.6801 269.193 69.9513 269.801C70.2226 270.409 70.6189 270.954 71.1143 271.399C73.1482 273.369 76.6277 273.573 79.2756 273.164C82.1794 272.716 87.4497 269.326 88.1021 268.853C89.2533 270.362 90.3534 271.846 91.3768 273.253C94.9202 278.153 97.6832 282.374 99.5764 285.342L99.7683 285.649L102.224 284.459L101.841 283.871C99.8579 280.916 96.9797 276.72 93.2828 271.846C92.1315 270.298 90.8523 268.687 89.5348 267.024C90.9033 265.53 92.1846 263.958 93.3723 262.316C96.1866 263.416 102.058 263.455 102.813 263.455C102.941 265.361 103.043 267.203 103.107 268.943C103.363 274.993 103.337 280.033 103.286 283.551C103.286 283.692 103.286 283.82 103.286 283.96L105.985 282.681C105.985 279.176 105.845 274.443 105.499 268.84C105.371 266.921 105.205 264.862 105.026 262.751C105.768 262.572 111.87 260.999 114.172 259.157C116.27 257.494 118.47 254.782 118.393 251.955C118.399 251.289 118.263 250.629 117.997 250.018C117.73 249.408 117.338 248.86 116.845 248.411C116.353 247.963 115.772 247.622 115.139 247.413C114.507 247.204 113.837 247.13 113.174 247.196C109.183 247.708 105.857 254.117 105.205 257.647C105.205 257.852 104.987 260.206 104.911 261.6C104.834 260.743 104.757 259.911 104.668 259.042C104.489 257.289 104.258 255.549 104.028 253.669C103.875 252.773 103.721 251.852 103.58 250.931C103.44 250.01 103.197 249.064 103.005 248.13C102.519 245.943 101.93 243.755 101.278 241.568C102.813 241.414 108.262 240.775 110.59 239.431C112.918 238.088 115.49 235.76 115.848 232.946C115.953 232.289 115.918 231.617 115.747 230.973C115.575 230.33 115.27 229.73 114.851 229.213C114.433 228.695 113.91 228.272 113.317 227.969C112.724 227.667 112.074 227.493 111.409 227.458C107.392 227.356 103.12 233.189 101.943 236.579C101.866 236.784 101.291 239.304 101.009 240.698C100.6 239.419 100.216 238.076 99.7299 236.758C98.4508 232.92 97.0053 229.172 95.5981 225.373L94.3189 221.881C94.869 221.881 101.355 221.216 103.964 219.706C106.279 218.427 108.863 216.035 109.222 213.221C109.329 212.563 109.296 211.89 109.125 211.246C108.954 210.602 108.649 210.002 108.23 209.484C107.811 208.966 107.287 208.542 106.693 208.24C106.099 207.939 105.448 207.766 104.783 207.733C100.766 207.631 96.4936 213.477 95.3167 216.854C95.2272 217.109 94.4085 220.691 94.2422 221.676C93.3212 219.118 92.4257 216.559 91.6838 214.001C90.6154 210.543 89.761 207.023 89.1254 203.46C89.3812 203.46 96.161 202.821 98.8345 201.286C101.15 199.943 103.734 197.602 104.092 194.788C104.197 194.129 104.162 193.456 103.99 192.812C103.817 192.168 103.511 191.568 103.091 191.05C102.671 190.532 102.147 190.109 101.552 189.807C100.958 189.506 100.306 189.333 99.6404 189.3C95.6365 189.197 91.364 195.043 90.1871 198.42C90.1104 198.638 89.4836 201.414 89.215 202.731H88.9847C88.4563 199.128 88.2508 195.485 88.3707 191.845C88.3707 189.85 88.5626 187.931 88.7544 186.076C90.0336 186.076 95.854 186.076 98.4124 184.976C100.971 183.876 103.683 181.855 104.348 179.105C104.525 178.46 104.565 177.786 104.463 177.125C104.362 176.465 104.123 175.833 103.76 175.272C103.398 174.71 102.921 174.231 102.361 173.867C101.801 173.502 101.17 173.26 100.51 173.156C96.5319 172.619 91.6454 177.953 90.1104 181.177C90.0208 181.356 89.3684 183.236 88.9079 184.618C88.9975 183.774 89.087 182.917 89.2022 182.06C89.6115 179.053 90.1616 176.329 90.6732 173.911C90.9802 172.542 91.2745 171.353 91.5687 170.163C92.8479 169.523 97.8623 166.901 99.5892 164.765C101.316 162.629 102.826 159.571 102.148 156.821C102.007 156.159 101.726 155.535 101.324 154.99C100.922 154.446 100.408 153.993 99.8164 153.664C99.2252 153.334 98.5702 153.135 97.8956 153.08C97.2211 153.024 96.5424 153.113 95.9051 153.342Z" fill="#0083FF"/>
<path d="M23.4004 215.178C26.5344 215.05 32.8025 211.826 32.8153 211.826C32.828 211.826 29.4382 208.347 29.1951 208.142C26.3937 205.917 19.6651 203.243 16.3264 205.469C15.7823 205.852 15.325 206.346 14.9842 206.918C14.6434 207.49 14.4268 208.127 14.3483 208.788C14.2699 209.45 14.3315 210.12 14.529 210.756C14.7266 211.391 15.0557 211.979 15.4949 212.479C17.2986 214.666 20.7652 215.28 23.4004 215.178Z" fill="#0083FF"/>
<g opacity="0.5">
<path opacity="0.5" d="M88.1409 185.475C88.2177 185.475 87.2583 180.704 87.1559 180.358C86.0558 176.955 81.924 171.02 77.9073 171.02C77.241 171.041 76.5865 171.201 75.9863 171.491C75.386 171.781 74.8533 172.194 74.4227 172.703C73.9922 173.212 73.6734 173.806 73.487 174.446C73.3006 175.086 73.2507 175.758 73.3406 176.418C73.6348 179.232 76.1676 181.637 78.4574 183.019C81.1437 184.695 88.1409 185.475 88.1409 185.475Z" fill="white"/>
<path opacity="0.5" d="M95.906 153.342C92.1324 154.698 90.2647 161.682 90.3799 165.264C90.3799 165.571 91.0962 170.38 91.173 170.38H91.2497C90.9427 171.481 90.6229 172.657 90.3031 173.962C89.7403 176.367 89.1263 179.079 88.653 182.098C88.1042 185.332 87.7454 188.595 87.5784 191.871C87.3808 195.542 87.505 199.223 87.9494 202.872C87.9543 202.915 87.9543 202.957 87.9494 203C87.4633 201.938 85.9794 199.009 85.8387 198.791C83.8688 195.798 78.3171 191.116 74.4411 192.229C73.8059 192.425 73.2188 192.752 72.7181 193.189C72.2173 193.626 71.814 194.164 71.5342 194.767C71.2544 195.37 71.1044 196.025 71.0939 196.69C71.0835 197.354 71.2127 198.014 71.4734 198.625C72.4967 201.273 75.5668 202.91 78.138 203.652C81.0417 204.471 87.5145 203.499 88.0262 203.422C88.5807 207.12 89.3755 210.778 90.4055 214.372C91.0067 216.47 91.6847 218.568 92.3498 220.653C91.9021 219.745 91.48 218.939 91.416 218.836C89.4461 215.843 83.8943 211.161 80.0184 212.274C79.3831 212.47 78.7961 212.797 78.2954 213.234C77.7946 213.671 77.3913 214.209 77.1115 214.812C76.8317 215.415 76.6817 216.07 76.6712 216.735C76.6608 217.399 76.79 218.059 77.0506 218.67C78.074 221.305 81.1441 222.955 83.7153 223.685C86.2864 224.414 91.8637 223.685 93.322 223.505C93.5907 224.299 93.8593 225.104 94.1407 225.898C95.4199 229.735 96.8014 233.573 97.9783 237.334C98.4004 238.613 98.7586 239.994 99.1296 241.325C98.733 240.519 98.3748 239.841 98.3109 239.751C96.3537 236.745 90.7892 232.076 86.926 233.189C86.2897 233.383 85.7013 233.71 85.1991 234.146C84.6969 234.583 84.2922 235.12 84.0111 235.723C83.7301 236.326 83.579 236.982 83.5677 237.647C83.5564 238.312 83.6851 238.973 83.9455 239.585C84.9689 242.22 88.0517 243.87 90.6229 244.599C93.1941 245.329 98.2214 244.689 99.9611 244.446C100.306 245.815 100.652 247.196 100.92 248.539C101.074 249.46 101.291 250.33 101.407 251.277L101.79 254.014C101.969 255.767 102.174 257.57 102.302 259.285C102.404 260.487 102.481 261.626 102.558 262.764C102.161 261.485 101.279 258.837 101.279 258.632C99.8625 255.818 97.7485 253.413 95.1385 251.648C94.9932 251.327 94.8221 251.019 94.6268 250.727C94.262 250.169 93.7842 249.694 93.2243 249.333C92.6644 248.972 92.0349 248.732 91.3764 248.63C90.718 248.527 90.0454 248.564 89.4022 248.738C88.7589 248.912 88.1594 249.219 87.6424 249.639C84.6107 252.262 85.3654 259.451 86.7597 262.751C86.8365 262.943 88.0389 264.964 88.7041 266.218L87.0795 264.197C85.9538 262.828 84.8026 261.498 83.5745 260.065C82.9435 259.4 82.3167 258.722 81.6941 258.031C81.0801 257.34 80.351 256.688 79.673 255.997C78.0612 254.449 76.3599 252.953 74.5562 251.494C75.7587 250.509 79.9416 246.979 81.1441 244.574C82.3465 242.169 83.2036 238.805 81.95 236.259C81.6744 235.653 81.2746 235.113 80.7765 234.672C80.2784 234.23 79.6931 233.899 79.0586 233.699C78.4241 233.499 77.7546 233.434 77.0936 233.509C76.4325 233.584 75.7946 233.798 75.2214 234.136C71.8187 236.259 71.4734 243.487 72.356 246.928C72.356 247.145 73.3282 249.576 73.8527 250.893C72.7909 250.01 71.742 249.141 70.6419 248.335C67.4695 245.891 64.2459 243.512 60.92 241.12L57.9395 238.907C58.3616 238.562 63.4272 234.468 64.7832 231.769C65.9856 229.377 66.8427 226 65.5891 223.467C65.3149 222.859 64.9155 222.315 64.417 221.871C63.9184 221.428 63.3319 221.094 62.6958 220.892C62.0596 220.691 61.388 220.626 60.725 220.701C60.0619 220.777 59.4222 220.991 58.8477 221.331C55.4578 223.467 55.1124 230.682 55.9951 234.123C56.059 234.379 57.3766 237.858 57.7604 238.728C55.5729 237.103 53.4111 235.466 51.3644 233.765C48.565 231.473 45.9159 229.003 43.4334 226.371C43.6253 226.217 48.9339 221.958 50.3155 219.207C51.5179 216.815 52.375 213.438 51.1214 210.893C50.8444 210.29 50.4442 209.752 49.9465 209.313C49.4488 208.875 48.8647 208.546 48.2319 208.347C47.5991 208.148 46.9317 208.084 46.2726 208.159C45.6136 208.234 44.9775 208.446 44.4056 208.782C41.0029 210.918 40.6703 218.146 41.5402 221.574C41.6041 221.804 42.6019 224.465 43.1136 225.706L42.9217 225.834C40.4917 223.116 38.3084 220.188 36.3978 217.084C35.3361 215.395 34.4023 213.707 33.5324 212.057C34.6069 211.366 39.4551 208.219 40.9773 205.814C42.4996 203.409 43.6636 200.301 42.6914 197.64C42.4833 197.015 42.1474 196.44 41.705 195.952C41.2626 195.464 40.7234 195.073 40.1218 194.805C39.5201 194.537 38.8692 194.397 38.2105 194.394C37.5517 194.391 36.8995 194.525 36.2955 194.788C32.6881 196.527 31.5496 203.742 32.0485 207.221C32.0485 207.413 32.5602 209.345 32.944 210.739C32.5602 209.997 32.1509 209.217 31.8055 208.488C30.5263 205.763 29.439 203.179 28.5435 200.889C28.0447 199.61 27.6097 198.331 27.2643 197.256C27.9551 196.041 30.7054 191.065 30.9612 188.302C31.2171 185.539 30.8077 182.175 28.7226 180.256C28.2468 179.788 27.6779 179.426 27.053 179.193C26.4281 178.959 25.761 178.86 25.0952 178.901C24.4293 178.942 23.7796 179.122 23.188 179.431C22.5965 179.739 22.0764 180.168 21.6615 180.691C19.2694 183.902 21.5591 190.771 23.6314 193.687C23.8105 193.943 27.0597 197.525 27.098 197.525V197.448C27.4562 198.536 27.84 199.687 28.3005 200.953C29.1576 203.269 30.1425 205.878 31.4089 208.628C32.7378 211.63 34.2413 214.552 35.9117 217.378C37.7744 220.546 39.9148 223.543 42.3077 226.333L42.3972 226.422C41.3995 225.808 38.5596 224.183 38.3166 224.081C35.0291 222.661 27.8272 221.868 25.192 224.887C24.7685 225.402 24.4581 226 24.2811 226.642C24.104 227.285 24.0643 227.957 24.1645 228.616C24.2646 229.275 24.5024 229.905 24.8624 230.466C25.2224 231.027 25.6965 231.506 26.2538 231.871C28.5563 233.509 32.0357 233.151 34.5813 232.383C37.4595 231.475 42.2565 227.087 42.7042 226.742C45.2064 229.522 47.89 232.133 50.7376 234.558C52.3878 235.978 54.0891 237.359 55.8544 238.728C54.9717 238.229 54.1786 237.781 54.0635 237.73C50.776 236.31 43.5869 235.517 40.9517 238.536C40.5257 239.049 40.2128 239.646 40.0336 240.288C39.8545 240.931 39.813 241.604 39.9121 242.263C40.0111 242.923 40.2484 243.554 40.6083 244.115C40.9682 244.676 41.4427 245.155 42.0007 245.52C44.316 247.158 47.7826 246.8 50.341 246.032C52.8994 245.265 57.1336 241.555 58.2465 240.57L60.242 242.131C63.4656 244.599 66.638 247.043 69.772 249.537C70.8593 250.42 71.8955 251.315 72.9444 252.223C72.1641 251.776 71.4989 251.405 71.3838 251.354C68.0963 249.946 60.9072 249.141 58.2721 252.172C57.846 252.685 57.5331 253.282 57.3539 253.925C57.1748 254.567 57.1334 255.24 57.2324 255.899C57.3314 256.559 57.5687 257.19 57.9286 257.751C58.2886 258.313 58.763 258.792 59.321 259.157C61.6363 260.794 65.103 260.436 67.6614 259.656C70.2197 258.875 74.0573 255.537 75.3365 254.385C76.3727 255.332 77.4216 256.291 78.3938 257.263C79.0334 257.941 79.673 258.543 80.3126 259.272L82.1419 261.357C83.2675 262.713 84.4188 264.107 85.4805 265.463C86.2225 266.41 86.9133 267.318 87.6168 268.226C86.5423 267.344 84.406 265.668 84.2014 265.527C81.1697 263.621 74.1853 261.753 71.1152 264.337C70.6197 264.782 70.2235 265.327 69.9522 265.935C69.6809 266.543 69.5408 267.202 69.5408 267.868C69.5408 268.534 69.6809 269.193 69.9522 269.801C70.2235 270.409 70.6197 270.954 71.1152 271.399C73.1491 273.369 76.6285 273.573 79.2764 273.164C82.1802 272.716 87.4505 269.326 88.1029 268.853C89.2542 270.362 90.3543 271.846 91.3776 273.253C94.921 278.153 97.6841 282.374 99.5773 285.342L99.7692 285.649L102.225 284.459L101.841 283.871C99.8587 280.916 96.9805 276.72 93.2837 271.846C92.1324 270.298 90.8532 268.687 89.5356 267.024C90.9041 265.53 92.1854 263.958 93.3732 262.316C96.1874 263.416 102.059 263.455 102.814 263.455C102.942 265.361 103.044 267.203 103.108 268.943C103.364 274.993 103.338 280.033 103.287 283.551C103.287 283.692 103.287 283.82 103.287 283.96L105.986 282.681C105.986 279.176 105.845 274.443 105.5 268.84C105.372 266.921 105.206 264.862 105.027 262.751C105.769 262.572 111.87 260.999 114.173 259.157C116.271 257.494 118.471 254.782 118.394 251.955C118.399 251.289 118.264 250.629 117.997 250.018C117.731 249.408 117.338 248.86 116.846 248.411C116.354 247.963 115.772 247.622 115.14 247.413C114.508 247.204 113.838 247.13 113.175 247.196C109.184 247.708 105.858 254.117 105.206 257.647C105.206 257.852 104.988 260.206 104.912 261.6C104.835 260.743 104.758 259.911 104.668 259.042C104.489 257.289 104.259 255.549 104.029 253.669C103.875 252.773 103.722 251.852 103.581 250.931C103.44 250.01 103.197 249.064 103.006 248.13C102.519 245.943 101.931 243.755 101.279 241.568C102.814 241.414 108.263 240.775 110.591 239.431C112.919 238.088 115.49 235.76 115.849 232.946C115.954 232.289 115.919 231.617 115.747 230.973C115.576 230.33 115.271 229.73 114.852 229.213C114.433 228.695 113.911 228.272 113.318 227.969C112.725 227.667 112.075 227.493 111.41 227.458C107.393 227.356 103.121 233.189 101.944 236.579C101.867 236.784 101.291 239.304 101.01 240.698C100.601 239.419 100.217 238.076 99.7308 236.758C98.4516 232.92 97.0061 229.172 95.599 225.373L94.3198 221.881C94.8699 221.881 101.355 221.216 103.965 219.706C106.28 218.427 108.864 216.035 109.222 213.221C109.329 212.563 109.296 211.89 109.126 211.246C108.955 210.602 108.65 210.002 108.231 209.484C107.812 208.966 107.288 208.542 106.694 208.24C106.1 207.939 105.449 207.766 104.784 207.733C100.767 207.631 96.4944 213.477 95.3176 216.854C95.228 217.109 94.4093 220.691 94.243 221.676C93.322 219.118 92.4266 216.559 91.6847 214.001C90.6163 210.543 89.7618 207.023 89.1263 203.46C89.3821 203.46 96.1618 202.821 98.8354 201.286C101.151 199.943 103.735 197.602 104.093 194.788C104.198 194.129 104.163 193.456 103.991 192.812C103.818 192.168 103.512 191.568 103.092 191.05C102.672 190.532 102.148 190.109 101.553 189.807C100.959 189.506 100.307 189.333 99.6413 189.3C95.6374 189.197 91.3648 195.043 90.188 198.42C90.1112 198.638 89.4844 201.414 89.2158 202.731H88.9855C88.4572 199.128 88.2517 195.485 88.3715 191.845C88.3715 189.85 88.5634 187.931 88.7553 186.076C90.0345 186.076 95.8548 186.076 98.4132 184.976C100.972 183.876 103.684 181.855 104.349 179.105C104.526 178.46 104.566 177.786 104.464 177.125C104.363 176.465 104.123 175.833 103.761 175.272C103.399 174.71 102.922 174.231 102.362 173.867C101.802 173.502 101.171 173.26 100.511 173.156C96.5328 172.619 91.6463 177.953 90.1112 181.177C90.0217 181.356 89.3693 183.236 88.9088 184.618C88.9983 183.774 89.0879 182.917 89.203 182.06C89.6124 179.053 90.1624 176.329 90.6741 173.911C90.9811 172.542 91.2753 171.353 91.5695 170.163C92.8487 169.523 97.8632 166.901 99.5901 164.765C101.317 162.629 102.826 159.571 102.148 156.821C102.008 156.159 101.727 155.535 101.324 154.99C100.922 154.446 100.408 153.993 99.8172 153.664C99.226 153.334 98.5711 153.135 97.8965 153.08C97.2219 153.024 96.5432 153.113 95.906 153.342Z" fill="white"/>
<path opacity="0.5" d="M23.4002 215.178C26.5343 215.05 32.8023 211.826 32.8151 211.826C32.8279 211.826 29.4381 208.347 29.195 208.142C26.3936 205.917 19.665 203.243 16.3263 205.469C15.7822 205.852 15.3249 206.346 14.9841 206.918C14.6433 207.49 14.4266 208.127 14.3482 208.788C14.2698 209.45 14.3314 210.12 14.5289 210.756C14.7264 211.391 15.0555 211.979 15.4948 212.479C17.2985 214.666 20.7651 215.28 23.4002 215.178Z" fill="white"/>
</g>
<path d="M59.9981 293.657C59.9981 293.657 79.0197 247.81 89.6626 249.806C100.306 251.801 71.4085 322.899 71.4085 322.899C71.4085 322.899 104.872 259.771 127.693 259.771C150.514 259.771 119.327 329.538 90.4301 352.794C90.4301 352.794 136.059 303.621 162.692 314.264C189.325 324.907 109.439 374.732 109.439 374.732C109.439 374.732 155.835 360.111 150.514 371.406C145.193 382.701 130.776 384.697 130.776 384.697L183.223 387.358H0.668945L41.7439 383.367C41.7439 383.367 -0.853299 362.106 10.5315 353.459C21.9164 344.812 47.0398 363.424 47.0398 363.424C47.0398 363.424 3.68784 315.582 12.0538 297.648C20.4197 279.713 57.6955 330.203 57.6955 330.203C57.6955 330.203 27.2634 265.757 33.3908 254.449C39.5181 243.141 59.9981 293.657 59.9981 293.657Z" fill="#0083FF"/>
<path opacity="0.4" d="M59.9981 293.657C59.9981 293.657 79.0197 247.81 89.6626 249.806C100.306 251.801 71.4085 322.899 71.4085 322.899C71.4085 322.899 104.872 259.771 127.693 259.771C150.514 259.771 119.327 329.538 90.4301 352.794C90.4301 352.794 136.059 303.621 162.692 314.264C189.325 324.907 109.439 374.732 109.439 374.732C109.439 374.732 155.835 360.111 150.514 371.406C145.193 382.701 130.776 384.697 130.776 384.697L183.223 387.358H0.668945L41.7439 383.367C41.7439 383.367 -0.853299 362.106 10.5315 353.459C21.9164 344.812 47.0398 363.424 47.0398 363.424C47.0398 363.424 3.68784 315.582 12.0538 297.648C20.4197 279.713 57.6955 330.203 57.6955 330.203C57.6955 330.203 27.2634 265.757 33.3908 254.449C39.5181 243.141 59.9981 293.657 59.9981 293.657Z" fill="white"/>
<path d="M53.9225 296.074C70.6544 345.515 70.6544 380.501 70.6544 380.501C70.6544 380.501 50.878 381.269 30.3341 366.059" stroke="#263238" stroke-linecap="round" stroke-linejoin="round"/>
<path d="M62.2881 322.694C65.7318 307.914 70.3078 293.421 75.9755 279.342" stroke="#263238" stroke-linecap="round" stroke-linejoin="round"/>
<path d="M111.729 293.797L69.1321 356.926C69.1321 356.926 40.2223 332.621 30.3341 318.895" stroke="#263238" stroke-linecap="round" stroke-linejoin="round"/>
<path d="M69.8867 372.135C69.8867 372.135 114.761 350.837 133.028 338.672" stroke="#263238" stroke-linecap="round" stroke-linejoin="round"/>
<path d="M443.692 185.475C443.615 185.475 444.588 180.704 444.677 180.358C445.777 176.955 449.922 171.02 453.926 171.02C454.592 171.041 455.246 171.201 455.847 171.491C456.447 171.781 456.98 172.194 457.41 172.703C457.841 173.212 458.16 173.806 458.346 174.446C458.532 175.086 458.582 175.758 458.492 176.418C458.198 179.232 455.665 181.637 453.376 183.019C450.689 184.695 443.692 185.475 443.692 185.475Z" fill="#0083FF"/>
<path d="M435.928 153.342C439.701 154.698 441.582 161.682 441.454 165.264C441.454 165.571 440.738 170.38 440.674 170.38H440.597C440.891 171.481 441.211 172.657 441.531 173.962C442.094 176.367 442.708 179.079 443.181 182.098C443.73 185.332 444.088 188.595 444.255 191.871C444.459 195.542 444.335 199.223 443.884 202.872C443.88 202.915 443.88 202.957 443.884 203C444.383 201.938 445.867 199.009 445.995 198.791C447.965 195.798 453.517 191.116 457.393 192.229C458.029 192.423 458.617 192.749 459.119 193.186C459.621 193.623 460.025 194.161 460.305 194.764C460.585 195.368 460.735 196.023 460.745 196.689C460.754 197.354 460.623 198.014 460.36 198.625C459.337 201.273 456.267 202.91 453.696 203.652C450.792 204.471 444.319 203.499 443.808 203.422C443.259 207.121 442.464 210.779 441.428 214.372C440.831 216.47 440.183 218.563 439.484 220.653C439.932 219.745 440.354 218.939 440.418 218.836C442.388 215.843 447.952 211.161 451.815 212.274C452.452 212.468 453.04 212.794 453.542 213.231C454.044 213.668 454.448 214.206 454.728 214.809C455.008 215.413 455.158 216.068 455.167 216.734C455.177 217.399 455.046 218.059 454.783 218.67C453.76 221.305 450.69 222.955 448.119 223.685C445.547 224.414 439.97 223.685 438.512 223.505L437.706 225.898C436.427 229.735 435.032 233.573 433.868 237.334C433.446 238.613 433.075 239.994 432.704 241.325C433.114 240.519 433.459 239.841 433.523 239.751C435.493 236.745 441.045 232.076 444.908 233.189C445.544 233.383 446.133 233.71 446.635 234.146C447.137 234.583 447.542 235.12 447.823 235.723C448.104 236.326 448.255 236.982 448.266 237.647C448.277 238.312 448.149 238.973 447.888 239.585C446.865 242.22 443.782 243.87 441.211 244.599C438.64 245.329 433.612 244.689 431.873 244.446C431.527 245.815 431.195 247.196 430.926 248.539C430.76 249.46 430.542 250.33 430.427 251.277L430.044 254.014C429.864 255.767 429.66 257.57 429.532 259.285C429.429 260.487 429.353 261.626 429.276 262.764C429.685 261.485 430.555 258.837 430.619 258.632C432.04 255.82 434.153 253.417 436.759 251.648C436.904 251.325 437.08 251.016 437.284 250.727C437.646 250.168 438.122 249.692 438.681 249.329C439.24 248.967 439.868 248.727 440.526 248.624C441.184 248.521 441.857 248.559 442.499 248.734C443.142 248.909 443.74 249.217 444.255 249.639C447.3 252.262 446.532 259.451 445.138 262.751C445.061 262.943 443.923 264.964 443.194 266.218C443.744 265.54 444.255 264.939 444.831 264.197C445.944 262.828 447.095 261.498 448.323 260.065L450.204 258.031C450.818 257.34 451.56 256.688 452.238 255.997C453.837 254.449 455.538 252.953 457.29 251.494C456.101 250.509 451.905 246.979 450.703 244.574C449.5 242.169 448.643 238.805 449.897 236.259C450.172 235.652 450.572 235.109 451.071 234.667C451.57 234.225 452.157 233.892 452.793 233.692C453.429 233.492 454.1 233.428 454.763 233.504C455.425 233.58 456.064 233.796 456.638 234.136C460.028 236.259 460.373 243.487 459.491 246.928C459.491 247.145 458.518 249.576 457.994 250.893C459.056 250.01 460.105 249.141 461.205 248.335C464.377 245.891 467.665 243.512 470.927 241.12L473.907 238.907C473.485 238.562 468.419 234.468 467.063 231.769C465.874 229.377 465.004 226 466.258 223.467C466.532 222.859 466.931 222.315 467.43 221.871C467.928 221.428 468.515 221.094 469.151 220.892C469.787 220.691 470.459 220.626 471.122 220.701C471.785 220.777 472.424 220.991 472.999 221.331C476.402 223.467 476.734 230.682 475.852 234.123C475.788 234.379 474.47 237.858 474.099 238.728C476.274 237.103 478.436 235.466 480.495 233.765C483.294 231.473 485.944 229.003 488.426 226.371C488.234 226.217 482.925 221.958 481.544 219.207C480.341 216.815 479.484 213.438 480.738 210.893C481.012 210.286 481.411 209.744 481.909 209.301C482.406 208.859 482.992 208.526 483.626 208.325C484.261 208.123 484.931 208.058 485.592 208.132C486.254 208.206 486.893 208.419 487.467 208.756C490.869 210.893 491.215 218.12 490.332 221.548C490.268 221.779 489.27 224.439 488.771 225.68C488.83 225.73 488.895 225.773 488.963 225.808C491.39 223.091 493.569 220.163 495.474 217.058C496.549 215.37 497.47 213.681 498.34 212.031C497.265 211.34 492.417 208.193 490.895 205.789C489.373 203.384 488.221 200.275 489.181 197.615C489.388 196.981 489.726 196.399 490.173 195.905C490.619 195.411 491.165 195.017 491.775 194.748C492.384 194.479 493.043 194.341 493.709 194.343C494.375 194.346 495.033 194.488 495.641 194.762C499.261 196.502 500.386 203.716 499.888 207.196C499.888 207.388 499.376 209.319 499.005 210.713C499.376 209.972 499.785 209.191 500.131 208.462C501.41 205.737 502.497 203.153 503.393 200.864C503.904 199.584 504.326 198.305 504.672 197.231C503.968 196.016 501.231 191.039 500.962 188.276C500.694 185.513 501.128 182.149 503.214 180.23C503.688 179.763 504.256 179.401 504.88 179.168C505.504 178.934 506.17 178.835 506.835 178.876C507.5 178.917 508.148 179.098 508.739 179.406C509.329 179.714 509.848 180.143 510.262 180.665C512.667 183.876 510.377 190.745 508.305 193.662C508.126 193.918 504.864 197.499 504.825 197.499V197.423C504.467 198.51 504.083 199.661 503.623 200.928C502.779 203.243 501.794 205.853 500.527 208.603C499.189 211.602 497.681 214.524 496.012 217.353C494.149 220.521 492.009 223.517 489.616 226.307L489.526 226.396C490.524 225.782 493.364 224.158 493.607 224.056C496.907 222.636 504.096 221.843 506.731 224.861C507.155 225.375 507.467 225.972 507.645 226.614C507.823 227.256 507.864 227.929 507.765 228.588C507.666 229.246 507.429 229.877 507.07 230.438C506.712 231 506.239 231.479 505.682 231.846C503.367 233.483 499.9 233.125 497.342 232.357C494.464 231.449 489.667 227.062 489.232 226.716C486.73 229.496 484.046 232.107 481.199 234.532C479.548 235.952 477.834 237.334 476.082 238.702C476.964 238.203 477.758 237.756 477.873 237.705C481.16 236.285 488.349 235.492 490.984 238.51C491.41 239.023 491.723 239.621 491.903 240.263C492.082 240.905 492.123 241.578 492.024 242.238C491.925 242.897 491.688 243.528 491.328 244.089C490.968 244.651 490.493 245.13 489.935 245.495C487.633 247.132 484.154 246.774 481.608 246.007C479.062 245.239 474.803 241.529 473.702 240.544C473.024 241.069 472.423 241.593 471.694 242.105C468.483 244.574 465.298 247.017 462.164 249.512C461.077 250.394 460.041 251.29 458.992 252.198L460.552 251.328C463.84 249.921 471.029 249.115 473.664 252.147C474.09 252.66 474.403 253.257 474.582 253.899C474.761 254.541 474.803 255.214 474.704 255.874C474.605 256.533 474.367 257.164 474.008 257.726C473.648 258.287 473.173 258.766 472.615 259.131C470.3 260.768 466.833 260.41 464.288 259.63C461.742 258.85 457.892 255.511 456.612 254.36C455.576 255.306 454.527 256.266 453.568 257.238C452.916 257.916 452.289 258.517 451.649 259.246L449.807 261.331C448.694 262.687 447.53 264.082 446.468 265.438C445.726 266.384 445.036 267.292 444.345 268.201C445.407 267.318 447.556 265.642 447.748 265.501C450.779 263.595 457.776 261.728 460.834 264.312C461.329 264.757 461.725 265.301 461.997 265.91C462.268 266.518 462.408 267.176 462.408 267.842C462.408 268.508 462.268 269.167 461.997 269.775C461.725 270.384 461.329 270.928 460.834 271.373C458.787 273.343 455.308 273.548 452.673 273.138C449.756 272.691 444.486 269.301 443.833 268.827C442.682 270.337 441.582 271.821 440.559 273.228C437.015 278.127 434.252 282.348 432.359 285.316C432.359 285.431 432.231 285.521 432.167 285.623L429.711 284.434L430.095 283.845C432.077 280.89 434.968 276.694 438.653 271.821C439.817 270.273 441.083 268.661 442.401 266.998C441.029 265.506 439.748 263.934 438.563 262.291C435.736 263.391 429.877 263.429 429.11 263.429C428.995 265.335 428.892 267.177 428.815 268.917C428.56 274.968 428.585 280.008 428.649 283.525V283.935L425.95 282.656C425.95 279.151 426.091 274.417 426.449 268.815C426.564 266.896 426.73 264.836 426.922 262.726C426.168 262.547 420.066 260.973 417.763 259.131C415.678 257.468 413.478 254.756 413.555 251.929C413.548 251.262 413.681 250.602 413.947 249.99C414.214 249.379 414.606 248.83 415.099 248.381C415.591 247.932 416.173 247.592 416.807 247.383C417.44 247.174 418.111 247.102 418.774 247.171C422.752 247.682 426.091 254.091 426.743 257.622C426.743 257.826 426.948 260.18 427.025 261.574C427.114 260.717 427.178 259.886 427.28 259.016C427.447 257.263 427.677 255.524 427.92 253.643C428.061 252.748 428.214 251.827 428.355 250.906C428.496 249.985 428.739 249.038 428.931 248.104C429.417 245.917 430.005 243.73 430.658 241.542C429.122 241.389 423.686 240.749 421.345 239.406C419.004 238.063 416.446 235.735 416.1 232.92C415.993 232.263 416.026 231.59 416.197 230.946C416.368 230.302 416.673 229.701 417.092 229.183C417.511 228.665 418.035 228.242 418.629 227.94C419.223 227.638 419.874 227.465 420.539 227.433C424.543 227.33 428.816 233.163 429.992 236.553C430.069 236.758 430.645 239.278 430.926 240.672C431.336 239.393 431.719 238.05 432.205 236.732C433.485 232.895 434.93 229.147 436.337 225.348C436.772 224.183 437.181 223.019 437.616 221.855C437.066 221.855 430.581 221.19 427.971 219.681C425.656 218.401 423.072 216.009 422.714 213.195C422.609 212.538 422.643 211.866 422.815 211.223C422.987 210.58 423.292 209.98 423.71 209.462C424.129 208.945 424.652 208.521 425.245 208.219C425.838 207.916 426.488 207.742 427.153 207.707C431.169 207.605 435.442 213.451 436.619 216.828C436.708 217.084 437.527 220.666 437.693 221.651C438.614 219.092 439.522 216.534 440.252 213.975C441.332 210.521 442.186 207 442.81 203.435C442.554 203.435 435.787 202.795 433.114 201.26C430.785 199.917 428.201 197.576 427.856 194.762C427.749 194.104 427.782 193.432 427.953 192.788C428.124 192.144 428.429 191.543 428.848 191.025C429.267 190.507 429.79 190.083 430.384 189.782C430.978 189.48 431.629 189.307 432.295 189.274C436.299 189.172 440.571 195.018 441.748 198.395C441.825 198.612 442.465 201.388 442.733 202.706H442.951C443.479 199.103 443.684 195.459 443.565 191.82C443.565 189.824 443.373 187.905 443.181 186.051C441.902 186.051 436.094 186.051 433.536 184.95C430.977 183.85 428.253 181.829 427.587 179.079C427.41 178.435 427.371 177.76 427.472 177.1C427.573 176.439 427.813 175.808 428.175 175.246C428.537 174.684 429.014 174.206 429.574 173.841C430.134 173.477 430.765 173.235 431.425 173.131C435.403 172.593 440.29 177.928 441.838 181.151C441.914 181.33 442.58 183.211 443.027 184.592C442.938 183.748 442.848 182.891 442.733 182.034C442.337 179.028 441.774 176.303 441.262 173.885C440.955 172.517 440.661 171.327 440.367 170.137C439.087 169.498 434.073 166.875 432.359 164.739C430.645 162.603 429.11 159.546 429.8 156.795C429.947 156.149 430.227 155.541 430.623 155.009C431.019 154.478 431.521 154.036 432.099 153.71C432.676 153.385 433.315 153.184 433.974 153.12C434.634 153.057 435.299 153.132 435.928 153.342Z" fill="#0083FF"/>
<path d="M508.433 215.178C505.299 215.05 499.031 211.826 499.031 211.826C499.031 211.826 502.395 208.347 502.638 208.142C505.44 205.917 512.168 203.243 515.507 205.469C516.053 205.851 516.512 206.344 516.854 206.916C517.196 207.488 517.413 208.126 517.491 208.788C517.57 209.449 517.508 210.12 517.309 210.756C517.11 211.392 516.78 211.979 516.339 212.479C514.535 214.666 511.107 215.28 508.433 215.178Z" fill="#0083FF"/>
<g opacity="0.5">
<path opacity="0.5" d="M443.693 185.475C443.616 185.475 444.588 180.704 444.678 180.358C445.778 176.955 449.923 171.02 453.927 171.02C454.593 171.041 455.247 171.201 455.848 171.491C456.448 171.781 456.981 172.194 457.411 172.703C457.842 173.212 458.161 173.806 458.347 174.446C458.533 175.086 458.583 175.758 458.493 176.418C458.199 179.232 455.666 181.637 453.377 183.019C450.69 184.695 443.693 185.475 443.693 185.475Z" fill="white"/>
<path opacity="0.5" d="M435.928 153.342C439.701 154.698 441.582 161.682 441.454 165.264C441.454 165.571 440.738 170.38 440.674 170.38H440.597C440.891 171.481 441.211 172.657 441.531 173.962C442.094 176.367 442.708 179.079 443.181 182.098C443.73 185.332 444.088 188.595 444.255 191.871C444.459 195.542 444.335 199.223 443.884 202.872C443.88 202.915 443.88 202.957 443.884 203C444.383 201.938 445.867 199.009 445.995 198.791C447.965 195.798 453.517 191.116 457.393 192.229C458.029 192.423 458.617 192.749 459.119 193.186C459.621 193.623 460.025 194.161 460.305 194.764C460.585 195.368 460.735 196.023 460.745 196.689C460.754 197.354 460.623 198.014 460.36 198.625C459.337 201.273 456.267 202.91 453.696 203.652C450.792 204.471 444.319 203.499 443.808 203.422C443.259 207.121 442.464 210.779 441.428 214.372C440.831 216.47 440.183 218.563 439.484 220.653C439.932 219.745 440.354 218.939 440.418 218.836C442.388 215.843 447.952 211.161 451.815 212.274C452.452 212.468 453.04 212.794 453.542 213.231C454.044 213.668 454.448 214.206 454.728 214.809C455.008 215.413 455.158 216.068 455.167 216.734C455.177 217.399 455.046 218.059 454.783 218.67C453.76 221.305 450.69 222.955 448.119 223.685C445.547 224.414 439.97 223.685 438.512 223.505L437.706 225.898C436.427 229.735 435.032 233.573 433.868 237.334C433.446 238.613 433.075 239.994 432.704 241.325C433.114 240.519 433.459 239.841 433.523 239.751C435.493 236.745 441.045 232.076 444.908 233.189C445.544 233.383 446.133 233.71 446.635 234.146C447.137 234.583 447.542 235.12 447.823 235.723C448.104 236.326 448.255 236.982 448.266 237.647C448.277 238.312 448.149 238.973 447.888 239.585C446.865 242.22 443.782 243.87 441.211 244.599C438.64 245.329 433.612 244.689 431.873 244.446C431.527 245.815 431.195 247.196 430.926 248.539C430.76 249.46 430.542 250.33 430.427 251.277L430.044 254.014C429.864 255.767 429.66 257.57 429.532 259.285C429.429 260.487 429.353 261.626 429.276 262.764C429.685 261.485 430.555 258.837 430.619 258.632C432.04 255.82 434.153 253.417 436.759 251.648C436.904 251.325 437.08 251.016 437.284 250.727C437.646 250.168 438.122 249.692 438.681 249.329C439.24 248.967 439.868 248.727 440.526 248.624C441.184 248.521 441.857 248.559 442.499 248.734C443.142 248.909 443.74 249.217 444.255 249.639C447.3 252.262 446.532 259.451 445.138 262.751C445.061 262.943 443.923 264.964 443.194 266.218C443.744 265.54 444.255 264.939 444.831 264.197C445.944 262.828 447.095 261.498 448.323 260.065L450.204 258.031C450.818 257.34 451.56 256.688 452.238 255.997C453.837 254.449 455.538 252.953 457.29 251.494C456.101 250.509 451.905 246.979 450.703 244.574C449.5 242.169 448.643 238.805 449.897 236.259C450.172 235.652 450.572 235.109 451.071 234.667C451.57 234.225 452.157 233.892 452.793 233.692C453.429 233.492 454.1 233.428 454.763 233.504C455.425 233.58 456.064 233.796 456.638 234.136C460.028 236.259 460.373 243.487 459.491 246.928C459.491 247.145 458.518 249.576 457.994 250.893C459.056 250.01 460.105 249.141 461.205 248.335C464.377 245.891 467.665 243.512 470.927 241.12L473.907 238.907C473.485 238.562 468.419 234.468 467.063 231.769C465.874 229.377 465.004 226 466.258 223.467C466.532 222.859 466.931 222.315 467.43 221.871C467.928 221.428 468.515 221.094 469.151 220.892C469.787 220.691 470.459 220.626 471.122 220.701C471.785 220.777 472.424 220.991 472.999 221.331C476.402 223.467 476.734 230.682 475.852 234.123C475.788 234.379 474.47 237.858 474.099 238.728C476.274 237.103 478.436 235.466 480.495 233.765C483.294 231.473 485.944 229.003 488.426 226.371C488.234 226.217 482.925 221.958 481.544 219.207C480.341 216.815 479.484 213.438 480.738 210.893C481.012 210.286 481.411 209.744 481.909 209.301C482.406 208.859 482.992 208.526 483.626 208.325C484.261 208.123 484.931 208.058 485.592 208.132C486.254 208.206 486.893 208.419 487.467 208.756C490.869 210.893 491.215 218.12 490.332 221.548C490.268 221.779 489.27 224.439 488.771 225.68C488.83 225.73 488.895 225.773 488.963 225.808C491.39 223.091 493.569 220.163 495.474 217.058C496.549 215.37 497.47 213.681 498.34 212.031C497.265 211.34 492.417 208.193 490.895 205.789C489.373 203.384 488.221 200.275 489.181 197.615C489.388 196.981 489.726 196.399 490.173 195.905C490.619 195.411 491.165 195.017 491.775 194.748C492.384 194.479 493.043 194.341 493.709 194.343C494.375 194.346 495.033 194.488 495.641 194.762C499.261 196.502 500.386 203.716 499.888 207.196C499.888 207.388 499.376 209.319 499.005 210.713C499.376 209.972 499.785 209.191 500.131 208.462C501.41 205.737 502.497 203.153 503.393 200.864C503.904 199.584 504.326 198.305 504.672 197.231C503.968 196.016 501.231 191.039 500.962 188.276C500.694 185.513 501.128 182.149 503.214 180.23C503.688 179.763 504.256 179.401 504.88 179.168C505.504 178.934 506.17 178.835 506.835 178.876C507.5 178.917 508.148 179.098 508.739 179.406C509.329 179.714 509.848 180.143 510.262 180.665C512.667 183.876 510.377 190.745 508.305 193.662C508.126 193.918 504.864 197.499 504.825 197.499V197.423C504.467 198.51 504.083 199.661 503.623 200.928C502.779 203.243 501.794 205.853 500.527 208.603C499.189 211.602 497.681 214.524 496.012 217.353C494.149 220.521 492.009 223.517 489.616 226.307L489.526 226.396C490.524 225.782 493.364 224.158 493.607 224.056C496.907 222.636 504.096 221.843 506.731 224.861C507.155 225.375 507.467 225.972 507.645 226.614C507.823 227.256 507.864 227.929 507.765 228.588C507.666 229.246 507.429 229.877 507.07 230.438C506.712 231 506.239 231.479 505.682 231.846C503.367 233.483 499.9 233.125 497.342 232.357C494.464 231.449 489.667 227.062 489.232 226.716C486.73 229.496 484.046 232.107 481.199 234.532C479.548 235.952 477.834 237.334 476.082 238.702C476.964 238.203 477.758 237.756 477.873 237.705C481.16 236.285 488.349 235.492 490.984 238.51C491.41 239.023 491.723 239.621 491.903 240.263C492.082 240.905 492.123 241.578 492.024 242.238C491.925 242.897 491.688 243.528 491.328 244.089C490.968 244.651 490.493 245.13 489.935 245.495C487.633 247.132 484.154 246.774 481.608 246.007C479.062 245.239 474.803 241.529 473.702 240.544C473.024 241.069 472.423 241.593 471.694 242.105C468.483 244.574 465.298 247.017 462.164 249.512C461.077 250.394 460.041 251.29 458.992 252.198L460.552 251.328C463.84 249.921 471.029 249.115 473.664 252.147C474.09 252.66 474.403 253.257 474.582 253.899C474.761 254.541 474.803 255.214 474.704 255.874C474.605 256.533 474.367 257.164 474.008 257.726C473.648 258.287 473.173 258.766 472.615 259.131C470.3 260.768 466.833 260.41 464.288 259.63C461.742 258.85 457.892 255.511 456.612 254.36C455.576 255.306 454.527 256.266 453.568 257.238C452.916 257.916 452.289 258.517 451.649 259.246L449.807 261.331C448.694 262.687 447.53 264.082 446.468 265.438C445.726 266.384 445.036 267.292 444.345 268.201C445.407 267.318 447.556 265.642 447.748 265.501C450.779 263.595 457.776 261.728 460.834 264.312C461.329 264.757 461.725 265.301 461.997 265.91C462.268 266.518 462.408 267.176 462.408 267.842C462.408 268.508 462.268 269.167 461.997 269.775C461.725 270.384 461.329 270.928 460.834 271.373C458.787 273.343 455.308 273.548 452.673 273.138C449.756 272.691 444.486 269.301 443.833 268.827C442.682 270.337 441.582 271.821 440.559 273.228C437.015 278.127 434.252 282.348 432.359 285.316C432.359 285.431 432.231 285.521 432.167 285.623L429.711 284.434L430.095 283.845C432.077 280.89 434.968 276.694 438.653 271.821C439.817 270.273 441.083 268.661 442.401 266.998C441.029 265.506 439.748 263.934 438.563 262.291C435.736 263.391 429.877 263.429 429.11 263.429C428.995 265.335 428.892 267.177 428.815 268.917C428.56 274.968 428.585 280.008 428.649 283.525V283.935L425.95 282.656C425.95 279.151 426.091 274.417 426.449 268.815C426.564 266.896 426.73 264.836 426.922 262.726C426.168 262.547 420.066 260.973 417.763 259.131C415.678 257.468 413.478 254.756 413.555 251.929C413.548 251.262 413.681 250.602 413.947 249.99C414.214 249.379 414.606 248.83 415.099 248.381C415.591 247.932 416.173 247.592 416.807 247.383C417.44 247.174 418.111 247.102 418.774 247.171C422.752 247.682 426.091 254.091 426.743 257.622C426.743 257.826 426.948 260.18 427.025 261.574C427.114 260.717 427.178 259.886 427.28 259.016C427.447 257.263 427.677 255.524 427.92 253.643C428.061 252.748 428.214 251.827 428.355 250.906C428.496 249.985 428.739 249.038 428.931 248.104C429.417 245.917 430.005 243.73 430.658 241.542C429.122 241.389 423.686 240.749 421.345 239.406C419.004 238.063 416.446 235.735 416.1 232.92C415.993 232.263 416.026 231.59 416.197 230.946C416.368 230.302 416.673 229.701 417.092 229.183C417.511 228.665 418.035 228.242 418.629 227.94C419.223 227.638 419.874 227.465 420.539 227.433C424.543 227.33 428.816 233.163 429.992 236.553C430.069 236.758 430.645 239.278 430.926 240.672C431.336 239.393 431.719 238.05 432.205 236.732C433.485 232.895 434.93 229.147 436.337 225.348C436.772 224.183 437.181 223.019 437.616 221.855C437.066 221.855 430.581 221.19 427.971 219.681C425.656 218.401 423.072 216.009 422.714 213.195C422.609 212.538 422.643 211.866 422.815 211.223C422.987 210.58 423.292 209.98 423.71 209.462C424.129 208.945 424.652 208.521 425.245 208.219C425.838 207.916 426.488 207.742 427.153 207.707C431.169 207.605 435.442 213.451 436.619 216.828C436.708 217.084 437.527 220.666 437.693 221.651C438.614 219.092 439.522 216.534 440.252 213.975C441.332 210.521 442.186 207 442.81 203.435C442.554 203.435 435.787 202.795 433.114 201.26C430.785 199.917 428.201 197.576 427.856 194.762C427.749 194.104 427.782 193.432 427.953 192.788C428.124 192.144 428.429 191.543 428.848 191.025C429.267 190.507 429.79 190.083 430.384 189.782C430.978 189.48 431.629 189.307 432.295 189.274C436.299 189.172 440.571 195.018 441.748 198.395C441.825 198.612 442.465 201.388 442.733 202.706H442.951C443.479 199.103 443.684 195.459 443.565 191.82C443.565 189.824 443.373 187.905 443.181 186.051C441.902 186.051 436.094 186.051 433.536 184.95C430.977 183.85 428.253 181.829 427.587 179.079C427.41 178.435 427.371 177.76 427.472 177.1C427.573 176.439 427.813 175.808 428.175 175.246C428.537 174.684 429.014 174.206 429.574 173.841C430.134 173.477 430.765 173.235 431.425 173.131C435.403 172.593 440.29 177.928 441.838 181.151C441.914 181.33 442.58 183.211 443.027 184.592C442.938 183.748 442.848 182.891 442.733 182.034C442.337 179.028 441.774 176.303 441.262 173.885C440.955 172.517 440.661 171.327 440.367 170.137C439.087 169.498 434.073 166.875 432.359 164.739C430.645 162.603 429.11 159.546 429.8 156.795C429.947 156.149 430.227 155.541 430.623 155.009C431.019 154.478 431.521 154.036 432.099 153.71C432.676 153.385 433.315 153.184 433.974 153.12C434.634 153.057 435.299 153.132 435.928 153.342Z" fill="white"/>
<path opacity="0.5" d="M508.432 215.178C505.298 215.05 499.03 211.826 499.03 211.826C499.03 211.826 502.394 208.347 502.637 208.142C505.439 205.917 512.167 203.243 515.506 205.469C516.052 205.851 516.511 206.344 516.853 206.916C517.195 207.488 517.412 208.126 517.49 208.788C517.569 209.449 517.507 210.12 517.308 210.756C517.109 211.392 516.779 211.979 516.338 212.479C514.534 214.666 511.106 215.28 508.432 215.178Z" fill="white"/>
</g>
<path d="M471.834 293.657C471.834 293.657 452.813 247.81 442.17 249.806C431.527 251.801 460.424 322.899 460.424 322.899C460.424 322.899 426.96 259.771 404.139 259.771C381.319 259.771 412.505 329.538 441.415 352.794C441.415 352.794 395.773 303.621 369.153 314.264C342.533 324.907 422.432 374.732 422.432 374.732C422.432 374.732 376.036 360.111 381.357 371.406C386.678 382.701 401.133 384.697 401.133 384.697L348.686 387.358H531.164L490.089 383.367C490.089 383.367 532.686 362.106 521.275 353.459C509.865 344.812 484.767 363.424 484.767 363.424C484.767 363.424 528.119 315.582 519.753 297.648C511.387 279.713 474.111 330.203 474.111 330.203C474.111 330.203 504.544 265.757 498.416 254.449C492.289 243.141 471.834 293.657 471.834 293.657Z" fill="#0083FF"/>
<path opacity="0.4" d="M471.834 293.657C471.834 293.657 452.813 247.81 442.17 249.806C431.527 251.801 460.424 322.899 460.424 322.899C460.424 322.899 426.96 259.771 404.139 259.771C381.319 259.771 412.505 329.538 441.415 352.794C441.415 352.794 395.773 303.621 369.153 314.264C342.533 324.907 422.432 374.732 422.432 374.732C422.432 374.732 376.036 360.111 381.357 371.406C386.678 382.701 401.133 384.697 401.133 384.697L348.686 387.358H531.164L490.089 383.367C490.089 383.367 532.686 362.106 521.275 353.459C509.865 344.812 484.767 363.424 484.767 363.424C484.767 363.424 528.119 315.582 519.753 297.648C511.387 279.713 474.111 330.203 474.111 330.203C474.111 330.203 504.544 265.757 498.416 254.449C492.289 243.141 471.834 293.657 471.834 293.657Z" fill="white"/>
<path d="M477.924 296.074C461.192 345.515 461.192 380.501 461.192 380.501C461.192 380.501 480.968 381.269 501.499 366.059" stroke="#263238" stroke-linecap="round" stroke-linejoin="round"/>
<path d="M469.558 322.694C466.105 307.915 461.525 293.422 455.857 279.342" stroke="#263238" stroke-linecap="round" stroke-linejoin="round"/>
<path d="M420.117 293.797L462.702 356.926C462.702 356.926 491.612 332.621 501.5 318.895" stroke="#263238" stroke-linecap="round" stroke-linejoin="round"/>
<path d="M461.947 372.135C461.947 372.135 417.073 350.837 398.819 338.672" stroke="#263238" stroke-linecap="round" stroke-linejoin="round"/>
<path d="M177.722 64.2839L167.271 47.6031H75.2196V64.2839V70.2833V347.792H454.117V64.2839H177.722Z" fill="#263238"/>
<path d="M451.624 71.9335H78.0347V341.742H451.624V71.9335Z" fill="white"/>
<path opacity="0.17" d="M453.453 69.618H444.78V343.788H453.453V69.618Z" fill="black"/>
<path opacity="0.17" d="M453.453 235.389H444.78V341.562H453.453V235.389Z" fill="black"/>
<path d="M452.11 68.2877H76.5507V82.9601H452.11V68.2877Z" fill="#0083FF" stroke="#263238" stroke-miterlimit="10"/>
<path d="M451.624 71.9335H78.0347V341.742H451.624V71.9335Z" stroke="#263238" stroke-linecap="round" stroke-linejoin="round"/>
<g opacity="0.17">
<path opacity="0.17" d="M272.677 97.108H246.543C246.24 97.108 245.941 97.0485 245.662 96.9327C245.382 96.817 245.128 96.6474 244.915 96.4336C244.701 96.2198 244.531 95.966 244.415 95.6866C244.3 95.4073 244.24 95.1078 244.24 94.8055C244.238 94.502 244.297 94.2012 244.412 93.9204C244.527 93.6395 244.696 93.3842 244.91 93.169C245.124 92.9539 245.378 92.7831 245.659 92.6666C245.939 92.5501 246.239 92.4901 246.543 92.4901H272.677C272.98 92.4901 273.281 92.5501 273.561 92.6666C273.841 92.7831 274.095 92.9539 274.309 93.169C274.523 93.3842 274.693 93.6395 274.808 93.9204C274.923 94.2012 274.981 94.502 274.979 94.8055C274.979 95.1078 274.92 95.4073 274.804 95.6866C274.688 95.966 274.519 96.2198 274.305 96.4336C274.091 96.6474 273.837 96.817 273.558 96.9327C273.278 97.0485 272.979 97.108 272.677 97.108Z" fill="black"/>
<path opacity="0.17" d="M324.945 97.108H298.811C298.202 97.1047 297.618 96.861 297.187 96.4299C296.756 95.9988 296.512 95.4151 296.509 94.8055C296.509 94.1936 296.751 93.6066 297.182 93.1728C297.614 92.7389 298.199 92.4935 298.811 92.4901H324.945C325.559 92.4901 326.148 92.734 326.582 93.1683C327.017 93.6025 327.261 94.1914 327.261 94.8055C327.257 95.4173 327.012 96.0029 326.578 96.4344C326.144 96.8658 325.557 97.108 324.945 97.108Z" fill="black"/>
<path opacity="0.17" d="M377.224 97.108H351.09C350.479 97.108 349.892 96.8658 349.458 96.4344C349.024 96.0029 348.779 95.4173 348.775 94.8055C348.775 94.1914 349.019 93.6025 349.453 93.1683C349.887 92.734 350.476 92.4901 351.09 92.4901H377.224C377.836 92.4935 378.422 92.7389 378.853 93.1728C379.285 93.6066 379.527 94.1936 379.527 94.8055C379.524 95.4151 379.28 95.9988 378.849 96.4299C378.418 96.861 377.834 97.1047 377.224 97.108Z" fill="black"/>
<path opacity="0.17" d="M429.493 97.108H403.359C403.057 97.108 402.757 97.0485 402.478 96.9327C402.198 96.817 401.945 96.6474 401.731 96.4336C401.517 96.2198 401.347 95.966 401.232 95.6866C401.116 95.4073 401.056 95.1078 401.056 94.8055C401.055 94.502 401.113 94.2012 401.228 93.9204C401.343 93.6395 401.512 93.3842 401.726 93.169C401.94 92.9539 402.195 92.7831 402.475 92.6666C402.755 92.5501 403.056 92.4901 403.359 92.4901H429.493C430.105 92.4935 430.69 92.7389 431.122 93.1728C431.553 93.6066 431.796 94.1936 431.796 94.8055C431.792 95.4151 431.548 95.9988 431.117 96.4299C430.686 96.861 430.103 97.1047 429.493 97.108Z" fill="black"/>
</g>
<path d="M113.339 207.234H152.828" stroke="#263238" stroke-width="3" stroke-linecap="round" stroke-linejoin="round"/>
<path d="M152.126 213.387H156.437" stroke="#263238" stroke-linecap="round" stroke-linejoin="round"/>
<path d="M127.398 213.387H149.515" stroke="#263238" stroke-linecap="round" stroke-linejoin="round"/>
<path d="M110.321 213.387H125.058" stroke="#263238" stroke-linecap="round" stroke-linejoin="round"/>
<path d="M138.323 219.54H156.436" stroke="#263238" stroke-linecap="round" stroke-linejoin="round"/>
<path d="M128.434 219.54H135.47" stroke="#263238" stroke-linecap="round" stroke-linejoin="round"/>
<path d="M110.321 219.54H125.313" stroke="#263238" stroke-linecap="round" stroke-linejoin="round"/>
<path d="M120.107 225.68H156.436" stroke="#263238" stroke-linecap="round" stroke-linejoin="round"/>
<path d="M110.321 225.68H116.73" stroke="#263238" stroke-linecap="round" stroke-linejoin="round"/>
<path d="M147.444 231.833H156.437" stroke="#263238" stroke-linecap="round" stroke-linejoin="round"/>
<path d="M130.265 231.833H144.31" stroke="#263238" stroke-linecap="round" stroke-linejoin="round"/>
<path d="M110.321 231.833H127.399" stroke="#263238" stroke-linecap="round" stroke-linejoin="round"/>
<path d="M125.313 237.986H156.436" stroke="#263238" stroke-linecap="round" stroke-linejoin="round"/>
<path d="M110.321 237.986H122.448" stroke="#263238" stroke-linecap="round" stroke-linejoin="round"/>
<path d="M203.396 207.234H242.885" stroke="#263238" stroke-width="3" stroke-linecap="round" stroke-linejoin="round"/>
<path d="M242.181 213.387H246.491" stroke="#263238" stroke-linecap="round" stroke-linejoin="round"/>
<path d="M217.455 213.387H239.572" stroke="#263238" stroke-linecap="round" stroke-linejoin="round"/>
<path d="M200.376 213.387H215.112" stroke="#263238" stroke-linecap="round" stroke-linejoin="round"/>
<path d="M228.379 219.54H246.493" stroke="#263238" stroke-linecap="round" stroke-linejoin="round"/>
<path d="M218.49 219.54H225.525" stroke="#263238" stroke-linecap="round" stroke-linejoin="round"/>
<path d="M200.376 219.54H215.368" stroke="#263238" stroke-linecap="round" stroke-linejoin="round"/>
<path d="M210.163 225.68H246.492" stroke="#263238" stroke-linecap="round" stroke-linejoin="round"/>
<path d="M200.376 225.68H206.785" stroke="#263238" stroke-linecap="round" stroke-linejoin="round"/>
<path d="M237.5 231.833H246.492" stroke="#263238" stroke-linecap="round" stroke-linejoin="round"/>
<path d="M220.319 231.833H234.365" stroke="#263238" stroke-linecap="round" stroke-linejoin="round"/>
<path d="M200.376 231.833H217.453" stroke="#263238" stroke-linecap="round" stroke-linejoin="round"/>
<path d="M215.368 237.986H246.491" stroke="#263238" stroke-linecap="round" stroke-linejoin="round"/>
<path d="M200.376 237.986H212.503" stroke="#263238" stroke-linecap="round" stroke-linejoin="round"/>
<path d="M293.451 207.234H332.94" stroke="#263238" stroke-width="3" stroke-linecap="round" stroke-linejoin="round"/>
<path d="M332.236 213.387H336.547" stroke="#263238" stroke-linecap="round" stroke-linejoin="round"/>
<path d="M307.51 213.387H329.627" stroke="#263238" stroke-linecap="round" stroke-linejoin="round"/>
<path d="M290.433 213.387H305.169" stroke="#263238" stroke-linecap="round" stroke-linejoin="round"/>
<path d="M318.434 219.54H336.547" stroke="#263238" stroke-linecap="round" stroke-linejoin="round"/>
<path d="M308.546 219.54H315.581" stroke="#263238" stroke-linecap="round" stroke-linejoin="round"/>
<path d="M290.433 219.54H305.425" stroke="#263238" stroke-linecap="round" stroke-linejoin="round"/>
<path d="M300.217 225.68H336.547" stroke="#263238" stroke-linecap="round" stroke-linejoin="round"/>
<path d="M290.433 225.68H296.841" stroke="#263238" stroke-linecap="round" stroke-linejoin="round"/>
<path d="M327.554 231.833H336.547" stroke="#263238" stroke-linecap="round" stroke-linejoin="round"/>
<path d="M310.375 231.833H324.42" stroke="#263238" stroke-linecap="round" stroke-linejoin="round"/>
<path d="M290.433 231.833H307.51" stroke="#263238" stroke-linecap="round" stroke-linejoin="round"/>
<path d="M305.424 237.986H336.547" stroke="#263238" stroke-linecap="round" stroke-linejoin="round"/>
<path d="M290.433 237.986H302.559" stroke="#263238" stroke-linecap="round" stroke-linejoin="round"/>
<path d="M383.506 207.234H422.995" stroke="#263238" stroke-width="3" stroke-linecap="round" stroke-linejoin="round"/>
<path d="M422.292 213.387H426.603" stroke="#263238" stroke-linecap="round" stroke-linejoin="round"/>
<path d="M397.565 213.387H419.682" stroke="#263238" stroke-linecap="round" stroke-linejoin="round"/>
<path d="M380.487 213.387H395.224" stroke="#263238" stroke-linecap="round" stroke-linejoin="round"/>
<path d="M408.49 219.54H426.603" stroke="#263238" stroke-linecap="round" stroke-linejoin="round"/>
<path d="M398.6 219.54H405.636" stroke="#263238" stroke-linecap="round" stroke-linejoin="round"/>
<path d="M380.487 219.54H395.479" stroke="#263238" stroke-linecap="round" stroke-linejoin="round"/>
<path d="M390.273 225.68H426.602" stroke="#263238" stroke-linecap="round" stroke-linejoin="round"/>
<path d="M380.487 225.68H386.896" stroke="#263238" stroke-linecap="round" stroke-linejoin="round"/>
<path d="M417.61 231.833H426.603" stroke="#263238" stroke-linecap="round" stroke-linejoin="round"/>
<path d="M400.43 231.833H414.476" stroke="#263238" stroke-linecap="round" stroke-linejoin="round"/>
<path d="M380.487 231.833H397.565" stroke="#263238" stroke-linecap="round" stroke-linejoin="round"/>
<path d="M395.479 237.986H426.602" stroke="#263238" stroke-linecap="round" stroke-linejoin="round"/>
<path d="M380.487 237.986H392.614" stroke="#263238" stroke-linecap="round" stroke-linejoin="round"/>
<path d="M438.767 187.419H90.826V115.644H438.767V187.419Z" fill="#0083FF"/>
<path opacity="0.7" d="M438.767 187.419H90.826V115.644H438.767V187.419Z" fill="white"/>
<path d="M350.721 187.419H178.937V115.644H350.721V187.419Z" fill="#0083FF"/>
<path opacity="0.92" d="M350.721 187.419H178.937V115.644H350.721V187.419Z" fill="white"/>
<path d="M315.619 136.443H327.324" stroke="#263238" stroke-linecap="round" stroke-linejoin="round"/>
<path d="M248.615 136.443H308.57" stroke="#263238" stroke-linecap="round" stroke-linejoin="round"/>
<path d="M202.334 136.443H242.258" stroke="#263238" stroke-linecap="round" stroke-linejoin="round"/>
<path d="M278.241 142.596H327.324" stroke="#263238" stroke-linecap="round" stroke-linejoin="round"/>
<path d="M251.43 142.596H270.477" stroke="#263238" stroke-linecap="round" stroke-linejoin="round"/>
<path d="M202.334 142.596H242.974" stroke="#263238" stroke-linecap="round" stroke-linejoin="round"/>
<path d="M228.865 148.749H327.325" stroke="#263238" stroke-linecap="round" stroke-linejoin="round"/>
<path d="M202.334 148.749H219.693" stroke="#263238" stroke-linecap="round" stroke-linejoin="round"/>
<path d="M302.929 154.902H327.323" stroke="#263238" stroke-linecap="round" stroke-linejoin="round"/>
<path d="M256.368 154.902H294.462" stroke="#263238" stroke-linecap="round" stroke-linejoin="round"/>
<path d="M202.334 154.902H248.615" stroke="#263238" stroke-linecap="round" stroke-linejoin="round"/>
<path d="M242.974 161.042H327.324" stroke="#263238" stroke-linecap="round" stroke-linejoin="round"/>
<path d="M202.334 161.042H235.209" stroke="#263238" stroke-linecap="round" stroke-linejoin="round"/>
<path d="M438.767 340.846H90.826V269.07H438.767V340.846Z" fill="#0083FF"/>
<path opacity="0.7" d="M438.767 340.846H90.826V269.07H438.767V340.846Z" fill="white"/>
<path d="M397.591 296.381C397.591 296.381 377.213 304.568 374.015 305.579C370.817 306.589 370.625 307.971 370.625 312.358C370.625 316.746 371.226 336.535 371.226 338.134C371.226 339.733 371.022 342.727 371.022 342.727H437.783C437.783 342.727 433.383 324.818 430.786 316.362C428.189 307.907 429.392 307.165 424.799 304.376C420.207 301.588 408.17 297.584 405.611 296.982C402.958 296.566 400.276 296.365 397.591 296.381Z" fill="#263238" stroke="#263238" stroke-linecap="round" stroke-linejoin="round"/>
<path d="M398.589 294.181C398.589 294.181 393.792 293.784 391.796 297.788C389.801 301.792 385.004 311.118 385.004 311.118L390.798 314.712L384.057 318.153C385.183 323.088 386.584 327.957 388.253 332.736C389.414 335.873 390.746 338.943 392.244 341.933C392.244 341.933 401.966 330.945 405.803 327.542C408.334 325.122 410.428 322.283 411.995 319.151L407.006 314.559L415.602 313.561C415.602 313.561 413.402 302.381 410.6 297.788C407.799 293.196 398.589 294.181 398.589 294.181Z" fill="#263238" stroke="#263238" stroke-linecap="round" stroke-linejoin="round"/>
<path d="M388.778 332.864C389.136 333.862 389.52 334.808 389.891 335.64" stroke="white" stroke-width="0.5" stroke-linecap="round" stroke-linejoin="round"/>
<path d="M389.506 302.764L385.003 311.118L390.798 314.712L384.594 318.23C384.594 318.23 386.039 324.536 387.856 330.19" stroke="white" stroke-width="0.5" stroke-linecap="round" stroke-linejoin="round"/>
<path d="M412.199 298.978L415.563 313.561L406.967 314.559L411.956 319.151C411.956 319.151 402.362 330.395 398.384 334.936" stroke="white" stroke-width="0.5" stroke-linecap="round" stroke-linejoin="round"/>
<path d="M424.761 321.351L421.166 343.532" stroke="white" stroke-width="0.5" stroke-linecap="round" stroke-linejoin="round"/>
<path d="M375.422 317.36C375.422 317.36 375.026 330.74 375.217 334.936C375.376 337.596 375.915 340.219 376.816 342.727" stroke="white" stroke-width="0.5" stroke-linecap="round" stroke-linejoin="round"/>
<path d="M412.377 326.749L415.767 322.157L418.569 326.749H412.377Z" fill="white" stroke="#263238" stroke-miterlimit="10"/>
<path d="M416.369 282.796C416.369 282.796 419.759 282.4 420.565 287.401C421.371 292.403 418.966 298.786 410.971 298.786C402.976 298.786 403.59 292.787 403.782 288.399C403.974 284.011 416.369 282.796 416.369 282.796Z" fill="#263238" stroke="#263238" stroke-miterlimit="10"/>
<path d="M396.594 290.996C396.594 290.996 396.389 296.778 395.992 303.378C395.596 309.979 392.398 318.959 392.398 326.545C392.371 330.748 392.571 334.95 392.999 339.132C392.999 339.132 399.587 326.34 402.58 318.959C405.574 311.578 408.976 290.19 408.976 290.19L396.594 290.996Z" fill="white" stroke="#263238" stroke-miterlimit="10"/>
<path d="M416.165 277.858C417.652 274.946 418.474 271.739 418.57 268.469C418.57 263.48 417.572 256.688 411.777 253.682C405.982 250.676 394.789 252.684 392.001 258.479C390.118 262.183 389.236 266.315 389.442 270.465C389.644 272.708 390.112 274.92 390.837 277.053C390.837 277.053 391.643 273.215 397.028 271.271C402.414 269.326 408.221 267.267 411.01 268.712C413.798 270.158 416.165 277.858 416.165 277.858Z" fill="#263238" stroke="#263238" stroke-linecap="round" stroke-linejoin="round"/>
<path d="M391.002 275.812C391.002 275.812 388.597 272.217 387.6 274.814C386.602 277.411 388.009 281.21 389.595 282.003C391.181 282.796 392 282.4 392 282.4L391.002 275.812Z" fill="white" stroke="#263238" stroke-linecap="round" stroke-linejoin="round"/>
<path d="M416.164 276.413C416.164 276.413 418.966 273.612 418.966 276.208C418.825 278.618 417.93 280.923 416.407 282.796C415.205 284.395 414.604 283.602 414.604 283.602L416.164 276.413Z" fill="white" stroke="#263238" stroke-linecap="round" stroke-linejoin="round"/>
<path d="M411.419 264.913L413.402 259.323C413.48 259.104 413.468 258.863 413.368 258.653C413.269 258.443 413.09 258.282 412.871 258.204C412.652 258.126 412.412 258.138 412.202 258.237C411.992 258.337 411.83 258.516 411.752 258.734L410.089 263.404C408.339 262.99 406.523 262.938 404.753 263.25C402.982 263.562 401.294 264.233 399.791 265.22C394.598 268.623 390.402 271.616 390.402 271.616C390.402 271.616 390.607 283.001 392.794 287.197C394.982 291.392 398.794 296.381 401.992 296.381C405.19 296.381 410.78 289.397 412.98 287.197C415.18 284.996 416.574 276.413 416.574 273.611C416.574 271.603 413.274 267.228 411.419 264.913Z" fill="white" stroke="#263238" stroke-miterlimit="10"/>
<path d="M403.553 316.234C400.308 316.528 397.038 316.091 393.984 314.955C393.069 318.786 392.538 322.698 392.398 326.634C392.371 330.838 392.571 335.04 392.999 339.222C392.999 339.222 399.587 326.43 402.58 319.049C402.9 318.179 403.246 317.219 403.553 316.234Z" fill="#0083FF" stroke="#263238" stroke-miterlimit="10"/>
<path d="M309.134 285.777C304.038 286.355 298.978 287.209 293.975 288.335C288.129 289.845 285.315 290.497 285.315 293.311C285.315 296.125 284.663 308.252 282.757 313.676C280.851 319.1 278.638 326.89 278.638 329.704C278.638 332.518 282.757 344.428 282.757 344.428H290.33C290.33 344.428 287.515 330.561 287.515 329.269C287.515 327.977 291.417 316.477 291.417 316.477L291.634 344.85H331.289L330.867 317.769C330.867 317.769 334.321 328.822 334.321 330.766C334.321 332.71 333.042 345.502 333.042 345.502H340.564C340.564 345.502 344.248 331.431 344.03 326.442C343.813 321.453 340.193 305.643 339.707 300.858C339.22 296.074 342.086 293.49 336.892 290.241C331.699 286.992 319.777 285.048 317.18 284.83C314.473 284.884 311.779 285.201 309.134 285.777Z" fill="#0083FF" stroke="#263238" stroke-miterlimit="10"/>
<path d="M291.378 316.541L292.031 305.707L289.639 297.481" stroke="#263238" stroke-linecap="round" stroke-linejoin="round"/>
<path d="M330.804 303.98V317.833" stroke="#263238" stroke-linecap="round" stroke-linejoin="round"/>
<path d="M331.009 307.881L334.475 302.675" stroke="#263238" stroke-linecap="round" stroke-linejoin="round"/>
<path d="M312.818 300.513L311.526 344.479" stroke="#263238" stroke-linecap="round" stroke-linejoin="round"/>
<path d="M312.166 280.583C310.239 280.689 308.406 281.452 306.973 282.745C304.593 284.92 303.723 293.362 303.723 293.362C303.723 293.362 311.309 291.2 312.601 290.804C313.893 290.407 325.393 292.966 325.393 292.966C325.393 292.966 324.318 285.393 321.287 282.144C318.255 278.895 312.166 280.583 312.166 280.583Z" fill="#263238" stroke="#263238" stroke-linecap="round" stroke-linejoin="round"/>
<path d="M309.134 273.65C309.134 273.65 310.874 276.208 310.874 283.883C310.874 291.559 311.731 299.477 312.818 300.513C313.905 301.549 318.446 290.279 318.446 285.163C318.533 281.779 319.349 278.454 320.838 275.415C320.838 275.415 315.415 271.731 312.6 271.296C311.832 271.176 311.047 271.353 310.403 271.79C309.76 272.227 309.306 272.891 309.134 273.65Z" fill="white" stroke="#263238" stroke-linecap="round" stroke-linejoin="round"/>
<path d="M311.218 292.326C311.564 296.535 312.152 299.848 312.817 300.513C313.483 301.178 315.568 296.957 317 292.429C315.08 292.7 313.128 292.666 311.218 292.326Z" fill="#263238" stroke="#263238" stroke-linecap="round" stroke-linejoin="round"/>
<path d="M322.347 252.863C322.347 252.863 323.626 253.298 326.031 251.123C328.436 248.949 327.31 244.842 326.249 245.712C325.571 246.266 324.984 246.922 324.509 247.657C324.089 246.389 323.316 245.268 322.28 244.425C321.244 243.582 319.99 243.052 318.663 242.898C314.122 242.463 308.698 248.744 308.698 248.744C308.698 248.744 298.746 256.112 299.821 261.958C300.895 267.804 306.536 272.998 309.133 273.65C311.73 274.302 316.501 269.544 315.631 265.425C314.762 261.306 314.122 255.191 315.631 254.59C317.836 253.888 320.078 253.312 322.347 252.863Z" fill="#263238" stroke="#263238" stroke-linecap="round" stroke-linejoin="round"/>
<path d="M308.698 270.183C308.698 270.183 305.027 267.625 304.157 269.544C303.287 271.463 305.244 274.955 307.623 276.029C310.003 277.104 312.165 273.65 312.165 273.65C312.165 273.65 319.75 279.713 324.956 279.931C330.163 280.148 330.38 276.029 329.51 268.239C328.641 260.449 326.044 254.372 324.099 252.211C322.155 250.049 314.569 251.993 312.177 253.938C309.785 255.882 308.34 257.622 310.668 258.057C312.996 258.491 315.209 259.336 313.047 261.741C310.885 264.146 309.798 263.25 310.489 264.99C311.18 266.73 313.955 268.456 311.359 269.326L308.698 270.183Z" fill="white" stroke="#263238" stroke-linecap="round" stroke-linejoin="round"/>
<path d="M213.514 281.696C213.514 281.696 186.216 284.945 185.371 287.324C184.527 289.704 174.549 312.908 176.059 315.045C177.568 317.181 180.613 317.603 182.992 317.603C184.677 317.452 186.272 316.772 187.546 315.659L180.613 345.08H230.86L232.382 324.498C232.382 324.498 238.228 327.056 242.129 326.673C246.031 326.289 245.161 323.206 244.291 317.36C243.421 311.514 243.012 296.56 241.477 293.746C239.942 290.932 221.547 283.129 221.547 283.129L213.514 281.696Z" fill="#263238" stroke="#263238" stroke-linecap="round" stroke-linejoin="round"/>
<path d="M232.791 316.976V303.545L233.866 300.948" stroke="white" stroke-linecap="round" stroke-linejoin="round"/>
<path d="M189.029 305.707L191.203 296.611L190.769 294.667" stroke="white" stroke-linecap="round" stroke-linejoin="round"/>
<path d="M194.735 346.001C194.735 346.001 198.842 328.233 200.799 317.194C202.756 306.154 210.904 281.696 210.904 281.696L223.479 285.163C223.479 285.163 215.023 309.851 212.862 320.468C210.7 331.086 208.883 346.129 208.883 346.129L194.735 346.001Z" fill="#0083FF" stroke="#263238" stroke-miterlimit="10"/>
<path d="M212.643 279.138C212.643 279.138 208.959 279.138 207.654 281.696C206.35 284.255 204.623 294.258 204.623 294.258C204.623 294.258 212.426 290.791 213.078 290.791C213.731 290.791 216.762 291.009 218.272 292.736C219.781 294.463 223.043 298.582 223.043 298.582C223.043 298.582 228.019 290.574 226.727 285.38C226.284 283.668 225.313 282.14 223.951 281.012C222.589 279.885 220.906 279.215 219.142 279.099L212.643 279.138Z" fill="#0083FF" stroke="#263238" stroke-miterlimit="10"/>
<path d="M211.364 273.432C211.364 273.432 210.929 288.604 211.364 292.927C211.799 297.251 212.451 298.338 212.451 298.338C212.451 298.338 216.135 292.275 217.21 290.113C218.284 287.951 221.546 285.559 223.069 283.615C224.591 281.671 225.627 274.302 225.627 274.302C225.627 274.302 219.999 278.639 216.967 277.552C214.822 276.603 212.91 275.197 211.364 273.432Z" fill="white" stroke="#263238" stroke-linecap="round" stroke-linejoin="round"/>
<path d="M220.318 246.019C216.634 246.557 213.04 248.399 212.004 251.993C211.134 255.025 210.724 264.99 210.494 269.966C210.264 274.942 212.873 281.236 215.035 281.888C216.84 282.528 218.782 282.678 220.664 282.323C221.751 281.888 226.74 275.172 228.032 273.867C229.324 272.563 233.226 260.436 233.226 256.112C233.321 253.979 232.718 251.874 231.508 250.115C230.299 248.355 228.548 247.039 226.523 246.365C224.502 245.816 222.388 245.698 220.318 246.019Z" fill="white" stroke="#263238" stroke-linecap="round" stroke-linejoin="round"/>
<path d="M231.051 266.346C231.051 266.346 234.518 263.301 233.609 267.203C233.33 268.369 232.799 269.459 232.051 270.396C231.304 271.333 230.36 272.095 229.286 272.627L231.051 266.346Z" fill="white" stroke="#263238" stroke-linecap="round" stroke-linejoin="round"/>
<path d="M210.903 262.176C210.903 262.176 208.345 259.796 208.345 263.045C208.444 265.173 209.204 267.216 210.52 268.891L210.903 262.176Z" fill="white" stroke="#263238" stroke-linecap="round" stroke-linejoin="round"/>
<path d="M231.051 266.346C232.174 263.032 232.9 259.597 233.212 256.112C233.308 253.979 232.705 251.874 231.495 250.115C230.285 248.355 228.535 247.039 226.509 246.365C224.488 245.816 222.375 245.698 220.305 246.019C216.621 246.557 213.027 248.399 211.99 251.993C211.324 255.578 210.935 259.209 210.826 262.854C211.927 261.996 214.216 259.899 213.73 257.404C213.078 254.155 211.773 252.646 214.152 251.123C216.532 249.601 219.359 251.776 223.26 253.08C227.162 254.385 231.051 252.646 232.138 253.72C233.225 254.795 228.671 259.361 229.324 261.088C229.976 262.815 231.485 264.772 231.051 266.295V266.346Z" fill="#263238" stroke="#263238" stroke-linecap="round" stroke-linejoin="round"/>
<path d="M199.852 307.881C199.852 307.881 196.603 303.327 194.441 303.11C192.279 302.892 187.073 307.881 187.073 307.881H199.852Z" fill="white" stroke="#263238" stroke-linecap="round" stroke-linejoin="round"/>
<path d="M220.434 308.303H223.479L224.118 314.38L220.869 313.51L220.434 308.303Z" fill="white" stroke="#263238" stroke-linecap="round" stroke-linejoin="round"/>
<path d="M223.479 308.303L228.89 310.695L230.182 317.411L224.118 314.38L223.479 308.303Z" fill="white" stroke="#263238" stroke-linecap="round" stroke-linejoin="round"/>
<path d="M240.785 320.072L209.816 307.945C208.03 308.823 206.356 309.909 204.827 311.182C203.923 312.09 203.256 313.205 202.882 314.431C202.882 314.431 217.606 325.048 224.757 328.297C231.907 331.546 242.307 332.634 244.034 330.856C245.761 329.078 245.313 322.413 244.252 321.326C243.678 320.734 243.023 320.225 242.307 319.816" fill="#263238"/>
<path d="M240.785 320.072L209.816 307.945C208.03 308.823 206.356 309.909 204.827 311.182C203.923 312.09 203.256 313.205 202.882 314.431C202.882 314.431 217.606 325.048 224.757 328.297C231.907 331.546 242.307 332.634 244.034 330.856C245.761 329.078 245.313 322.413 244.252 321.326C243.678 320.734 243.023 320.225 242.307 319.816" stroke="#263238" stroke-linecap="round" stroke-linejoin="round"/>
<path d="M220.434 307.28L220.869 313.561C220.869 313.561 198.125 318.754 189.682 320.277C181.239 321.799 176.685 320.699 175.393 316.81C174.101 312.921 178.425 308.137 180.369 307.063C182.314 305.988 220.434 307.28 220.434 307.28Z" fill="#263238" stroke="#263238" stroke-linecap="round" stroke-linejoin="round"/>
<path d="M136.775 292.428C136.775 292.428 145.448 294.59 148.915 295.678C152.381 296.765 153.456 298.057 153.456 300.654C153.456 303.25 151.511 314.725 151.511 316.465V328.169C151.511 331.418 154.76 343.328 154.76 343.328H112.547C112.547 343.328 107.788 325.137 104.539 315.185C101.29 305.233 100.855 301.754 104.104 300.232C111.828 297.401 119.708 295.018 127.705 293.094C130.709 292.66 133.74 292.438 136.775 292.428Z" fill="#0083FF" stroke="#263238" stroke-miterlimit="10"/>
<path d="M149.351 306.717C149.351 306.717 151.909 318.639 151.078 322.963C150.246 327.287 144.362 343.763 144.362 343.763" stroke="#263238" stroke-linecap="round" stroke-linejoin="round"/>
<path d="M104.079 300.219C104.079 300.219 100.242 300.871 101.265 305.86C102.289 310.849 97.3636 343.097 97.3636 343.097H106.894C106.894 343.097 113.392 325.982 114.467 321.876C115.541 317.769 116.424 314.507 114.467 311.041" fill="#0083FF"/>
<path d="M104.079 300.219C104.079 300.219 100.242 300.871 101.265 305.86C102.289 310.849 97.3636 343.097 97.3636 343.097H106.894C106.894 343.097 113.392 325.982 114.467 321.876C115.541 317.769 116.424 314.507 114.467 311.041" stroke="#263238" stroke-miterlimit="10"/>
<path d="M144.438 271.334L145.858 315.454H133.054V275.134L144.438 271.334Z" fill="#263238" stroke="#263238" stroke-linecap="round" stroke-linejoin="round"/>
<path d="M127.898 303.046C127.898 303.046 131.582 319.675 133.104 324.703C134.626 329.73 134.831 341.332 134.383 342.893C133.936 344.453 139.794 342.893 139.794 342.893C139.794 342.893 141.317 331.38 142.187 324.703C143.056 318.025 140.447 305.425 140.447 305.425L137.633 294.373L127.015 296.33L127.898 303.046Z" fill="white" stroke="#263238" stroke-linecap="round" stroke-linejoin="round"/>
<path d="M137.173 284.843C136.569 288.291 136.643 291.823 137.391 295.243C138.67 300.014 142.162 308.674 139.13 311.054C136.099 313.433 131.98 312.141 129.818 307.804C127.656 303.468 125.699 292.646 125.699 283.768C125.699 274.891 126.569 273.368 129.6 273.368C132.632 273.368 137.173 284.843 137.173 284.843Z" fill="white" stroke="#263238" stroke-linecap="round" stroke-linejoin="round"/>
<path d="M130.93 280.737C128.982 282.43 126.691 283.682 124.214 284.408C120.965 285.06 119.238 276.4 118.803 267.778C118.368 259.157 120.543 254.347 125.084 252.185C129.625 250.023 140.678 251.098 145.014 252.825C149.351 254.551 154.544 257.379 154.544 261.92C154.544 266.461 148.685 270.183 146.959 271.207C145.232 272.23 141.113 273.765 138.516 276.4C136.272 278.295 133.701 279.765 130.93 280.737Z" fill="#263238" stroke="#263238" stroke-linecap="round" stroke-linejoin="round"/>
<path d="M130.93 280.737C130.93 280.737 133.489 287.235 138.298 287.44C143.108 287.644 148.532 276.618 148.698 271.846C148.865 267.075 143.927 258.85 143.927 258.85C143.927 258.85 135.484 278.127 130.93 280.737Z" fill="white" stroke="#263238" stroke-linecap="round" stroke-linejoin="round"/>
<path d="M129.638 270.989L130.06 317.769H115.554L118.803 263.404" fill="#263238"/>
<path d="M129.638 270.989L130.06 317.769H115.554L118.803 263.404" stroke="#263238" stroke-linecap="round" stroke-linejoin="round"/>
</svg>
