<svg width="1440" height="903" viewBox="0 0 1440 903" fill="none" xmlns="http://www.w3.org/2000/svg">
<rect width="1440" height="903" fill="#7812DD"/>
<rect width="1440" height="903" fill="url(#paint0_linear_113_14)"/>
<rect x="531" y="218" width="378" height="467" rx="50" fill="white"/>
<path d="M596.524 295.304H602.796V299H591.736V279.344H596.524V295.304ZM612.192 299.224C610.661 299.224 609.28 298.897 608.048 298.244C606.834 297.591 605.873 296.657 605.164 295.444C604.473 294.231 604.128 292.812 604.128 291.188C604.128 289.583 604.482 288.173 605.192 286.96C605.901 285.728 606.872 284.785 608.104 284.132C609.336 283.479 610.717 283.152 612.248 283.152C613.778 283.152 615.16 283.479 616.392 284.132C617.624 284.785 618.594 285.728 619.304 286.96C620.013 288.173 620.368 289.583 620.368 291.188C620.368 292.793 620.004 294.212 619.276 295.444C618.566 296.657 617.586 297.591 616.336 298.244C615.104 298.897 613.722 299.224 612.192 299.224ZM612.192 295.08C613.106 295.08 613.881 294.744 614.516 294.072C615.169 293.4 615.496 292.439 615.496 291.188C615.496 289.937 615.178 288.976 614.544 288.304C613.928 287.632 613.162 287.296 612.248 287.296C611.314 287.296 610.54 287.632 609.924 288.304C609.308 288.957 609 289.919 609 291.188C609 292.439 609.298 293.4 609.896 294.072C610.512 294.744 611.277 295.08 612.192 295.08ZM628.844 283.152C629.945 283.152 630.907 283.376 631.728 283.824C632.568 284.272 633.212 284.86 633.66 285.588V283.376H638.448V298.972C638.448 300.409 638.159 301.707 637.58 302.864C637.02 304.04 636.152 304.973 634.976 305.664C633.819 306.355 632.372 306.7 630.636 306.7C628.321 306.7 626.445 306.149 625.008 305.048C623.571 303.965 622.749 302.491 622.544 300.624H627.276C627.425 301.221 627.78 301.688 628.34 302.024C628.9 302.379 629.591 302.556 630.412 302.556C631.401 302.556 632.185 302.267 632.764 301.688C633.361 301.128 633.66 300.223 633.66 298.972V296.76C633.193 297.488 632.549 298.085 631.728 298.552C630.907 299 629.945 299.224 628.844 299.224C627.556 299.224 626.389 298.897 625.344 298.244C624.299 297.572 623.468 296.629 622.852 295.416C622.255 294.184 621.956 292.765 621.956 291.16C621.956 289.555 622.255 288.145 622.852 286.932C623.468 285.719 624.299 284.785 625.344 284.132C626.389 283.479 627.556 283.152 628.844 283.152ZM633.66 291.188C633.66 289.993 633.324 289.051 632.652 288.36C631.999 287.669 631.196 287.324 630.244 287.324C629.292 287.324 628.48 287.669 627.808 288.36C627.155 289.032 626.828 289.965 626.828 291.16C626.828 292.355 627.155 293.307 627.808 294.016C628.48 294.707 629.292 295.052 630.244 295.052C631.196 295.052 631.999 294.707 632.652 294.016C633.324 293.325 633.66 292.383 633.66 291.188ZM644.32 281.752C643.48 281.752 642.789 281.509 642.248 281.024C641.725 280.52 641.464 279.904 641.464 279.176C641.464 278.429 641.725 277.813 642.248 277.328C642.789 276.824 643.48 276.572 644.32 276.572C645.141 276.572 645.813 276.824 646.336 277.328C646.877 277.813 647.148 278.429 647.148 279.176C647.148 279.904 646.877 280.52 646.336 281.024C645.813 281.509 645.141 281.752 644.32 281.752ZM646.7 283.376V299H641.912V283.376H646.7ZM659.69 283.208C661.519 283.208 662.975 283.805 664.058 285C665.159 286.176 665.71 287.8 665.71 289.872V299H660.95V290.516C660.95 289.471 660.679 288.659 660.138 288.08C659.596 287.501 658.868 287.212 657.954 287.212C657.039 287.212 656.311 287.501 655.77 288.08C655.228 288.659 654.958 289.471 654.958 290.516V299H650.17V283.376H654.958V285.448C655.443 284.757 656.096 284.216 656.918 283.824C657.739 283.413 658.663 283.208 659.69 283.208ZM689.95 285.672C689.95 286.811 689.689 287.856 689.166 288.808C688.644 289.741 687.841 290.497 686.758 291.076C685.676 291.655 684.332 291.944 682.726 291.944H679.758V299H674.97V279.344H682.726C684.294 279.344 685.62 279.615 686.702 280.156C687.785 280.697 688.597 281.444 689.138 282.396C689.68 283.348 689.95 284.44 689.95 285.672ZM682.362 288.136C683.277 288.136 683.958 287.921 684.406 287.492C684.854 287.063 685.078 286.456 685.078 285.672C685.078 284.888 684.854 284.281 684.406 283.852C683.958 283.423 683.277 283.208 682.362 283.208H679.758V288.136H682.362ZM707.171 290.936C707.171 291.384 707.143 291.851 707.087 292.336H696.251C696.326 293.307 696.634 294.053 697.175 294.576C697.735 295.08 698.416 295.332 699.219 295.332C700.414 295.332 701.244 294.828 701.711 293.82H706.807C706.546 294.847 706.07 295.771 705.379 296.592C704.707 297.413 703.858 298.057 702.831 298.524C701.804 298.991 700.656 299.224 699.387 299.224C697.856 299.224 696.494 298.897 695.299 298.244C694.104 297.591 693.171 296.657 692.499 295.444C691.827 294.231 691.491 292.812 691.491 291.188C691.491 289.564 691.818 288.145 692.471 286.932C693.143 285.719 694.076 284.785 695.271 284.132C696.466 283.479 697.838 283.152 699.387 283.152C700.899 283.152 702.243 283.469 703.419 284.104C704.595 284.739 705.51 285.644 706.163 286.82C706.835 287.996 707.171 289.368 707.171 290.936ZM702.271 289.676C702.271 288.855 701.991 288.201 701.431 287.716C700.871 287.231 700.171 286.988 699.331 286.988C698.528 286.988 697.847 287.221 697.287 287.688C696.746 288.155 696.41 288.817 696.279 289.676H702.271ZM729.633 283.208C731.574 283.208 733.114 283.796 734.253 284.972C735.41 286.148 735.989 287.781 735.989 289.872V299H731.229V290.516C731.229 289.508 730.958 288.733 730.417 288.192C729.894 287.632 729.166 287.352 728.233 287.352C727.3 287.352 726.562 287.632 726.021 288.192C725.498 288.733 725.237 289.508 725.237 290.516V299H720.477V290.516C720.477 289.508 720.206 288.733 719.665 288.192C719.142 287.632 718.414 287.352 717.481 287.352C716.548 287.352 715.81 287.632 715.269 288.192C714.746 288.733 714.485 289.508 714.485 290.516V299H709.697V283.376H714.485V285.336C714.97 284.683 715.605 284.169 716.389 283.796C717.173 283.404 718.06 283.208 719.049 283.208C720.225 283.208 721.27 283.46 722.185 283.964C723.118 284.468 723.846 285.187 724.369 286.12C724.91 285.261 725.648 284.561 726.581 284.02C727.514 283.479 728.532 283.208 729.633 283.208ZM741.746 281.752C740.906 281.752 740.215 281.509 739.674 281.024C739.151 280.52 738.89 279.904 738.89 279.176C738.89 278.429 739.151 277.813 739.674 277.328C740.215 276.824 740.906 276.572 741.746 276.572C742.567 276.572 743.239 276.824 743.762 277.328C744.303 277.813 744.574 278.429 744.574 279.176C744.574 279.904 744.303 280.52 743.762 281.024C743.239 281.509 742.567 281.752 741.746 281.752ZM744.126 283.376V299H739.338V283.376H744.126ZM752.383 278.28V299H747.595V278.28H752.383ZM758.261 281.752C757.421 281.752 756.731 281.509 756.189 281.024C755.667 280.52 755.405 279.904 755.405 279.176C755.405 278.429 755.667 277.813 756.189 277.328C756.731 276.824 757.421 276.572 758.261 276.572C759.083 276.572 759.755 276.824 760.277 277.328C760.819 277.813 761.089 278.429 761.089 279.176C761.089 279.904 760.819 280.52 760.277 281.024C759.755 281.509 759.083 281.752 758.261 281.752ZM760.641 283.376V299H755.853V283.376H760.641ZM773.659 299L768.899 292.448V299H764.111V278.28H768.899V289.732L773.631 283.376H779.539L773.043 291.216L779.595 299H773.659ZM798.749 299L792.141 290.32V299H787.353V279.344H792.141V287.968L798.693 279.344H804.321L796.705 288.976L804.601 299H798.749ZM813.989 299.224C812.458 299.224 811.077 298.897 809.845 298.244C808.631 297.591 807.67 296.657 806.961 295.444C806.27 294.231 805.925 292.812 805.925 291.188C805.925 289.583 806.279 288.173 806.989 286.96C807.698 285.728 808.669 284.785 809.901 284.132C811.133 283.479 812.514 283.152 814.045 283.152C815.575 283.152 816.957 283.479 818.189 284.132C819.421 284.785 820.391 285.728 821.101 286.96C821.81 288.173 822.165 289.583 822.165 291.188C822.165 292.793 821.801 294.212 821.073 295.444C820.363 296.657 819.383 297.591 818.133 298.244C816.901 298.897 815.519 299.224 813.989 299.224ZM813.989 295.08C814.903 295.08 815.678 294.744 816.313 294.072C816.966 293.4 817.293 292.439 817.293 291.188C817.293 289.937 816.975 288.976 816.341 288.304C815.725 287.632 814.959 287.296 814.045 287.296C813.111 287.296 812.337 287.632 811.721 288.304C811.105 288.957 810.797 289.919 810.797 291.188C810.797 292.439 811.095 293.4 811.693 294.072C812.309 294.744 813.074 295.08 813.989 295.08ZM831.061 299.224C829.698 299.224 828.485 298.991 827.421 298.524C826.357 298.057 825.517 297.423 824.901 296.62C824.285 295.799 823.939 294.884 823.865 293.876H828.597C828.653 294.417 828.905 294.856 829.353 295.192C829.801 295.528 830.351 295.696 831.005 295.696C831.602 295.696 832.059 295.584 832.377 295.36C832.713 295.117 832.881 294.809 832.881 294.436C832.881 293.988 832.647 293.661 832.181 293.456C831.714 293.232 830.958 292.989 829.913 292.728C828.793 292.467 827.859 292.196 827.113 291.916C826.366 291.617 825.722 291.16 825.181 290.544C824.639 289.909 824.369 289.06 824.369 287.996C824.369 287.1 824.611 286.288 825.097 285.56C825.601 284.813 826.329 284.225 827.281 283.796C828.251 283.367 829.399 283.152 830.725 283.152C832.685 283.152 834.225 283.637 835.345 284.608C836.483 285.579 837.137 286.867 837.305 288.472H832.881C832.806 287.931 832.563 287.501 832.153 287.184C831.761 286.867 831.238 286.708 830.585 286.708C830.025 286.708 829.595 286.82 829.297 287.044C828.998 287.249 828.849 287.539 828.849 287.912C828.849 288.36 829.082 288.696 829.549 288.92C830.034 289.144 830.781 289.368 831.789 289.592C832.946 289.891 833.889 290.189 834.617 290.488C835.345 290.768 835.979 291.235 836.521 291.888C837.081 292.523 837.37 293.381 837.389 294.464C837.389 295.379 837.127 296.2 836.605 296.928C836.101 297.637 835.363 298.197 834.393 298.608C833.441 299.019 832.33 299.224 831.061 299.224ZM849.026 294.94V299H846.59C844.854 299 843.501 298.58 842.53 297.74C841.559 296.881 841.074 295.491 841.074 293.568V287.352H839.17V283.376H841.074V279.568H845.862V283.376H848.998V287.352H845.862V293.624C845.862 294.091 845.974 294.427 846.198 294.632C846.422 294.837 846.795 294.94 847.318 294.94H849.026Z" fill="black"/>
<rect x="574" y="492" width="292" height="34" rx="15" fill="#C4C4C4"/>
<rect x="575" y="341" width="290" height="32" rx="14" fill="white" stroke="#0083FF" stroke-width="2"/>
<rect x="575" y="396" width="290" height="32" rx="14" fill="white" stroke="#0083FF" stroke-width="2"/>
<rect x="574" y="557" width="292" height="34" rx="15" fill="#C4C4C4"/>
<rect x="669" y="609" width="103" height="34" rx="15" fill="#0083FF"/>
<path d="M703.528 627.9H706.594V630H700.784V620.13H703.528V627.9ZM711.315 630.098C710.531 630.098 709.826 629.935 709.201 629.608C708.585 629.281 708.1 628.815 707.745 628.208C707.39 627.601 707.213 626.887 707.213 626.066C707.213 625.254 707.39 624.545 707.745 623.938C708.109 623.331 708.599 622.865 709.215 622.538C709.84 622.211 710.545 622.048 711.329 622.048C712.113 622.048 712.813 622.211 713.429 622.538C714.054 622.865 714.544 623.331 714.899 623.938C715.263 624.545 715.445 625.254 715.445 626.066C715.445 626.878 715.263 627.592 714.899 628.208C714.544 628.815 714.054 629.281 713.429 629.608C712.804 629.935 712.099 630.098 711.315 630.098ZM711.315 627.718C711.698 627.718 712.015 627.578 712.267 627.298C712.528 627.009 712.659 626.598 712.659 626.066C712.659 625.534 712.528 625.128 712.267 624.848C712.015 624.568 711.702 624.428 711.329 624.428C710.956 624.428 710.643 624.568 710.391 624.848C710.139 625.128 710.013 625.534 710.013 626.066C710.013 626.607 710.134 627.018 710.377 627.298C710.62 627.578 710.932 627.718 711.315 627.718ZM719.459 622.048C719.991 622.048 720.453 622.155 720.845 622.37C721.247 622.585 721.555 622.874 721.769 623.238V622.146H724.513V629.916C724.513 630.653 724.373 631.316 724.093 631.904C723.813 632.501 723.375 632.977 722.777 633.332C722.189 633.687 721.443 633.864 720.537 633.864C719.324 633.864 718.353 633.579 717.625 633.01C716.897 632.441 716.482 631.666 716.379 630.686H719.081C719.137 630.938 719.277 631.134 719.501 631.274C719.725 631.414 720.015 631.484 720.369 631.484C721.303 631.484 721.769 630.961 721.769 629.916V628.908C721.555 629.272 721.247 629.561 720.845 629.776C720.453 629.991 719.991 630.098 719.459 630.098C718.834 630.098 718.265 629.935 717.751 629.608C717.247 629.281 716.846 628.815 716.547 628.208C716.258 627.592 716.113 626.878 716.113 626.066C716.113 625.254 716.258 624.545 716.547 623.938C716.846 623.331 717.247 622.865 717.751 622.538C718.265 622.211 718.834 622.048 719.459 622.048ZM721.769 626.066C721.769 625.562 721.629 625.165 721.349 624.876C721.079 624.587 720.743 624.442 720.341 624.442C719.931 624.442 719.59 624.587 719.319 624.876C719.049 625.156 718.913 625.553 718.913 626.066C718.913 626.57 719.049 626.971 719.319 627.27C719.59 627.559 719.931 627.704 720.341 627.704C720.743 627.704 721.079 627.559 721.349 627.27C721.629 626.981 721.769 626.579 721.769 626.066ZM727.463 621.418C726.978 621.418 726.586 621.287 726.287 621.026C725.998 620.755 725.853 620.419 725.853 620.018C725.853 619.607 725.998 619.267 726.287 618.996C726.586 618.725 726.978 618.59 727.463 618.59C727.939 618.59 728.322 618.725 728.611 618.996C728.91 619.267 729.059 619.607 729.059 620.018C729.059 620.419 728.91 620.755 728.611 621.026C728.322 621.287 727.939 621.418 727.463 621.418ZM728.821 622.146V630H726.077V622.146H728.821ZM735.522 622.076C736.427 622.076 737.146 622.379 737.678 622.986C738.21 623.583 738.476 624.395 738.476 625.422V630H735.732V625.786C735.732 625.338 735.615 624.988 735.382 624.736C735.148 624.475 734.836 624.344 734.444 624.344C734.033 624.344 733.711 624.475 733.478 624.736C733.244 624.988 733.128 625.338 733.128 625.786V630H730.384V622.146H733.128V623.266C733.37 622.911 733.697 622.627 734.108 622.412C734.518 622.188 734.99 622.076 735.522 622.076Z" fill="white"/>
<path d="M582.398 482H580.916L576.457 475.253V482H574.975V472.952H576.457L580.916 479.686V472.952H582.398V482ZM587.451 482.117C586.775 482.117 586.164 481.965 585.618 481.662C585.072 481.35 584.643 480.917 584.331 480.362C584.019 479.799 583.863 479.149 583.863 478.412C583.863 477.684 584.023 477.038 584.344 476.475C584.665 475.912 585.102 475.478 585.657 475.175C586.212 474.872 586.831 474.72 587.516 474.72C588.201 474.72 588.82 474.872 589.375 475.175C589.93 475.478 590.367 475.912 590.688 476.475C591.009 477.038 591.169 477.684 591.169 478.412C591.169 479.14 591.004 479.786 590.675 480.349C590.346 480.912 589.895 481.35 589.323 481.662C588.76 481.965 588.136 482.117 587.451 482.117ZM587.451 480.83C587.832 480.83 588.188 480.739 588.517 480.557C588.855 480.375 589.128 480.102 589.336 479.738C589.544 479.374 589.648 478.932 589.648 478.412C589.648 477.892 589.548 477.454 589.349 477.099C589.15 476.735 588.885 476.462 588.556 476.28C588.227 476.098 587.871 476.007 587.49 476.007C587.109 476.007 586.753 476.098 586.424 476.28C586.103 476.462 585.848 476.735 585.657 477.099C585.466 477.454 585.371 477.892 585.371 478.412C585.371 479.183 585.566 479.781 585.956 480.206C586.355 480.622 586.853 480.83 587.451 480.83ZM601.305 474.72C601.869 474.72 602.371 474.837 602.813 475.071C603.264 475.305 603.615 475.652 603.866 476.111C604.126 476.57 604.256 477.125 604.256 477.775V482H602.787V477.996C602.787 477.355 602.627 476.865 602.306 476.527C601.986 476.18 601.548 476.007 600.993 476.007C600.439 476.007 599.997 476.18 599.667 476.527C599.347 476.865 599.186 477.355 599.186 477.996V482H597.717V477.996C597.717 477.355 597.557 476.865 597.236 476.527C596.916 476.18 596.478 476.007 595.923 476.007C595.369 476.007 594.927 476.18 594.597 476.527C594.277 476.865 594.116 477.355 594.116 477.996V482H592.634V474.837H594.116V475.656C594.359 475.361 594.667 475.132 595.039 474.967C595.412 474.802 595.811 474.72 596.235 474.72C596.807 474.72 597.319 474.841 597.769 475.084C598.22 475.327 598.567 475.678 598.809 476.137C599.026 475.704 599.364 475.361 599.823 475.11C600.283 474.85 600.777 474.72 601.305 474.72ZM609.249 482.117C608.573 482.117 607.962 481.965 607.416 481.662C606.87 481.35 606.441 480.917 606.129 480.362C605.817 479.799 605.661 479.149 605.661 478.412C605.661 477.684 605.821 477.038 606.142 476.475C606.463 475.912 606.9 475.478 607.455 475.175C608.01 474.872 608.629 474.72 609.314 474.72C609.999 474.72 610.618 474.872 611.173 475.175C611.728 475.478 612.165 475.912 612.486 476.475C612.807 477.038 612.967 477.684 612.967 478.412C612.967 479.14 612.802 479.786 612.473 480.349C612.144 480.912 611.693 481.35 611.121 481.662C610.558 481.965 609.934 482.117 609.249 482.117ZM609.249 480.83C609.63 480.83 609.986 480.739 610.315 480.557C610.653 480.375 610.926 480.102 611.134 479.738C611.342 479.374 611.446 478.932 611.446 478.412C611.446 477.892 611.346 477.454 611.147 477.099C610.948 476.735 610.683 476.462 610.354 476.28C610.025 476.098 609.669 476.007 609.288 476.007C608.907 476.007 608.551 476.098 608.222 476.28C607.901 476.462 607.646 476.735 607.455 477.099C607.264 477.454 607.169 477.892 607.169 478.412C607.169 479.183 607.364 479.781 607.754 480.206C608.153 480.622 608.651 480.83 609.249 480.83ZM615.914 475.877C616.131 475.513 616.417 475.231 616.772 475.032C617.136 474.824 617.565 474.72 618.059 474.72V476.254H617.682C617.101 476.254 616.659 476.401 616.356 476.696C616.061 476.991 615.914 477.502 615.914 478.23V482H614.432V474.837H615.914V475.877ZM630.013 472.965V482H628.531V478.048H624.28V482H622.798V472.965H624.28V476.839H628.531V472.965H630.013ZM631.47 478.386C631.47 477.667 631.618 477.03 631.912 476.475C632.216 475.92 632.623 475.491 633.134 475.188C633.654 474.876 634.226 474.72 634.85 474.72C635.414 474.72 635.903 474.833 636.319 475.058C636.744 475.275 637.082 475.548 637.333 475.877V474.837H638.828V482H637.333V480.934C637.082 481.272 636.74 481.554 636.306 481.779C635.873 482.004 635.379 482.117 634.824 482.117C634.209 482.117 633.646 481.961 633.134 481.649C632.623 481.328 632.216 480.886 631.912 480.323C631.618 479.751 631.47 479.105 631.47 478.386ZM637.333 478.412C637.333 477.918 637.229 477.489 637.021 477.125C636.822 476.761 636.558 476.484 636.228 476.293C635.899 476.102 635.544 476.007 635.162 476.007C634.781 476.007 634.426 476.102 634.096 476.293C633.767 476.475 633.498 476.748 633.29 477.112C633.091 477.467 632.991 477.892 632.991 478.386C632.991 478.88 633.091 479.313 633.29 479.686C633.498 480.059 633.767 480.345 634.096 480.544C634.434 480.735 634.79 480.83 635.162 480.83C635.544 480.83 635.899 480.735 636.228 480.544C636.558 480.353 636.822 480.076 637.021 479.712C637.229 479.339 637.333 478.906 637.333 478.412ZM644.389 474.72C644.952 474.72 645.455 474.837 645.897 475.071C646.347 475.305 646.698 475.652 646.95 476.111C647.201 476.57 647.327 477.125 647.327 477.775V482H645.858V477.996C645.858 477.355 645.697 476.865 645.377 476.527C645.056 476.18 644.618 476.007 644.064 476.007C643.509 476.007 643.067 476.18 642.738 476.527C642.417 476.865 642.257 477.355 642.257 477.996V482H640.775V474.837H642.257V475.656C642.499 475.361 642.807 475.132 643.18 474.967C643.561 474.802 643.964 474.72 644.389 474.72ZM648.723 478.386C648.723 477.667 648.871 477.03 649.165 476.475C649.469 475.92 649.876 475.491 650.387 475.188C650.907 474.876 651.484 474.72 652.116 474.72C652.584 474.72 653.044 474.824 653.494 475.032C653.954 475.231 654.318 475.5 654.586 475.838V472.38H656.081V482H654.586V480.921C654.344 481.268 654.006 481.554 653.572 481.779C653.148 482.004 652.658 482.117 652.103 482.117C651.479 482.117 650.907 481.961 650.387 481.649C649.876 481.328 649.469 480.886 649.165 480.323C648.871 479.751 648.723 479.105 648.723 478.386ZM654.586 478.412C654.586 477.918 654.482 477.489 654.274 477.125C654.075 476.761 653.811 476.484 653.481 476.293C653.152 476.102 652.797 476.007 652.415 476.007C652.034 476.007 651.679 476.102 651.349 476.293C651.02 476.475 650.751 476.748 650.543 477.112C650.344 477.467 650.244 477.892 650.244 478.386C650.244 478.88 650.344 479.313 650.543 479.686C650.751 480.059 651.02 480.345 651.349 480.544C651.687 480.735 652.043 480.83 652.415 480.83C652.797 480.83 653.152 480.735 653.481 480.544C653.811 480.353 654.075 480.076 654.274 479.712C654.482 479.339 654.586 478.906 654.586 478.412ZM659.51 475.89C659.761 475.561 660.103 475.283 660.537 475.058C660.97 474.833 661.46 474.72 662.006 474.72C662.63 474.72 663.197 474.876 663.709 475.188C664.229 475.491 664.636 475.92 664.931 476.475C665.225 477.03 665.373 477.667 665.373 478.386C665.373 479.105 665.225 479.751 664.931 480.323C664.636 480.886 664.229 481.328 663.709 481.649C663.197 481.961 662.63 482.117 662.006 482.117C661.46 482.117 660.974 482.009 660.55 481.792C660.125 481.567 659.778 481.289 659.51 480.96V485.406H658.028V474.837H659.51V475.89ZM663.865 478.386C663.865 477.892 663.761 477.467 663.553 477.112C663.353 476.748 663.085 476.475 662.747 476.293C662.417 476.102 662.062 476.007 661.681 476.007C661.308 476.007 660.953 476.102 660.615 476.293C660.285 476.484 660.017 476.761 659.809 477.125C659.609 477.489 659.51 477.918 659.51 478.412C659.51 478.906 659.609 479.339 659.809 479.712C660.017 480.076 660.285 480.353 660.615 480.544C660.953 480.735 661.308 480.83 661.681 480.83C662.062 480.83 662.417 480.735 662.747 480.544C663.085 480.345 663.353 480.059 663.553 479.686C663.761 479.313 663.865 478.88 663.865 478.386ZM670.543 474.72C671.089 474.72 671.575 474.837 671.999 475.071C672.433 475.305 672.771 475.652 673.013 476.111C673.265 476.57 673.39 477.125 673.39 477.775V482H671.921V477.996C671.921 477.355 671.761 476.865 671.44 476.527C671.12 476.18 670.682 476.007 670.127 476.007C669.573 476.007 669.131 476.18 668.801 476.527C668.481 476.865 668.32 477.355 668.32 477.996V482H666.838V472.38H668.32V475.669C668.572 475.366 668.888 475.132 669.269 474.967C669.659 474.802 670.084 474.72 670.543 474.72ZM678.388 482.117C677.712 482.117 677.101 481.965 676.555 481.662C676.009 481.35 675.58 480.917 675.268 480.362C674.956 479.799 674.8 479.149 674.8 478.412C674.8 477.684 674.96 477.038 675.281 476.475C675.601 475.912 676.039 475.478 676.594 475.175C677.148 474.872 677.768 474.72 678.453 474.72C679.137 474.72 679.757 474.872 680.312 475.175C680.866 475.478 681.304 475.912 681.625 476.475C681.945 477.038 682.106 477.684 682.106 478.412C682.106 479.14 681.941 479.786 681.612 480.349C681.282 480.912 680.832 481.35 680.26 481.662C679.696 481.965 679.072 482.117 678.388 482.117ZM678.388 480.83C678.769 480.83 679.124 480.739 679.454 480.557C679.792 480.375 680.065 480.102 680.273 479.738C680.481 479.374 680.585 478.932 680.585 478.412C680.585 477.892 680.485 477.454 680.286 477.099C680.086 476.735 679.822 476.462 679.493 476.28C679.163 476.098 678.808 476.007 678.427 476.007C678.045 476.007 677.69 476.098 677.361 476.28C677.04 476.462 676.784 476.735 676.594 477.099C676.403 477.454 676.308 477.892 676.308 478.412C676.308 479.183 676.503 479.781 676.893 480.206C677.291 480.622 677.79 480.83 678.388 480.83ZM687.185 474.72C687.748 474.72 688.251 474.837 688.693 475.071C689.143 475.305 689.494 475.652 689.746 476.111C689.997 476.57 690.123 477.125 690.123 477.775V482H688.654V477.996C688.654 477.355 688.493 476.865 688.173 476.527C687.852 476.18 687.414 476.007 686.86 476.007C686.305 476.007 685.863 476.18 685.534 476.527C685.213 476.865 685.053 477.355 685.053 477.996V482H683.571V474.837H685.053V475.656C685.295 475.361 685.603 475.132 685.976 474.967C686.357 474.802 686.76 474.72 687.185 474.72ZM698.578 478.243C698.578 478.512 698.561 478.754 698.526 478.971H693.053C693.096 479.543 693.309 480.002 693.69 480.349C694.071 480.696 694.539 480.869 695.094 480.869C695.891 480.869 696.455 480.535 696.784 479.868H698.383C698.166 480.527 697.772 481.068 697.2 481.493C696.637 481.909 695.935 482.117 695.094 482.117C694.409 482.117 693.794 481.965 693.248 481.662C692.711 481.35 692.286 480.917 691.974 480.362C691.671 479.799 691.519 479.149 691.519 478.412C691.519 477.675 691.666 477.03 691.961 476.475C692.264 475.912 692.685 475.478 693.222 475.175C693.768 474.872 694.392 474.72 695.094 474.72C695.77 474.72 696.372 474.867 696.901 475.162C697.43 475.457 697.841 475.873 698.136 476.41C698.431 476.939 698.578 477.55 698.578 478.243ZM697.031 477.775C697.022 477.229 696.827 476.791 696.446 476.462C696.065 476.133 695.592 475.968 695.029 475.968C694.518 475.968 694.08 476.133 693.716 476.462C693.352 476.783 693.135 477.22 693.066 477.775H697.031Z" fill="#0083FF"/>
<path d="M581.293 541.656C581.293 542.115 581.185 542.549 580.968 542.956C580.751 543.363 580.405 543.697 579.928 543.957C579.451 544.208 578.84 544.334 578.095 544.334H576.457V548H574.975V538.965H578.095C578.788 538.965 579.373 539.086 579.85 539.329C580.335 539.563 580.695 539.884 580.929 540.291C581.172 540.698 581.293 541.153 581.293 541.656ZM578.095 543.125C578.658 543.125 579.079 542.999 579.356 542.748C579.633 542.488 579.772 542.124 579.772 541.656C579.772 540.668 579.213 540.174 578.095 540.174H576.457V543.125H578.095ZM582.212 544.386C582.212 543.667 582.36 543.03 582.654 542.475C582.958 541.92 583.365 541.491 583.876 541.188C584.396 540.876 584.968 540.72 585.592 540.72C586.156 540.72 586.645 540.833 587.061 541.058C587.486 541.275 587.824 541.548 588.075 541.877V540.837H589.57V548H588.075V546.934C587.824 547.272 587.482 547.554 587.048 547.779C586.615 548.004 586.121 548.117 585.566 548.117C584.951 548.117 584.388 547.961 583.876 547.649C583.365 547.328 582.958 546.886 582.654 546.323C582.36 545.751 582.212 545.105 582.212 544.386ZM588.075 544.412C588.075 543.918 587.971 543.489 587.763 543.125C587.564 542.761 587.3 542.484 586.97 542.293C586.641 542.102 586.286 542.007 585.904 542.007C585.523 542.007 585.168 542.102 584.838 542.293C584.509 542.475 584.24 542.748 584.032 543.112C583.833 543.467 583.733 543.892 583.733 544.386C583.733 544.88 583.833 545.313 584.032 545.686C584.24 546.059 584.509 546.345 584.838 546.544C585.176 546.735 585.532 546.83 585.904 546.83C586.286 546.83 586.641 546.735 586.97 546.544C587.3 546.353 587.564 546.076 587.763 545.712C587.971 545.339 588.075 544.906 588.075 544.412ZM594.117 548.117C593.554 548.117 593.047 548.017 592.596 547.818C592.154 547.61 591.803 547.333 591.543 546.986C591.283 546.631 591.144 546.236 591.127 545.803H592.661C592.687 546.106 592.83 546.362 593.09 546.57C593.359 546.769 593.692 546.869 594.091 546.869C594.507 546.869 594.828 546.791 595.053 546.635C595.287 546.47 595.404 546.262 595.404 546.011C595.404 545.742 595.274 545.543 595.014 545.413C594.763 545.283 594.36 545.14 593.805 544.984C593.268 544.837 592.83 544.694 592.492 544.555C592.154 544.416 591.859 544.204 591.608 543.918C591.365 543.632 591.244 543.255 591.244 542.787C591.244 542.406 591.357 542.059 591.582 541.747C591.807 541.426 592.128 541.175 592.544 540.993C592.969 540.811 593.454 540.72 594 540.72C594.815 540.72 595.469 540.928 595.963 541.344C596.466 541.751 596.734 542.31 596.769 543.021H595.287C595.261 542.7 595.131 542.445 594.897 542.254C594.663 542.063 594.347 541.968 593.948 541.968C593.558 541.968 593.259 542.042 593.051 542.189C592.843 542.336 592.739 542.531 592.739 542.774C592.739 542.965 592.808 543.125 592.947 543.255C593.086 543.385 593.255 543.489 593.454 543.567C593.653 543.636 593.948 543.727 594.338 543.84C594.858 543.979 595.283 544.122 595.612 544.269C595.95 544.408 596.24 544.616 596.483 544.893C596.726 545.17 596.851 545.539 596.86 545.998C596.86 546.405 596.747 546.769 596.522 547.09C596.297 547.411 595.976 547.662 595.56 547.844C595.153 548.026 594.672 548.117 594.117 548.117ZM601.061 548.117C600.498 548.117 599.991 548.017 599.54 547.818C599.098 547.61 598.747 547.333 598.487 546.986C598.227 546.631 598.089 546.236 598.071 545.803H599.605C599.631 546.106 599.774 546.362 600.034 546.57C600.303 546.769 600.637 546.869 601.035 546.869C601.451 546.869 601.772 546.791 601.997 546.635C602.231 546.47 602.348 546.262 602.348 546.011C602.348 545.742 602.218 545.543 601.958 545.413C601.707 545.283 601.304 545.14 600.749 544.984C600.212 544.837 599.774 544.694 599.436 544.555C599.098 544.416 598.804 544.204 598.552 543.918C598.31 543.632 598.188 543.255 598.188 542.787C598.188 542.406 598.301 542.059 598.526 541.747C598.752 541.426 599.072 541.175 599.488 540.993C599.913 540.811 600.398 540.72 600.944 540.72C601.759 540.72 602.413 540.928 602.907 541.344C603.41 541.751 603.679 542.31 603.713 543.021H602.231C602.205 542.7 602.075 542.445 601.841 542.254C601.607 542.063 601.291 541.968 600.892 541.968C600.502 541.968 600.203 542.042 599.995 542.189C599.787 542.336 599.683 542.531 599.683 542.774C599.683 542.965 599.753 543.125 599.891 543.255C600.03 543.385 600.199 543.489 600.398 543.567C600.598 543.636 600.892 543.727 601.282 543.84C601.802 543.979 602.227 544.122 602.556 544.269C602.894 544.408 603.185 544.616 603.427 544.893C603.67 545.17 603.796 545.539 603.804 545.998C603.804 546.405 603.692 546.769 603.466 547.09C603.241 547.411 602.92 547.662 602.504 547.844C602.097 548.026 601.616 548.117 601.061 548.117ZM615.026 540.837L612.803 548H611.243L609.8 542.709L608.357 548H606.797L604.561 540.837H606.069L607.564 546.596L609.085 540.837H610.632L612.088 546.57L613.57 540.837H615.026ZM619.24 548.117C618.564 548.117 617.953 547.965 617.407 547.662C616.861 547.35 616.432 546.917 616.12 546.362C615.808 545.799 615.652 545.149 615.652 544.412C615.652 543.684 615.813 543.038 616.133 542.475C616.454 541.912 616.892 541.478 617.446 541.175C618.001 540.872 618.621 540.72 619.305 540.72C619.99 540.72 620.61 540.872 621.164 541.175C621.719 541.478 622.157 541.912 622.477 542.475C622.798 543.038 622.958 543.684 622.958 544.412C622.958 545.14 622.794 545.786 622.464 546.349C622.135 546.912 621.684 547.35 621.112 547.662C620.549 547.965 619.925 548.117 619.24 548.117ZM619.24 546.83C619.622 546.83 619.977 546.739 620.306 546.557C620.644 546.375 620.917 546.102 621.125 545.738C621.333 545.374 621.437 544.932 621.437 544.412C621.437 543.892 621.338 543.454 621.138 543.099C620.939 542.735 620.675 542.462 620.345 542.28C620.016 542.098 619.661 542.007 619.279 542.007C618.898 542.007 618.543 542.098 618.213 542.28C617.893 542.462 617.637 542.735 617.446 543.099C617.256 543.454 617.16 543.892 617.16 544.412C617.16 545.183 617.355 545.781 617.745 546.206C618.144 546.622 618.642 546.83 619.24 546.83ZM625.905 541.877C626.122 541.513 626.408 541.231 626.763 541.032C627.127 540.824 627.556 540.72 628.05 540.72V542.254H627.673C627.093 542.254 626.651 542.401 626.347 542.696C626.053 542.991 625.905 543.502 625.905 544.23V548H624.423V540.837H625.905V541.877ZM628.919 544.386C628.919 543.667 629.066 543.03 629.361 542.475C629.664 541.92 630.071 541.491 630.583 541.188C631.103 540.876 631.679 540.72 632.312 540.72C632.78 540.72 633.239 540.824 633.69 541.032C634.149 541.231 634.513 541.5 634.782 541.838V538.38H636.277V548H634.782V546.921C634.539 547.268 634.201 547.554 633.768 547.779C633.343 548.004 632.853 548.117 632.299 548.117C631.675 548.117 631.103 547.961 630.583 547.649C630.071 547.328 629.664 546.886 629.361 546.323C629.066 545.751 628.919 545.105 628.919 544.386ZM634.782 544.412C634.782 543.918 634.678 543.489 634.47 543.125C634.27 542.761 634.006 542.484 633.677 542.293C633.347 542.102 632.992 542.007 632.611 542.007C632.229 542.007 631.874 542.102 631.545 542.293C631.215 542.475 630.947 542.748 630.739 543.112C630.539 543.467 630.44 543.892 630.44 544.386C630.44 544.88 630.539 545.313 630.739 545.686C630.947 546.059 631.215 546.345 631.545 546.544C631.883 546.735 632.238 546.83 632.611 546.83C632.992 546.83 633.347 546.735 633.677 546.544C634.006 546.353 634.27 546.076 634.47 545.712C634.678 545.339 634.782 544.906 634.782 544.412Z" fill="#0083FF"/>
<path d="M705.481 454.386C705.481 453.667 705.628 453.03 705.923 452.475C706.226 451.92 706.634 451.491 707.145 451.188C707.665 450.876 708.237 450.72 708.861 450.72C709.424 450.72 709.914 450.833 710.33 451.058C710.755 451.275 711.093 451.548 711.344 451.877V450.837H712.839V458H711.344V456.934C711.093 457.272 710.75 457.554 710.317 457.779C709.884 458.004 709.39 458.117 708.835 458.117C708.22 458.117 707.656 457.961 707.145 457.649C706.634 457.328 706.226 456.886 705.923 456.323C705.628 455.751 705.481 455.105 705.481 454.386ZM711.344 454.412C711.344 453.918 711.24 453.489 711.032 453.125C710.833 452.761 710.568 452.484 710.239 452.293C709.91 452.102 709.554 452.007 709.173 452.007C708.792 452.007 708.436 452.102 708.107 452.293C707.778 452.475 707.509 452.748 707.301 453.112C707.102 453.467 707.002 453.892 707.002 454.386C707.002 454.88 707.102 455.313 707.301 455.686C707.509 456.059 707.778 456.345 708.107 456.544C708.445 456.735 708.8 456.83 709.173 456.83C709.554 456.83 709.91 456.735 710.239 456.544C710.568 456.353 710.833 456.076 711.032 455.712C711.24 455.339 711.344 454.906 711.344 454.412ZM716.515 452.046V456.011C716.515 456.28 716.575 456.475 716.697 456.596C716.827 456.709 717.043 456.765 717.347 456.765H718.257V458H717.087C716.419 458 715.908 457.844 715.553 457.532C715.197 457.22 715.02 456.713 715.02 456.011V452.046H714.175V450.837H715.02V449.056H716.515V450.837H718.257V452.046H716.515ZM719.128 454.386C719.128 453.667 719.276 453.03 719.57 452.475C719.874 451.92 720.281 451.491 720.792 451.188C721.312 450.876 721.884 450.72 722.508 450.72C723.072 450.72 723.561 450.833 723.977 451.058C724.402 451.275 724.74 451.548 724.991 451.877V450.837H726.486V458H724.991V456.934C724.74 457.272 724.398 457.554 723.964 457.779C723.531 458.004 723.037 458.117 722.482 458.117C721.867 458.117 721.304 457.961 720.792 457.649C720.281 457.328 719.874 456.886 719.57 456.323C719.276 455.751 719.128 455.105 719.128 454.386ZM724.991 454.412C724.991 453.918 724.887 453.489 724.679 453.125C724.48 452.761 724.216 452.484 723.886 452.293C723.557 452.102 723.202 452.007 722.82 452.007C722.439 452.007 722.084 452.102 721.754 452.293C721.425 452.475 721.156 452.748 720.948 453.112C720.749 453.467 720.649 453.892 720.649 454.386C720.649 454.88 720.749 455.313 720.948 455.686C721.156 456.059 721.425 456.345 721.754 456.544C722.092 456.735 722.448 456.83 722.82 456.83C723.202 456.83 723.557 456.735 723.886 456.544C724.216 456.353 724.48 456.076 724.679 455.712C724.887 455.339 724.991 454.906 724.991 454.412ZM734.92 450.837V458H733.438V457.155C733.204 457.45 732.896 457.684 732.515 457.857C732.142 458.022 731.744 458.104 731.319 458.104C730.756 458.104 730.249 457.987 729.798 457.753C729.356 457.519 729.005 457.172 728.745 456.713C728.494 456.254 728.368 455.699 728.368 455.049V450.837H729.837V454.828C729.837 455.469 729.997 455.963 730.318 456.31C730.639 456.648 731.076 456.817 731.631 456.817C732.186 456.817 732.623 456.648 732.944 456.31C733.273 455.963 733.438 455.469 733.438 454.828V450.837H734.92Z" fill="#7812DD"/>
<path d="M651.531 355.297H650.625V355.25H640.5V359.75H646.858C645.93 362.37 643.438 364.25 640.5 364.25C636.772 364.25 633.75 361.228 633.75 357.5C633.75 353.772 636.772 350.75 640.5 350.75C642.221 350.75 643.786 351.399 644.978 352.459L648.16 349.277C646.151 347.405 643.463 346.25 640.5 346.25C634.287 346.25 629.25 351.287 629.25 357.5C629.25 363.713 634.287 368.75 640.5 368.75C646.713 368.75 651.75 363.713 651.75 357.5C651.75 356.746 651.672 356.009 651.531 355.297Z" fill="#FFC107"/>
<path d="M630.547 352.264L634.243 354.974C635.243 352.498 637.666 350.75 640.5 350.75C642.221 350.75 643.786 351.399 644.978 352.459L648.16 349.277C646.151 347.405 643.463 346.25 640.5 346.25C636.179 346.25 632.431 348.69 630.547 352.264Z" fill="#FF3D00"/>
<path d="M640.5 368.75C643.406 368.75 646.046 367.638 648.042 365.83L644.561 362.883C643.393 363.771 641.967 364.251 640.5 364.25C637.574 364.25 635.089 362.384 634.153 359.78L630.485 362.607C632.346 366.25 636.128 368.75 640.5 368.75Z" fill="#4CAF50"/>
<path d="M651.531 355.297H650.625V355.25H640.5V359.75H646.858C646.414 360.997 645.615 362.086 644.559 362.884L644.561 362.883L648.043 365.829C647.796 366.053 651.75 363.125 651.75 357.5C651.75 356.746 651.672 356.009 651.531 355.297Z" fill="#1976D2"/>
<path d="M666.56 363.105C665.86 363.105 665.23 362.985 664.67 362.745C664.11 362.495 663.67 362.145 663.35 361.695C663.03 361.245 662.87 360.72 662.87 360.12H664.7C664.74 360.57 664.915 360.94 665.225 361.23C665.545 361.52 665.99 361.665 666.56 361.665C667.15 361.665 667.61 361.525 667.94 361.245C668.27 360.955 668.435 360.585 668.435 360.135C668.435 359.785 668.33 359.5 668.12 359.28C667.92 359.06 667.665 358.89 667.355 358.77C667.055 358.65 666.635 358.52 666.095 358.38C665.415 358.2 664.86 358.02 664.43 357.84C664.01 357.65 663.65 357.36 663.35 356.97C663.05 356.58 662.9 356.06 662.9 355.41C662.9 354.81 663.05 354.285 663.35 353.835C663.65 353.385 664.07 353.04 664.61 352.8C665.15 352.56 665.775 352.44 666.485 352.44C667.495 352.44 668.32 352.695 668.96 353.205C669.61 353.705 669.97 354.395 670.04 355.275H668.15C668.12 354.895 667.94 354.57 667.61 354.3C667.28 354.03 666.845 353.895 666.305 353.895C665.815 353.895 665.415 354.02 665.105 354.27C664.795 354.52 664.64 354.88 664.64 355.35C664.64 355.67 664.735 355.935 664.925 356.145C665.125 356.345 665.375 356.505 665.675 356.625C665.975 356.745 666.385 356.875 666.905 357.015C667.595 357.205 668.155 357.395 668.585 357.585C669.025 357.775 669.395 358.07 669.695 358.47C670.005 358.86 670.16 359.385 670.16 360.045C670.16 360.575 670.015 361.075 669.725 361.545C669.445 362.015 669.03 362.395 668.48 362.685C667.94 362.965 667.3 363.105 666.56 363.105ZM673.048 353.64C672.738 353.64 672.478 353.535 672.268 353.325C672.058 353.115 671.953 352.855 671.953 352.545C671.953 352.235 672.058 351.975 672.268 351.765C672.478 351.555 672.738 351.45 673.048 351.45C673.348 351.45 673.603 351.555 673.813 351.765C674.023 351.975 674.128 352.235 674.128 352.545C674.128 352.855 674.023 353.115 673.813 353.325C673.603 353.535 673.348 353.64 673.048 353.64ZM673.888 354.735V363H672.178V354.735H673.888ZM679.463 354.6C680.103 354.6 680.668 354.73 681.158 354.99C681.658 355.24 682.048 355.555 682.328 355.935V354.735H684.053V363.135C684.053 363.895 683.893 364.57 683.573 365.16C683.253 365.76 682.788 366.23 682.178 366.57C681.578 366.91 680.858 367.08 680.018 367.08C678.898 367.08 677.968 366.815 677.228 366.285C676.488 365.765 676.068 365.055 675.968 364.155H677.663C677.793 364.585 678.068 364.93 678.488 365.19C678.918 365.46 679.428 365.595 680.018 365.595C680.708 365.595 681.263 365.385 681.683 364.965C682.113 364.545 682.328 363.935 682.328 363.135V361.755C682.038 362.145 681.643 362.475 681.143 362.745C680.653 363.005 680.093 363.135 679.463 363.135C678.743 363.135 678.083 362.955 677.483 362.595C676.893 362.225 676.423 361.715 676.073 361.065C675.733 360.405 675.563 359.66 675.563 358.83C675.563 358 675.733 357.265 676.073 356.625C676.423 355.985 676.893 355.49 677.483 355.14C678.083 354.78 678.743 354.6 679.463 354.6ZM682.328 358.86C682.328 358.29 682.208 357.795 681.968 357.375C681.738 356.955 681.433 356.635 681.053 356.415C680.673 356.195 680.263 356.085 679.823 356.085C679.383 356.085 678.973 356.195 678.593 356.415C678.213 356.625 677.903 356.94 677.663 357.36C677.433 357.77 677.318 358.26 677.318 358.83C677.318 359.4 677.433 359.9 677.663 360.33C677.903 360.76 678.213 361.09 678.593 361.32C678.983 361.54 679.393 361.65 679.823 361.65C680.263 361.65 680.673 361.54 681.053 361.32C681.433 361.1 681.738 360.78 681.968 360.36C682.208 359.93 682.328 359.43 682.328 358.86ZM690.469 354.6C691.119 354.6 691.699 354.735 692.209 355.005C692.729 355.275 693.134 355.675 693.424 356.205C693.714 356.735 693.859 357.375 693.859 358.125V363H692.164V358.38C692.164 357.64 691.979 357.075 691.609 356.685C691.239 356.285 690.734 356.085 690.094 356.085C689.454 356.085 688.944 356.285 688.564 356.685C688.194 357.075 688.009 357.64 688.009 358.38V363H686.299V354.735H688.009V355.68C688.289 355.34 688.644 355.075 689.074 354.885C689.514 354.695 689.979 354.6 690.469 354.6ZM700.807 353.64C700.497 353.64 700.237 353.535 700.027 353.325C699.817 353.115 699.712 352.855 699.712 352.545C699.712 352.235 699.817 351.975 700.027 351.765C700.237 351.555 700.497 351.45 700.807 351.45C701.107 351.45 701.362 351.555 701.572 351.765C701.782 351.975 701.887 352.235 701.887 352.545C701.887 352.855 701.782 353.115 701.572 353.325C701.362 353.535 701.107 353.64 700.807 353.64ZM701.647 354.735V363H699.937V354.735H701.647ZM708.062 354.6C708.712 354.6 709.292 354.735 709.802 355.005C710.322 355.275 710.727 355.675 711.017 356.205C711.307 356.735 711.452 357.375 711.452 358.125V363H709.757V358.38C709.757 357.64 709.572 357.075 709.202 356.685C708.832 356.285 708.327 356.085 707.687 356.085C707.047 356.085 706.537 356.285 706.157 356.685C705.787 357.075 705.602 357.64 705.602 358.38V363H703.892V354.735H705.602V355.68C705.882 355.34 706.237 355.075 706.667 354.885C707.107 354.695 707.572 354.6 708.062 354.6ZM731.104 352.575L728.014 363H726.079L723.889 355.11L721.564 363L719.644 363.015L716.689 352.575H718.504L720.664 361.065L723.004 352.575H724.924L727.099 361.02L729.274 352.575H731.104ZM733.385 353.64C733.075 353.64 732.815 353.535 732.605 353.325C732.395 353.115 732.29 352.855 732.29 352.545C732.29 352.235 732.395 351.975 732.605 351.765C732.815 351.555 733.075 351.45 733.385 351.45C733.685 351.45 733.94 351.555 734.15 351.765C734.36 351.975 734.465 352.235 734.465 352.545C734.465 352.855 734.36 353.115 734.15 353.325C733.94 353.535 733.685 353.64 733.385 353.64ZM734.225 354.735V363H732.515V354.735H734.225ZM738.465 356.13V360.705C738.465 361.015 738.535 361.24 738.675 361.38C738.825 361.51 739.075 361.575 739.425 361.575H740.475V363H739.125C738.355 363 737.765 362.82 737.355 362.46C736.945 362.1 736.74 361.515 736.74 360.705V356.13H735.765V354.735H736.74V352.68H738.465V354.735H740.475V356.13H738.465ZM746.326 354.6C746.956 354.6 747.516 354.735 748.006 355.005C748.506 355.275 748.896 355.675 749.176 356.205C749.466 356.735 749.611 357.375 749.611 358.125V363H747.916V358.38C747.916 357.64 747.731 357.075 747.361 356.685C746.991 356.285 746.486 356.085 745.846 356.085C745.206 356.085 744.696 356.285 744.316 356.685C743.946 357.075 743.761 357.64 743.761 358.38V363H742.051V351.9H743.761V355.695C744.051 355.345 744.416 355.075 744.856 354.885C745.306 354.695 745.796 354.6 746.326 354.6ZM763.233 355.575C762.963 355.055 762.588 354.665 762.108 354.405C761.628 354.135 761.073 354 760.443 354C759.753 354 759.138 354.155 758.598 354.465C758.058 354.775 757.633 355.215 757.323 355.785C757.023 356.355 756.873 357.015 756.873 357.765C756.873 358.515 757.023 359.18 757.323 359.76C757.633 360.33 758.058 360.77 758.598 361.08C759.138 361.39 759.753 361.545 760.443 361.545C761.373 361.545 762.128 361.285 762.708 360.765C763.288 360.245 763.643 359.54 763.773 358.65H759.858V357.285H765.603V358.62C765.493 359.43 765.203 360.175 764.733 360.855C764.273 361.535 763.668 362.08 762.918 362.49C762.178 362.89 761.353 363.09 760.443 363.09C759.463 363.09 758.568 362.865 757.758 362.415C756.948 361.955 756.303 361.32 755.823 360.51C755.353 359.7 755.118 358.785 755.118 357.765C755.118 356.745 755.353 355.83 755.823 355.02C756.303 354.21 756.948 353.58 757.758 353.13C758.578 352.67 759.473 352.44 760.443 352.44C761.553 352.44 762.538 352.715 763.398 353.265C764.268 353.805 764.898 354.575 765.288 355.575H763.233ZM770.875 363.135C770.095 363.135 769.39 362.96 768.76 362.61C768.13 362.25 767.635 361.75 767.275 361.11C766.915 360.46 766.735 359.71 766.735 358.86C766.735 358.02 766.92 357.275 767.29 356.625C767.66 355.975 768.165 355.475 768.805 355.125C769.445 354.775 770.16 354.6 770.95 354.6C771.74 354.6 772.455 354.775 773.095 355.125C773.735 355.475 774.24 355.975 774.61 356.625C774.98 357.275 775.165 358.02 775.165 358.86C775.165 359.7 774.975 360.445 774.595 361.095C774.215 361.745 773.695 362.25 773.035 362.61C772.385 362.96 771.665 363.135 770.875 363.135ZM770.875 361.65C771.315 361.65 771.725 361.545 772.105 361.335C772.495 361.125 772.81 360.81 773.05 360.39C773.29 359.97 773.41 359.46 773.41 358.86C773.41 358.26 773.295 357.755 773.065 357.345C772.835 356.925 772.53 356.61 772.15 356.4C771.77 356.19 771.36 356.085 770.92 356.085C770.48 356.085 770.07 356.19 769.69 356.4C769.32 356.61 769.025 356.925 768.805 357.345C768.585 357.755 768.475 358.26 768.475 358.86C768.475 359.75 768.7 360.44 769.15 360.93C769.61 361.41 770.185 361.65 770.875 361.65ZM780.44 363.135C779.66 363.135 778.955 362.96 778.325 362.61C777.695 362.25 777.2 361.75 776.84 361.11C776.48 360.46 776.3 359.71 776.3 358.86C776.3 358.02 776.485 357.275 776.855 356.625C777.225 355.975 777.73 355.475 778.37 355.125C779.01 354.775 779.725 354.6 780.515 354.6C781.305 354.6 782.02 354.775 782.66 355.125C783.3 355.475 783.805 355.975 784.175 356.625C784.545 357.275 784.73 358.02 784.73 358.86C784.73 359.7 784.54 360.445 784.16 361.095C783.78 361.745 783.26 362.25 782.6 362.61C781.95 362.96 781.23 363.135 780.44 363.135ZM780.44 361.65C780.88 361.65 781.29 361.545 781.67 361.335C782.06 361.125 782.375 360.81 782.615 360.39C782.855 359.97 782.975 359.46 782.975 358.86C782.975 358.26 782.86 357.755 782.63 357.345C782.4 356.925 782.095 356.61 781.715 356.4C781.335 356.19 780.925 356.085 780.485 356.085C780.045 356.085 779.635 356.19 779.255 356.4C778.885 356.61 778.59 356.925 778.37 357.345C778.15 357.755 778.04 358.26 778.04 358.86C778.04 359.75 778.265 360.44 778.715 360.93C779.175 361.41 779.75 361.65 780.44 361.65ZM789.751 354.6C790.391 354.6 790.956 354.73 791.446 354.99C791.946 355.24 792.336 355.555 792.616 355.935V354.735H794.341V363.135C794.341 363.895 794.181 364.57 793.861 365.16C793.541 365.76 793.076 366.23 792.466 366.57C791.866 366.91 791.146 367.08 790.306 367.08C789.186 367.08 788.256 366.815 787.516 366.285C786.776 365.765 786.356 365.055 786.256 364.155H787.951C788.081 364.585 788.356 364.93 788.776 365.19C789.206 365.46 789.716 365.595 790.306 365.595C790.996 365.595 791.551 365.385 791.971 364.965C792.401 364.545 792.616 363.935 792.616 363.135V361.755C792.326 362.145 791.931 362.475 791.431 362.745C790.941 363.005 790.381 363.135 789.751 363.135C789.031 363.135 788.371 362.955 787.771 362.595C787.181 362.225 786.711 361.715 786.361 361.065C786.021 360.405 785.851 359.66 785.851 358.83C785.851 358 786.021 357.265 786.361 356.625C786.711 355.985 787.181 355.49 787.771 355.14C788.371 354.78 789.031 354.6 789.751 354.6ZM792.616 358.86C792.616 358.29 792.496 357.795 792.256 357.375C792.026 356.955 791.721 356.635 791.341 356.415C790.961 356.195 790.551 356.085 790.111 356.085C789.671 356.085 789.261 356.195 788.881 356.415C788.501 356.625 788.191 356.94 787.951 357.36C787.721 357.77 787.606 358.26 787.606 358.83C787.606 359.4 787.721 359.9 787.951 360.33C788.191 360.76 788.501 361.09 788.881 361.32C789.271 361.54 789.681 361.65 790.111 361.65C790.551 361.65 790.961 361.54 791.341 361.32C791.721 361.1 792.026 360.78 792.256 360.36C792.496 359.93 792.616 359.43 792.616 358.86ZM798.297 351.9V363H796.587V351.9H798.297ZM808.117 358.665C808.117 358.975 808.097 359.255 808.057 359.505H801.742C801.792 360.165 802.037 360.695 802.477 361.095C802.917 361.495 803.457 361.695 804.097 361.695C805.017 361.695 805.667 361.31 806.047 360.54H807.892C807.642 361.3 807.187 361.925 806.527 362.415C805.877 362.895 805.067 363.135 804.097 363.135C803.307 363.135 802.597 362.96 801.967 362.61C801.347 362.25 800.857 361.75 800.497 361.11C800.147 360.46 799.972 359.71 799.972 358.86C799.972 358.01 800.142 357.265 800.482 356.625C800.832 355.975 801.317 355.475 801.937 355.125C802.567 354.775 803.287 354.6 804.097 354.6C804.877 354.6 805.572 354.77 806.182 355.11C806.792 355.45 807.267 355.93 807.607 356.55C807.947 357.16 808.117 357.865 808.117 358.665ZM806.332 358.125C806.322 357.495 806.097 356.99 805.657 356.61C805.217 356.23 804.672 356.04 804.022 356.04C803.432 356.04 802.927 356.23 802.507 356.61C802.087 356.98 801.837 357.485 801.757 358.125H806.332Z" fill="#0083FF"/>
<path d="M658.56 418.105C657.86 418.105 657.23 417.985 656.67 417.745C656.11 417.495 655.67 417.145 655.35 416.695C655.03 416.245 654.87 415.72 654.87 415.12H656.7C656.74 415.57 656.915 415.94 657.225 416.23C657.545 416.52 657.99 416.665 658.56 416.665C659.15 416.665 659.61 416.525 659.94 416.245C660.27 415.955 660.435 415.585 660.435 415.135C660.435 414.785 660.33 414.5 660.12 414.28C659.92 414.06 659.665 413.89 659.355 413.77C659.055 413.65 658.635 413.52 658.095 413.38C657.415 413.2 656.86 413.02 656.43 412.84C656.01 412.65 655.65 412.36 655.35 411.97C655.05 411.58 654.9 411.06 654.9 410.41C654.9 409.81 655.05 409.285 655.35 408.835C655.65 408.385 656.07 408.04 656.61 407.8C657.15 407.56 657.775 407.44 658.485 407.44C659.495 407.44 660.32 407.695 660.96 408.205C661.61 408.705 661.97 409.395 662.04 410.275H660.15C660.12 409.895 659.94 409.57 659.61 409.3C659.28 409.03 658.845 408.895 658.305 408.895C657.815 408.895 657.415 409.02 657.105 409.27C656.795 409.52 656.64 409.88 656.64 410.35C656.64 410.67 656.735 410.935 656.925 411.145C657.125 411.345 657.375 411.505 657.675 411.625C657.975 411.745 658.385 411.875 658.905 412.015C659.595 412.205 660.155 412.395 660.585 412.585C661.025 412.775 661.395 413.07 661.695 413.47C662.005 413.86 662.16 414.385 662.16 415.045C662.16 415.575 662.015 416.075 661.725 416.545C661.445 417.015 661.03 417.395 660.48 417.685C659.94 417.965 659.3 418.105 658.56 418.105ZM665.048 408.64C664.738 408.64 664.478 408.535 664.268 408.325C664.058 408.115 663.953 407.855 663.953 407.545C663.953 407.235 664.058 406.975 664.268 406.765C664.478 406.555 664.738 406.45 665.048 406.45C665.348 406.45 665.603 406.555 665.813 406.765C666.023 406.975 666.128 407.235 666.128 407.545C666.128 407.855 666.023 408.115 665.813 408.325C665.603 408.535 665.348 408.64 665.048 408.64ZM665.888 409.735V418H664.178V409.735H665.888ZM671.463 409.6C672.103 409.6 672.668 409.73 673.158 409.99C673.658 410.24 674.048 410.555 674.328 410.935V409.735H676.053V418.135C676.053 418.895 675.893 419.57 675.573 420.16C675.253 420.76 674.788 421.23 674.178 421.57C673.578 421.91 672.858 422.08 672.018 422.08C670.898 422.08 669.968 421.815 669.228 421.285C668.488 420.765 668.068 420.055 667.968 419.155H669.663C669.793 419.585 670.068 419.93 670.488 420.19C670.918 420.46 671.428 420.595 672.018 420.595C672.708 420.595 673.263 420.385 673.683 419.965C674.113 419.545 674.328 418.935 674.328 418.135V416.755C674.038 417.145 673.643 417.475 673.143 417.745C672.653 418.005 672.093 418.135 671.463 418.135C670.743 418.135 670.083 417.955 669.483 417.595C668.893 417.225 668.423 416.715 668.073 416.065C667.733 415.405 667.563 414.66 667.563 413.83C667.563 413 667.733 412.265 668.073 411.625C668.423 410.985 668.893 410.49 669.483 410.14C670.083 409.78 670.743 409.6 671.463 409.6ZM674.328 413.86C674.328 413.29 674.208 412.795 673.968 412.375C673.738 411.955 673.433 411.635 673.053 411.415C672.673 411.195 672.263 411.085 671.823 411.085C671.383 411.085 670.973 411.195 670.593 411.415C670.213 411.625 669.903 411.94 669.663 412.36C669.433 412.77 669.318 413.26 669.318 413.83C669.318 414.4 669.433 414.9 669.663 415.33C669.903 415.76 670.213 416.09 670.593 416.32C670.983 416.54 671.393 416.65 671.823 416.65C672.263 416.65 672.673 416.54 673.053 416.32C673.433 416.1 673.738 415.78 673.968 415.36C674.208 414.93 674.328 414.43 674.328 413.86ZM682.469 409.6C683.119 409.6 683.699 409.735 684.209 410.005C684.729 410.275 685.134 410.675 685.424 411.205C685.714 411.735 685.859 412.375 685.859 413.125V418H684.164V413.38C684.164 412.64 683.979 412.075 683.609 411.685C683.239 411.285 682.734 411.085 682.094 411.085C681.454 411.085 680.944 411.285 680.564 411.685C680.194 412.075 680.009 412.64 680.009 413.38V418H678.299V409.735H680.009V410.68C680.289 410.34 680.644 410.075 681.074 409.885C681.514 409.695 681.979 409.6 682.469 409.6ZM692.807 408.64C692.497 408.64 692.237 408.535 692.027 408.325C691.817 408.115 691.712 407.855 691.712 407.545C691.712 407.235 691.817 406.975 692.027 406.765C692.237 406.555 692.497 406.45 692.807 406.45C693.107 406.45 693.362 406.555 693.572 406.765C693.782 406.975 693.887 407.235 693.887 407.545C693.887 407.855 693.782 408.115 693.572 408.325C693.362 408.535 693.107 408.64 692.807 408.64ZM693.647 409.735V418H691.937V409.735H693.647ZM700.062 409.6C700.712 409.6 701.292 409.735 701.802 410.005C702.322 410.275 702.727 410.675 703.017 411.205C703.307 411.735 703.452 412.375 703.452 413.125V418H701.757V413.38C701.757 412.64 701.572 412.075 701.202 411.685C700.832 411.285 700.327 411.085 699.687 411.085C699.047 411.085 698.537 411.285 698.157 411.685C697.787 412.075 697.602 412.64 697.602 413.38V418H695.892V409.735H697.602V410.68C697.882 410.34 698.237 410.075 698.667 409.885C699.107 409.695 699.572 409.6 700.062 409.6ZM723.104 407.575L720.014 418H718.079L715.889 410.11L713.564 418L711.644 418.015L708.689 407.575H710.504L712.664 416.065L715.004 407.575H716.924L719.099 416.02L721.274 407.575H723.104ZM725.385 408.64C725.075 408.64 724.815 408.535 724.605 408.325C724.395 408.115 724.29 407.855 724.29 407.545C724.29 407.235 724.395 406.975 724.605 406.765C724.815 406.555 725.075 406.45 725.385 406.45C725.685 406.45 725.94 406.555 726.15 406.765C726.36 406.975 726.465 407.235 726.465 407.545C726.465 407.855 726.36 408.115 726.15 408.325C725.94 408.535 725.685 408.64 725.385 408.64ZM726.225 409.735V418H724.515V409.735H726.225ZM730.465 411.13V415.705C730.465 416.015 730.535 416.24 730.675 416.38C730.825 416.51 731.075 416.575 731.425 416.575H732.475V418H731.125C730.355 418 729.765 417.82 729.355 417.46C728.945 417.1 728.74 416.515 728.74 415.705V411.13H727.765V409.735H728.74V407.68H730.465V409.735H732.475V411.13H730.465ZM738.326 409.6C738.956 409.6 739.516 409.735 740.006 410.005C740.506 410.275 740.896 410.675 741.176 411.205C741.466 411.735 741.611 412.375 741.611 413.125V418H739.916V413.38C739.916 412.64 739.731 412.075 739.361 411.685C738.991 411.285 738.486 411.085 737.846 411.085C737.206 411.085 736.696 411.285 736.316 411.685C735.946 412.075 735.761 412.64 735.761 413.38V418H734.051V406.9H735.761V410.695C736.051 410.345 736.416 410.075 736.856 409.885C737.306 409.695 737.796 409.6 738.326 409.6ZM753.823 407.575V408.97H749.398V412.045H752.848V413.44H749.398V418H747.688V407.575H753.823ZM754.838 413.83C754.838 413 755.008 412.265 755.348 411.625C755.698 410.985 756.168 410.49 756.758 410.14C757.358 409.78 758.018 409.6 758.738 409.6C759.388 409.6 759.953 409.73 760.433 409.99C760.923 410.24 761.313 410.555 761.603 410.935V409.735H763.328V418H761.603V416.77C761.313 417.16 760.918 417.485 760.418 417.745C759.918 418.005 759.348 418.135 758.708 418.135C757.998 418.135 757.348 417.955 756.758 417.595C756.168 417.225 755.698 416.715 755.348 416.065C755.008 415.405 754.838 414.66 754.838 413.83ZM761.603 413.86C761.603 413.29 761.483 412.795 761.243 412.375C761.013 411.955 760.708 411.635 760.328 411.415C759.948 411.195 759.538 411.085 759.098 411.085C758.658 411.085 758.248 411.195 757.868 411.415C757.488 411.625 757.178 411.94 756.938 412.36C756.708 412.77 756.593 413.26 756.593 413.83C756.593 414.4 756.708 414.9 756.938 415.33C757.178 415.76 757.488 416.09 757.868 416.32C758.258 416.54 758.668 416.65 759.098 416.65C759.538 416.65 759.948 416.54 760.328 416.32C760.708 416.1 761.013 415.78 761.243 415.36C761.483 414.93 761.603 414.43 761.603 413.86ZM765.004 413.86C765.004 413.01 765.174 412.265 765.514 411.625C765.864 410.975 766.344 410.475 766.954 410.125C767.564 409.775 768.264 409.6 769.054 409.6C770.054 409.6 770.879 409.84 771.529 410.32C772.189 410.79 772.634 411.465 772.864 412.345H771.019C770.869 411.935 770.629 411.615 770.299 411.385C769.969 411.155 769.554 411.04 769.054 411.04C768.354 411.04 767.794 411.29 767.374 411.79C766.964 412.28 766.759 412.97 766.759 413.86C766.759 414.75 766.964 415.445 767.374 415.945C767.794 416.445 768.354 416.695 769.054 416.695C770.044 416.695 770.699 416.26 771.019 415.39H772.864C772.624 416.23 772.174 416.9 771.514 417.4C770.854 417.89 770.034 418.135 769.054 418.135C768.264 418.135 767.564 417.96 766.954 417.61C766.344 417.25 765.864 416.75 765.514 416.11C765.174 415.46 765.004 414.71 765.004 413.86ZM782.143 413.665C782.143 413.975 782.123 414.255 782.083 414.505H775.768C775.818 415.165 776.063 415.695 776.503 416.095C776.943 416.495 777.483 416.695 778.123 416.695C779.043 416.695 779.693 416.31 780.073 415.54H781.918C781.668 416.3 781.213 416.925 780.553 417.415C779.903 417.895 779.093 418.135 778.123 418.135C777.333 418.135 776.623 417.96 775.993 417.61C775.373 417.25 774.883 416.75 774.523 416.11C774.173 415.46 773.998 414.71 773.998 413.86C773.998 413.01 774.168 412.265 774.508 411.625C774.858 410.975 775.343 410.475 775.963 410.125C776.593 409.775 777.313 409.6 778.123 409.6C778.903 409.6 779.598 409.77 780.208 410.11C780.818 410.45 781.293 410.93 781.633 411.55C781.973 412.16 782.143 412.865 782.143 413.665ZM780.358 413.125C780.348 412.495 780.123 411.99 779.683 411.61C779.243 411.23 778.698 411.04 778.048 411.04C777.458 411.04 776.953 411.23 776.533 411.61C776.113 411.98 775.863 412.485 775.783 413.125H780.358ZM785.536 410.965C785.826 410.565 786.221 410.24 786.721 409.99C787.231 409.73 787.796 409.6 788.416 409.6C789.146 409.6 789.806 409.775 790.396 410.125C790.986 410.475 791.451 410.975 791.791 411.625C792.131 412.265 792.301 413 792.301 413.83C792.301 414.66 792.131 415.405 791.791 416.065C791.451 416.715 790.981 417.225 790.381 417.595C789.791 417.955 789.136 418.135 788.416 418.135C787.776 418.135 787.206 418.01 786.706 417.76C786.216 417.51 785.826 417.19 785.536 416.8V418H783.826V406.9H785.536V410.965ZM790.561 413.83C790.561 413.26 790.441 412.77 790.201 412.36C789.971 411.94 789.661 411.625 789.271 411.415C788.891 411.195 788.481 411.085 788.041 411.085C787.611 411.085 787.201 411.195 786.811 411.415C786.431 411.635 786.121 411.955 785.881 412.375C785.651 412.795 785.536 413.29 785.536 413.86C785.536 414.43 785.651 414.93 785.881 415.36C786.121 415.78 786.431 416.1 786.811 416.32C787.201 416.54 787.611 416.65 788.041 416.65C788.481 416.65 788.891 416.54 789.271 416.32C789.661 416.09 789.971 415.76 790.201 415.33C790.441 414.9 790.561 414.4 790.561 413.83ZM797.577 418.135C796.797 418.135 796.092 417.96 795.462 417.61C794.832 417.25 794.337 416.75 793.977 416.11C793.617 415.46 793.437 414.71 793.437 413.86C793.437 413.02 793.622 412.275 793.992 411.625C794.362 410.975 794.867 410.475 795.507 410.125C796.147 409.775 796.862 409.6 797.652 409.6C798.442 409.6 799.157 409.775 799.797 410.125C800.437 410.475 800.942 410.975 801.312 411.625C801.682 412.275 801.867 413.02 801.867 413.86C801.867 414.7 801.677 415.445 801.297 416.095C800.917 416.745 800.397 417.25 799.737 417.61C799.087 417.96 798.367 418.135 797.577 418.135ZM797.577 416.65C798.017 416.65 798.427 416.545 798.807 416.335C799.197 416.125 799.512 415.81 799.752 415.39C799.992 414.97 800.112 414.46 800.112 413.86C800.112 413.26 799.997 412.755 799.767 412.345C799.537 411.925 799.232 411.61 798.852 411.4C798.472 411.19 798.062 411.085 797.622 411.085C797.182 411.085 796.772 411.19 796.392 411.4C796.022 411.61 795.727 411.925 795.507 412.345C795.287 412.755 795.177 413.26 795.177 413.86C795.177 414.75 795.402 415.44 795.852 415.93C796.312 416.41 796.887 416.65 797.577 416.65ZM807.143 418.135C806.363 418.135 805.658 417.96 805.028 417.61C804.398 417.25 803.903 416.75 803.543 416.11C803.183 415.46 803.003 414.71 803.003 413.86C803.003 413.02 803.188 412.275 803.558 411.625C803.928 410.975 804.433 410.475 805.073 410.125C805.713 409.775 806.428 409.6 807.218 409.6C808.008 409.6 808.723 409.775 809.363 410.125C810.003 410.475 810.508 410.975 810.878 411.625C811.248 412.275 811.433 413.02 811.433 413.86C811.433 414.7 811.243 415.445 810.863 416.095C810.483 416.745 809.963 417.25 809.303 417.61C808.653 417.96 807.933 418.135 807.143 418.135ZM807.143 416.65C807.583 416.65 807.993 416.545 808.373 416.335C808.763 416.125 809.078 415.81 809.318 415.39C809.558 414.97 809.678 414.46 809.678 413.86C809.678 413.26 809.563 412.755 809.333 412.345C809.103 411.925 808.798 411.61 808.418 411.4C808.038 411.19 807.628 411.085 807.188 411.085C806.748 411.085 806.338 411.19 805.958 411.4C805.588 411.61 805.293 411.925 805.073 412.345C804.853 412.755 804.743 413.26 804.743 413.86C804.743 414.75 804.968 415.44 805.418 415.93C805.878 416.41 806.453 416.65 807.143 416.65ZM816.393 413.875L820.203 418H817.893L814.833 414.445V418H813.123V406.9H814.833V413.35L817.833 409.735H820.203L816.393 413.875Z" fill="#0083FF"/>
<path fill-rule="evenodd" clip-rule="evenodd" d="M621 412.067C621 418.033 625.333 422.994 631 424V415.333H628V412H631V409.333C631 406.333 632.933 404.667 635.667 404.667C636.533 404.667 637.467 404.8 638.333 404.933V408H636.8C635.333 408 635 408.733 635 409.667V412H638.2L637.667 415.333H635V424C640.667 422.994 645 418.034 645 412.067C645 405.43 639.6 400 633 400C626.4 400 621 405.43 621 412.067Z" fill="#2975FF"/>
<path d="M633.26 656.41C633.513 656.45 633.743 656.553 633.95 656.72C634.163 656.887 634.33 657.093 634.45 657.34C634.577 657.587 634.64 657.85 634.64 658.13C634.64 658.483 634.55 658.803 634.37 659.09C634.19 659.37 633.927 659.593 633.58 659.76C633.24 659.92 632.837 660 632.37 660H629.77V653.03H632.27C632.743 653.03 633.147 653.11 633.48 653.27C633.813 653.423 634.063 653.633 634.23 653.9C634.397 654.167 634.48 654.467 634.48 654.8C634.48 655.213 634.367 655.557 634.14 655.83C633.92 656.097 633.627 656.29 633.26 656.41ZM630.68 656.04H632.21C632.637 656.04 632.967 655.94 633.2 655.74C633.433 655.54 633.55 655.263 633.55 654.91C633.55 654.557 633.433 654.28 633.2 654.08C632.967 653.88 632.63 653.78 632.19 653.78H630.68V656.04ZM632.29 659.25C632.743 659.25 633.097 659.143 633.35 658.93C633.603 658.717 633.73 658.42 633.73 658.04C633.73 657.653 633.597 657.35 633.33 657.13C633.063 656.903 632.707 656.79 632.26 656.79H630.68V659.25H632.29ZM640.903 657.05C640.903 657.223 640.893 657.407 640.873 657.6H636.493C636.526 658.14 636.709 658.563 637.043 658.87C637.383 659.17 637.793 659.32 638.273 659.32C638.666 659.32 638.993 659.23 639.253 659.05C639.519 658.863 639.706 658.617 639.813 658.31H640.793C640.646 658.837 640.353 659.267 639.913 659.6C639.473 659.927 638.926 660.09 638.273 660.09C637.753 660.09 637.286 659.973 636.873 659.74C636.466 659.507 636.146 659.177 635.913 658.75C635.679 658.317 635.563 657.817 635.563 657.25C635.563 656.683 635.676 656.187 635.903 655.76C636.129 655.333 636.446 655.007 636.853 654.78C637.266 654.547 637.739 654.43 638.273 654.43C638.793 654.43 639.253 654.543 639.653 654.77C640.053 654.997 640.359 655.31 640.573 655.71C640.793 656.103 640.903 656.55 640.903 657.05ZM639.963 656.86C639.963 656.513 639.886 656.217 639.733 655.97C639.579 655.717 639.369 655.527 639.103 655.4C638.843 655.267 638.553 655.2 638.233 655.2C637.773 655.2 637.379 655.347 637.053 655.64C636.733 655.933 636.549 656.34 636.503 656.86H639.963ZM643.014 652.6V660H642.104V652.6H643.014ZM649.425 654.52V660H648.515V659.19C648.342 659.47 648.098 659.69 647.785 659.85C647.478 660.003 647.138 660.08 646.765 660.08C646.338 660.08 645.955 659.993 645.615 659.82C645.275 659.64 645.005 659.373 644.805 659.02C644.612 658.667 644.515 658.237 644.515 657.73V654.52H645.415V657.61C645.415 658.15 645.552 658.567 645.825 658.86C646.098 659.147 646.472 659.29 646.945 659.29C647.432 659.29 647.815 659.14 648.095 658.84C648.375 658.54 648.515 658.103 648.515 657.53V654.52H649.425ZM657.551 654.42C657.978 654.42 658.358 654.51 658.691 654.69C659.025 654.863 659.288 655.127 659.481 655.48C659.675 655.833 659.771 656.263 659.771 656.77V660H658.871V656.9C658.871 656.353 658.735 655.937 658.461 655.65C658.195 655.357 657.831 655.21 657.371 655.21C656.898 655.21 656.521 655.363 656.241 655.67C655.961 655.97 655.821 656.407 655.821 656.98V660H654.921V656.9C654.921 656.353 654.785 655.937 654.511 655.65C654.245 655.357 653.881 655.21 653.421 655.21C652.948 655.21 652.571 655.363 652.291 655.67C652.011 655.97 651.871 656.407 651.871 656.98V660H650.961V654.52H651.871V655.31C652.051 655.023 652.291 654.803 652.591 654.65C652.898 654.497 653.235 654.42 653.601 654.42C654.061 654.42 654.468 654.523 654.821 654.73C655.175 654.937 655.438 655.24 655.611 655.64C655.765 655.253 656.018 654.953 656.371 654.74C656.725 654.527 657.118 654.42 657.551 654.42ZM664.84 655.53C665.02 655.217 665.287 654.957 665.64 654.75C666 654.537 666.417 654.43 666.89 654.43C667.377 654.43 667.817 654.547 668.21 654.78C668.61 655.013 668.923 655.343 669.15 655.77C669.377 656.19 669.49 656.68 669.49 657.24C669.49 657.793 669.377 658.287 669.15 658.72C668.923 659.153 668.61 659.49 668.21 659.73C667.817 659.97 667.377 660.09 666.89 660.09C666.423 660.09 666.01 659.987 665.65 659.78C665.297 659.567 665.027 659.303 664.84 658.99V662.6H663.93V654.52H664.84V655.53ZM668.56 657.24C668.56 656.827 668.477 656.467 668.31 656.16C668.143 655.853 667.917 655.62 667.63 655.46C667.35 655.3 667.04 655.22 666.7 655.22C666.367 655.22 666.057 655.303 665.77 655.47C665.49 655.63 665.263 655.867 665.09 656.18C664.923 656.487 664.84 656.843 664.84 657.25C664.84 657.663 664.923 658.027 665.09 658.34C665.263 658.647 665.49 658.883 665.77 659.05C666.057 659.21 666.367 659.29 666.7 659.29C667.04 659.29 667.35 659.21 667.63 659.05C667.917 658.883 668.143 658.647 668.31 658.34C668.477 658.027 668.56 657.66 668.56 657.24ZM675.548 654.52V660H674.638V659.19C674.465 659.47 674.221 659.69 673.908 659.85C673.601 660.003 673.261 660.08 672.888 660.08C672.461 660.08 672.078 659.993 671.738 659.82C671.398 659.64 671.128 659.373 670.928 659.02C670.735 658.667 670.638 658.237 670.638 657.73V654.52H671.538V657.61C671.538 658.15 671.675 658.567 671.948 658.86C672.221 659.147 672.595 659.29 673.068 659.29C673.555 659.29 673.938 659.14 674.218 658.84C674.498 658.54 674.638 658.103 674.638 657.53V654.52H675.548ZM679.754 654.42C680.421 654.42 680.961 654.623 681.374 655.03C681.788 655.43 681.994 656.01 681.994 656.77V660H681.094V656.9C681.094 656.353 680.958 655.937 680.684 655.65C680.411 655.357 680.038 655.21 679.564 655.21C679.084 655.21 678.701 655.36 678.414 655.66C678.134 655.96 677.994 656.397 677.994 656.97V660H677.084V654.52H677.994V655.3C678.174 655.02 678.418 654.803 678.724 654.65C679.038 654.497 679.381 654.42 679.754 654.42ZM688.201 654.52L684.901 662.58H683.961L685.041 659.94L682.831 654.52H683.841L685.561 658.96L687.261 654.52H688.201ZM688.776 657.24C688.776 656.68 688.889 656.19 689.116 655.77C689.342 655.343 689.652 655.013 690.046 654.78C690.446 654.547 690.889 654.43 691.376 654.43C691.856 654.43 692.272 654.533 692.626 654.74C692.979 654.947 693.242 655.207 693.416 655.52V654.52H694.336V660H693.416V658.98C693.236 659.3 692.966 659.567 692.606 659.78C692.252 659.987 691.839 660.09 691.366 660.09C690.879 660.09 690.439 659.97 690.046 659.73C689.652 659.49 689.342 659.153 689.116 658.72C688.889 658.287 688.776 657.793 688.776 657.24ZM693.416 657.25C693.416 656.837 693.332 656.477 693.166 656.17C692.999 655.863 692.772 655.63 692.486 655.47C692.206 655.303 691.896 655.22 691.556 655.22C691.216 655.22 690.906 655.3 690.626 655.46C690.346 655.62 690.122 655.853 689.956 656.16C689.789 656.467 689.706 656.827 689.706 657.24C689.706 657.66 689.789 658.027 689.956 658.34C690.122 658.647 690.346 658.883 690.626 659.05C690.906 659.21 691.216 659.29 691.556 659.29C691.896 659.29 692.206 659.21 692.486 659.05C692.772 658.883 692.999 658.647 693.166 658.34C693.332 658.027 693.416 657.663 693.416 657.25ZM698.2 657.24C698.2 656.68 698.313 656.19 698.54 655.77C698.766 655.343 699.076 655.013 699.47 654.78C699.87 654.547 700.313 654.43 700.8 654.43C701.28 654.43 701.696 654.533 702.05 654.74C702.403 654.947 702.666 655.207 702.84 655.52V654.52H703.76V660H702.84V658.98C702.66 659.3 702.39 659.567 702.03 659.78C701.676 659.987 701.263 660.09 700.79 660.09C700.303 660.09 699.863 659.97 699.47 659.73C699.076 659.49 698.766 659.153 698.54 658.72C698.313 658.287 698.2 657.793 698.2 657.24ZM702.84 657.25C702.84 656.837 702.756 656.477 702.59 656.17C702.423 655.863 702.196 655.63 701.91 655.47C701.63 655.303 701.32 655.22 700.98 655.22C700.64 655.22 700.33 655.3 700.05 655.46C699.77 655.62 699.546 655.853 699.38 656.16C699.213 656.467 699.13 656.827 699.13 657.24C699.13 657.66 699.213 658.027 699.38 658.34C699.546 658.647 699.77 658.883 700.05 659.05C700.33 659.21 700.64 659.29 700.98 659.29C701.32 659.29 701.63 659.21 701.91 659.05C702.196 658.883 702.423 658.647 702.59 658.34C702.756 658.027 702.84 657.663 702.84 657.25ZM708.357 660L706.207 657.58V660H705.297V652.6H706.207V656.95L708.317 654.52H709.587L707.007 657.25L709.597 660H708.357ZM715.304 654.52V660H714.394V659.19C714.22 659.47 713.977 659.69 713.664 659.85C713.357 660.003 713.017 660.08 712.644 660.08C712.217 660.08 711.834 659.993 711.494 659.82C711.154 659.64 710.884 659.373 710.684 659.02C710.49 658.667 710.394 658.237 710.394 657.73V654.52H711.294V657.61C711.294 658.15 711.43 658.567 711.704 658.86C711.977 659.147 712.35 659.29 712.824 659.29C713.31 659.29 713.694 659.14 713.974 658.84C714.254 658.54 714.394 658.103 714.394 657.53V654.52H715.304ZM719.51 654.42C720.177 654.42 720.717 654.623 721.13 655.03C721.544 655.43 721.75 656.01 721.75 656.77V660H720.85V656.9C720.85 656.353 720.714 655.937 720.44 655.65C720.167 655.357 719.794 655.21 719.32 655.21C718.84 655.21 718.457 655.36 718.17 655.66C717.89 655.96 717.75 656.397 717.75 656.97V660H716.84V654.52H717.75V655.3C717.93 655.02 718.174 654.803 718.48 654.65C718.794 654.497 719.137 654.42 719.51 654.42ZM725.017 652.94C725.677 652.94 726.21 653.127 726.617 653.5C727.023 653.873 727.227 654.373 727.227 655C727.227 655.7 727.01 656.22 726.577 656.56C726.143 656.893 725.557 657.06 724.817 657.06L724.787 658.01H723.997L723.957 656.43H724.247C724.907 656.43 725.423 656.33 725.797 656.13C726.17 655.93 726.357 655.553 726.357 655C726.357 654.6 726.237 654.283 725.997 654.05C725.757 653.817 725.433 653.7 725.027 653.7C724.613 653.7 724.287 653.813 724.047 654.04C723.813 654.26 723.697 654.563 723.697 654.95H722.837C722.837 654.55 722.927 654.2 723.107 653.9C723.287 653.593 723.54 653.357 723.867 653.19C724.2 653.023 724.583 652.94 725.017 652.94ZM724.387 660.06C724.213 660.06 724.067 660 723.947 659.88C723.827 659.76 723.767 659.613 723.767 659.44C723.767 659.267 723.827 659.12 723.947 659C724.067 658.88 724.213 658.82 724.387 658.82C724.553 658.82 724.693 658.88 724.807 659C724.927 659.12 724.987 659.267 724.987 659.44C724.987 659.613 724.927 659.76 724.807 659.88C724.693 660 724.553 660.06 724.387 660.06ZM733.317 653.03C734.077 653.03 734.734 653.173 735.287 653.46C735.847 653.74 736.274 654.143 736.567 654.67C736.867 655.197 737.017 655.817 737.017 656.53C737.017 657.243 736.867 657.863 736.567 658.39C736.274 658.91 735.847 659.31 735.287 659.59C734.734 659.863 734.077 660 733.317 660H731.147V653.03H733.317ZM733.317 659.25C734.217 659.25 734.904 659.013 735.377 658.54C735.85 658.06 736.087 657.39 736.087 656.53C736.087 655.663 735.847 654.987 735.367 654.5C734.894 654.013 734.21 653.77 733.317 653.77H732.057V659.25H733.317ZM737.877 657.24C737.877 656.68 737.991 656.19 738.217 655.77C738.444 655.343 738.754 655.013 739.147 654.78C739.547 654.547 739.991 654.43 740.477 654.43C740.957 654.43 741.374 654.533 741.727 654.74C742.081 654.947 742.344 655.207 742.517 655.52V654.52H743.437V660H742.517V658.98C742.337 659.3 742.067 659.567 741.707 659.78C741.354 659.987 740.941 660.09 740.467 660.09C739.981 660.09 739.541 659.97 739.147 659.73C738.754 659.49 738.444 659.153 738.217 658.72C737.991 658.287 737.877 657.793 737.877 657.24ZM742.517 657.25C742.517 656.837 742.434 656.477 742.267 656.17C742.101 655.863 741.874 655.63 741.587 655.47C741.307 655.303 740.997 655.22 740.657 655.22C740.317 655.22 740.007 655.3 739.727 655.46C739.447 655.62 739.224 655.853 739.057 656.16C738.891 656.467 738.807 656.827 738.807 657.24C738.807 657.66 738.891 658.027 739.057 658.34C739.224 658.647 739.447 658.883 739.727 659.05C740.007 659.21 740.317 659.29 740.657 659.29C740.997 659.29 741.307 659.21 741.587 659.05C741.874 658.883 742.101 658.647 742.267 658.34C742.434 658.027 742.517 657.663 742.517 657.25ZM747.205 655.27H746.055V660H745.145V655.27H744.435V654.52H745.145V654.13C745.145 653.517 745.302 653.07 745.615 652.79C745.935 652.503 746.445 652.36 747.145 652.36V653.12C746.745 653.12 746.462 653.2 746.295 653.36C746.135 653.513 746.055 653.77 746.055 654.13V654.52H747.205V655.27ZM749.376 655.27V658.5C749.376 658.767 749.433 658.957 749.546 659.07C749.659 659.177 749.856 659.23 750.136 659.23H750.806V660H749.986C749.479 660 749.099 659.883 748.846 659.65C748.593 659.417 748.466 659.033 748.466 658.5V655.27H747.756V654.52H748.466V653.14H749.376V654.52H750.806V655.27H749.376ZM751.569 657.24C751.569 656.68 751.682 656.19 751.909 655.77C752.135 655.343 752.445 655.013 752.839 654.78C753.239 654.547 753.682 654.43 754.169 654.43C754.649 654.43 755.065 654.533 755.419 654.74C755.772 654.947 756.035 655.207 756.209 655.52V654.52H757.129V660H756.209V658.98C756.029 659.3 755.759 659.567 755.399 659.78C755.045 659.987 754.632 660.09 754.159 660.09C753.672 660.09 753.232 659.97 752.839 659.73C752.445 659.49 752.135 659.153 751.909 658.72C751.682 658.287 751.569 657.793 751.569 657.24ZM756.209 657.25C756.209 656.837 756.125 656.477 755.959 656.17C755.792 655.863 755.565 655.63 755.279 655.47C754.999 655.303 754.689 655.22 754.349 655.22C754.009 655.22 753.699 655.3 753.419 655.46C753.139 655.62 752.915 655.853 752.749 656.16C752.582 656.467 752.499 656.827 752.499 657.24C752.499 657.66 752.582 658.027 752.749 658.34C752.915 658.647 753.139 658.883 753.419 659.05C753.699 659.21 754.009 659.29 754.349 659.29C754.689 659.29 754.999 659.21 755.279 659.05C755.565 658.883 755.792 658.647 755.959 658.34C756.125 658.027 756.209 657.663 756.209 657.25ZM759.576 655.41C759.736 655.097 759.963 654.853 760.256 654.68C760.556 654.507 760.92 654.42 761.346 654.42V655.36H761.106C760.086 655.36 759.576 655.913 759.576 657.02V660H758.666V654.52H759.576V655.41ZM767.273 660.07C766.813 660.07 766.4 659.99 766.033 659.83C765.673 659.663 765.39 659.437 765.183 659.15C764.976 658.857 764.87 658.52 764.863 658.14H765.833C765.866 658.467 766 658.743 766.233 658.97C766.473 659.19 766.82 659.3 767.273 659.3C767.706 659.3 768.046 659.193 768.293 658.98C768.546 658.76 768.673 658.48 768.673 658.14C768.673 657.873 768.6 657.657 768.453 657.49C768.306 657.323 768.123 657.197 767.903 657.11C767.683 657.023 767.386 656.93 767.013 656.83C766.553 656.71 766.183 656.59 765.903 656.47C765.63 656.35 765.393 656.163 765.193 655.91C765 655.65 764.903 655.303 764.903 654.87C764.903 654.49 765 654.153 765.193 653.86C765.386 653.567 765.656 653.34 766.003 653.18C766.356 653.02 766.76 652.94 767.213 652.94C767.866 652.94 768.4 653.103 768.813 653.43C769.233 653.757 769.47 654.19 769.523 654.73H768.523C768.49 654.463 768.35 654.23 768.103 654.03C767.856 653.823 767.53 653.72 767.123 653.72C766.743 653.72 766.433 653.82 766.193 654.02C765.953 654.213 765.833 654.487 765.833 654.84C765.833 655.093 765.903 655.3 766.043 655.46C766.19 655.62 766.366 655.743 766.573 655.83C766.786 655.91 767.083 656.003 767.463 656.11C767.923 656.237 768.293 656.363 768.573 656.49C768.853 656.61 769.093 656.8 769.293 657.06C769.493 657.313 769.593 657.66 769.593 658.1C769.593 658.44 769.503 658.76 769.323 659.06C769.143 659.36 768.876 659.603 768.523 659.79C768.17 659.977 767.753 660.07 767.273 660.07ZM775.932 657.05C775.932 657.223 775.922 657.407 775.902 657.6H771.522C771.555 658.14 771.739 658.563 772.072 658.87C772.412 659.17 772.822 659.32 773.302 659.32C773.695 659.32 774.022 659.23 774.282 659.05C774.549 658.863 774.735 658.617 774.842 658.31H775.822C775.675 658.837 775.382 659.267 774.942 659.6C774.502 659.927 773.955 660.09 773.302 660.09C772.782 660.09 772.315 659.973 771.902 659.74C771.495 659.507 771.175 659.177 770.942 658.75C770.709 658.317 770.592 657.817 770.592 657.25C770.592 656.683 770.705 656.187 770.932 655.76C771.159 655.333 771.475 655.007 771.882 654.78C772.295 654.547 772.769 654.43 773.302 654.43C773.822 654.43 774.282 654.543 774.682 654.77C775.082 654.997 775.389 655.31 775.602 655.71C775.822 656.103 775.932 656.55 775.932 657.05ZM774.992 656.86C774.992 656.513 774.915 656.217 774.762 655.97C774.609 655.717 774.399 655.527 774.132 655.4C773.872 655.267 773.582 655.2 773.262 655.2C772.802 655.2 772.409 655.347 772.082 655.64C771.762 655.933 771.579 656.34 771.532 656.86H774.992ZM780.193 660L778.043 657.58V660H777.133V652.6H778.043V656.95L780.153 654.52H781.423L778.843 657.25L781.433 660H780.193ZM781.94 657.24C781.94 656.68 782.053 656.19 782.28 655.77C782.506 655.343 782.816 655.013 783.21 654.78C783.61 654.547 784.053 654.43 784.54 654.43C785.02 654.43 785.436 654.533 785.79 654.74C786.143 654.947 786.406 655.207 786.58 655.52V654.52H787.5V660H786.58V658.98C786.4 659.3 786.13 659.567 785.77 659.78C785.416 659.987 785.003 660.09 784.53 660.09C784.043 660.09 783.603 659.97 783.21 659.73C782.816 659.49 782.506 659.153 782.28 658.72C782.053 658.287 781.94 657.793 781.94 657.24ZM786.58 657.25C786.58 656.837 786.496 656.477 786.33 656.17C786.163 655.863 785.936 655.63 785.65 655.47C785.37 655.303 785.06 655.22 784.72 655.22C784.38 655.22 784.07 655.3 783.79 655.46C783.51 655.62 783.286 655.853 783.12 656.16C782.953 656.467 782.87 656.827 782.87 657.24C782.87 657.66 782.953 658.027 783.12 658.34C783.286 658.647 783.51 658.883 783.79 659.05C784.07 659.21 784.38 659.29 784.72 659.29C785.06 659.29 785.37 659.21 785.65 659.05C785.936 658.883 786.163 658.647 786.33 658.34C786.496 658.027 786.58 657.663 786.58 657.25ZM789.948 655.41C790.108 655.097 790.334 654.853 790.628 654.68C790.928 654.507 791.291 654.42 791.718 654.42V655.36H791.478C790.458 655.36 789.948 655.913 789.948 657.02V660H789.038V654.52H789.948V655.41ZM792.428 657.24C792.428 656.68 792.541 656.19 792.768 655.77C792.995 655.343 793.305 655.013 793.698 654.78C794.098 654.547 794.541 654.43 795.028 654.43C795.508 654.43 795.925 654.533 796.278 654.74C796.631 654.947 796.895 655.207 797.068 655.52V654.52H797.988V660H797.068V658.98C796.888 659.3 796.618 659.567 796.258 659.78C795.905 659.987 795.491 660.09 795.018 660.09C794.531 660.09 794.091 659.97 793.698 659.73C793.305 659.49 792.995 659.153 792.768 658.72C792.541 658.287 792.428 657.793 792.428 657.24ZM797.068 657.25C797.068 656.837 796.985 656.477 796.818 656.17C796.651 655.863 796.425 655.63 796.138 655.47C795.858 655.303 795.548 655.22 795.208 655.22C794.868 655.22 794.558 655.3 794.278 655.46C793.998 655.62 793.775 655.853 793.608 656.16C793.441 656.467 793.358 656.827 793.358 657.24C793.358 657.66 793.441 658.027 793.608 658.34C793.775 658.647 793.998 658.883 794.278 659.05C794.558 659.21 794.868 659.29 795.208 659.29C795.548 659.29 795.858 659.21 796.138 659.05C796.425 658.883 796.651 658.647 796.818 658.34C796.985 658.027 797.068 657.663 797.068 657.25ZM802.196 654.42C802.863 654.42 803.403 654.623 803.816 655.03C804.229 655.43 804.436 656.01 804.436 656.77V660H803.536V656.9C803.536 656.353 803.399 655.937 803.126 655.65C802.853 655.357 802.479 655.21 802.006 655.21C801.526 655.21 801.143 655.36 800.856 655.66C800.576 655.96 800.436 656.397 800.436 656.97V660H799.526V654.52H800.436V655.3C800.616 655.02 800.859 654.803 801.166 654.65C801.479 654.497 801.823 654.42 802.196 654.42ZM808.182 654.43C808.656 654.43 809.069 654.533 809.422 654.74C809.782 654.947 810.049 655.207 810.222 655.52V654.52H811.142V660.12C811.142 660.62 811.036 661.063 810.822 661.45C810.609 661.843 810.302 662.15 809.902 662.37C809.509 662.59 809.049 662.7 808.522 662.7C807.802 662.7 807.202 662.53 806.722 662.19C806.242 661.85 805.959 661.387 805.872 660.8H806.772C806.872 661.133 807.079 661.4 807.392 661.6C807.706 661.807 808.082 661.91 808.522 661.91C809.022 661.91 809.429 661.753 809.742 661.44C810.062 661.127 810.222 660.687 810.222 660.12V658.97C810.042 659.29 809.776 659.557 809.422 659.77C809.069 659.983 808.656 660.09 808.182 660.09C807.696 660.09 807.252 659.97 806.852 659.73C806.459 659.49 806.149 659.153 805.922 658.72C805.696 658.287 805.582 657.793 805.582 657.24C805.582 656.68 805.696 656.19 805.922 655.77C806.149 655.343 806.459 655.013 806.852 654.78C807.252 654.547 807.696 654.43 808.182 654.43ZM810.222 657.25C810.222 656.837 810.139 656.477 809.972 656.17C809.806 655.863 809.579 655.63 809.292 655.47C809.012 655.303 808.702 655.22 808.362 655.22C808.022 655.22 807.712 655.3 807.432 655.46C807.152 655.62 806.929 655.853 806.762 656.16C806.596 656.467 806.512 656.827 806.512 657.24C806.512 657.66 806.596 658.027 806.762 658.34C806.929 658.647 807.152 658.883 807.432 659.05C807.712 659.21 808.022 659.29 808.362 659.29C808.702 659.29 809.012 659.21 809.292 659.05C809.579 658.883 809.806 658.647 809.972 658.34C810.139 658.027 810.222 657.663 810.222 657.25Z" fill="black"/>
<defs>
<linearGradient id="paint0_linear_113_14" x1="1400" y1="30.9999" x2="22" y2="875" gradientUnits="userSpaceOnUse">
<stop stop-color="#0083FF"/>
<stop offset="1" stop-color="white"/>
</linearGradient>
</defs>
</svg>
