<svg width="550" height="367" viewBox="0 0 550 367" fill="none" xmlns="http://www.w3.org/2000/svg">
<path d="M165.462 36.8721H121.162V97.4967H165.462V36.8721Z" fill="#F5F5F5"/>
<path d="M154.235 44.5061H109.934V105.131H154.235V44.5061Z" fill="#E0E0E0"/>
<path d="M363.051 127.409H362.765H361.907H358.57L346.052 127.453L302.866 127.6H302.749V127.483C302.275 125.86 302.191 124.147 302.504 122.485C302.817 120.823 303.518 119.259 304.55 117.92C305.582 116.58 306.916 115.503 308.443 114.777C309.971 114.051 311.648 113.695 313.338 113.74L313.184 113.953C312.911 113 312.797 112.009 312.847 111.019C312.898 109.361 313.38 107.745 314.247 106.33C315.114 104.915 316.335 103.751 317.79 102.953C319.205 102.215 320.779 101.833 322.376 101.842C323.972 101.851 325.542 102.25 326.949 103.004L326.722 103.085C327.503 101.275 328.652 99.6459 330.094 98.3017C331.537 96.9575 333.243 95.9269 335.104 95.2748C336.816 94.6274 338.643 94.3376 340.472 94.4234C342.301 94.5092 344.093 94.9686 345.737 95.7735C348.702 97.3368 351.034 99.8789 352.337 102.967C353.527 105.678 353.81 108.7 353.144 111.584L353.026 111.445C354.728 111.269 356.448 111.521 358.028 112.178C359.433 112.746 360.699 113.611 361.738 114.715C362.21 115.212 362.604 115.779 362.904 116.395C363.171 116.964 363.38 117.558 363.528 118.169C363.78 119.238 363.922 120.328 363.953 121.425C364.004 122.932 363.874 124.439 363.564 125.913C363.482 126.298 363.376 126.678 363.249 127.05L363.117 127.417" fill="#EBEBEB"/>
<path d="M478.236 98.5967C476.192 98.9377 474.285 99.8474 472.734 101.222C471.183 102.596 470.05 104.379 469.464 106.367C468.879 108.355 468.866 110.467 469.425 112.462C469.985 114.458 471.095 116.255 472.628 117.649C474.161 119.043 476.056 119.977 478.096 120.345C480.135 120.712 482.237 120.498 484.16 119.726C486.084 118.955 487.751 117.658 488.971 115.983C490.192 114.308 490.916 112.324 491.062 110.257L494.09 109.751L495.733 106.333L498.094 109.076L501.886 108.445L503.506 105.043L505.868 107.785L509.124 107.243L510.114 105.167L511.58 106.839L513.48 106.524L515.562 103.767L511.991 99.836L489.441 103.583C488.276 101.737 486.589 100.278 484.595 99.3902C482.6 98.5025 480.387 98.2264 478.236 98.5967ZM472.09 110.814C471.988 110.197 472.071 109.563 472.328 108.993C472.585 108.423 473.005 107.942 473.536 107.61C474.066 107.278 474.683 107.111 475.308 107.129C475.934 107.148 476.539 107.351 477.05 107.713C477.56 108.075 477.951 108.58 478.175 109.164C478.398 109.749 478.444 110.386 478.305 110.996C478.167 111.606 477.851 112.162 477.398 112.593C476.944 113.023 476.373 113.31 475.757 113.417C475.345 113.489 474.923 113.478 474.515 113.386C474.108 113.293 473.722 113.121 473.382 112.879C473.041 112.637 472.751 112.33 472.529 111.976C472.308 111.621 472.159 111.226 472.09 110.814Z" fill="#EBEBEB"/>
<path d="M467.038 182.959L468.402 207.966C468.425 208.395 468.61 208.8 468.921 209.097C469.232 209.394 469.644 209.561 470.074 209.565L515.064 209.887C515.286 209.889 515.505 209.847 515.711 209.765C515.916 209.682 516.103 209.559 516.261 209.404C516.419 209.248 516.545 209.064 516.632 208.86C516.718 208.656 516.764 208.437 516.766 208.215L516.905 188.753C516.907 188.53 516.865 188.309 516.781 188.103C516.697 187.896 516.573 187.709 516.416 187.55C516.259 187.392 516.073 187.267 515.867 187.181C515.661 187.095 515.441 187.051 515.218 187.051H487.55C487.328 187.052 487.109 187.008 486.905 186.923C486.701 186.837 486.516 186.711 486.361 186.553L481.588 181.786C481.274 181.473 480.85 181.294 480.407 181.287L468.739 181.207C468.511 181.204 468.285 181.249 468.074 181.337C467.863 181.425 467.672 181.555 467.513 181.718C467.354 181.882 467.23 182.077 467.148 182.29C467.067 182.503 467.029 182.731 467.038 182.959Z" fill="#EBEBEB"/>
<path d="M516.943 184.118L467.781 183.757L467.566 213.134L516.727 213.494L516.943 184.118Z" fill="#F5F5F5"/>
<path d="M463.855 186.362L467.382 217.015C467.411 217.28 467.536 217.525 467.733 217.703C467.931 217.882 468.187 217.981 468.453 217.983L516.361 218.328C516.634 218.331 516.897 218.23 517.099 218.047C517.3 217.863 517.425 217.61 517.447 217.338L520.087 186.721C520.1 186.572 520.082 186.422 520.034 186.28C519.986 186.138 519.908 186.007 519.807 185.897C519.705 185.786 519.582 185.698 519.445 185.638C519.307 185.578 519.159 185.548 519.009 185.548L464.933 185.152C464.779 185.151 464.628 185.183 464.487 185.245C464.347 185.307 464.222 185.398 464.12 185.513C464.018 185.628 463.941 185.763 463.896 185.909C463.85 186.055 463.836 186.21 463.855 186.362Z" fill="#EBEBEB"/>
<path d="M461.362 321.017C449.959 313.053 447.37 298.283 447.825 284.966C447.898 282.766 447.656 280.405 448.712 278.461C449.768 276.518 452.225 275.183 454.212 276.115C455.862 276.892 456.581 278.813 457.505 280.397C458.733 282.513 460.536 284.237 462.704 285.369C464.119 286.103 465.872 286.55 467.265 285.78C469.179 284.724 469.407 282.077 469.392 279.869C469.363 275.753 469.336 271.641 469.311 267.535C469.178 265.328 469.403 263.114 469.979 260.979C470.668 258.881 472.179 256.938 474.283 256.344C476.388 255.75 478.977 256.967 479.417 259.131C479.499 260.045 479.518 260.964 479.475 261.881C479.541 262.797 479.967 263.809 480.832 264.081C481.697 264.352 482.599 263.714 483.259 263.061C485.54 260.861 487.08 257.965 488.525 255.112C489.969 252.259 491.377 249.333 493.445 246.899C495.513 244.464 498.366 242.543 501.512 242.367C504.658 242.191 508.046 244.141 508.845 247.243C509.645 250.345 507.826 253.513 505.853 256.043C502.92 259.779 499.462 263.072 495.587 265.819C494.843 266.241 494.253 266.888 493.9 267.667C493.423 269.133 494.817 270.6 496.269 271.084C497.911 271.634 499.701 271.458 501.402 271.663C503.103 271.869 504.988 272.624 505.641 274.252C506.543 276.503 504.658 278.872 502.803 280.419C499.091 283.519 494.874 285.957 490.336 287.628C488.708 288.222 486.999 288.743 485.694 289.887C484.389 291.031 483.589 293.011 484.381 294.565C485.173 296.12 487.205 296.619 488.906 296.303C490.607 295.988 492.125 295.064 493.746 294.455C496.782 293.311 500.698 293.517 502.641 296.142C503.234 297.044 503.609 298.071 503.736 299.143C503.863 300.215 503.739 301.301 503.375 302.317C502.635 304.34 501.498 306.196 500.031 307.773C495.22 313.533 488.967 317.913 481.91 320.467C474.877 322.909 468.358 323.569 461.377 321.009" fill="#EBEBEB"/>
<path d="M461.186 330.873C461.807 324.709 463.015 318.62 464.794 312.686C467.003 305.453 469.626 298.352 472.648 291.419L474.987 285.949C475.764 284.152 476.527 282.37 477.385 280.676C479.038 277.423 480.872 274.264 482.878 271.216C484.77 268.283 486.669 265.584 488.466 263.069C490.262 260.553 491.993 258.243 493.65 256.205C496.255 252.958 499.114 249.925 502.201 247.133C503.286 246.151 504.159 245.417 504.753 244.933L505.435 244.376C505.507 244.307 505.589 244.247 505.677 244.2L505.464 244.413C505.296 244.552 505.083 244.75 504.804 244.992C504.225 245.505 503.338 246.261 502.304 247.258C499.271 250.079 496.452 253.121 493.87 256.359C492.228 258.405 490.526 260.722 488.737 263.237C486.948 265.753 485.07 268.473 483.186 271.392C481.2 274.449 479.384 277.612 477.744 280.867C476.894 282.553 476.131 284.313 475.361 286.117L473.014 291.588C470.002 298.526 467.377 305.626 465.153 312.855C463.37 318.763 462.142 324.824 461.486 330.961" fill="#E0E0E0"/>
<path d="M477.503 280.632C477.401 280.324 477.33 280.008 477.29 279.686C477.173 279.077 477.033 278.219 476.879 277.09C476.564 274.89 476.241 271.847 475.889 268.481C475.537 265.115 475.156 262.079 474.826 259.893C474.657 258.801 474.511 257.913 474.408 257.305C474.328 256.991 474.286 256.668 474.283 256.344C474.41 256.643 474.504 256.956 474.562 257.275C474.716 257.869 474.907 258.742 475.112 259.842C475.53 262.042 475.948 265.071 476.293 268.437C476.637 271.803 476.931 274.758 477.165 277.053C477.275 278.087 477.371 278.967 477.444 279.664C477.501 279.983 477.521 280.308 477.503 280.632Z" fill="#E0E0E0"/>
<path d="M505.882 275.323C505.509 275.408 505.128 275.454 504.746 275.462C504.012 275.528 502.964 275.616 501.666 275.763C499.07 276.049 495.491 276.562 491.575 277.295C487.659 278.029 484.132 278.872 481.602 279.539C480.333 279.869 479.314 280.163 478.61 280.361C478.249 280.482 477.878 280.573 477.502 280.632C477.843 280.458 478.199 280.315 478.566 280.207C479.255 279.957 480.267 279.627 481.499 279.261C484.014 278.527 487.534 277.64 491.465 276.892C494.821 276.246 498.209 275.774 501.614 275.477C502.92 275.359 503.976 275.315 504.709 275.301C505.1 275.278 505.492 275.286 505.882 275.323Z" fill="#E0E0E0"/>
<path d="M465.146 312.165C465.066 312.057 465 311.938 464.948 311.813C464.816 311.542 464.655 311.197 464.464 310.787C464.046 309.899 463.474 308.587 462.792 306.959C461.421 303.71 459.676 299.163 457.813 294.118C455.95 289.073 454.242 284.504 452.944 281.233C452.306 279.642 451.785 278.3 451.389 277.354L450.978 276.298C450.922 276.176 450.88 276.048 450.854 275.917C450.934 276.026 451 276.144 451.052 276.269L451.536 277.295C451.954 278.183 452.526 279.495 453.208 281.123C454.579 284.372 456.324 288.919 458.187 293.971C460.05 299.024 461.758 303.578 463.056 306.849L464.611 310.728L465.022 311.784C465.078 311.906 465.12 312.034 465.146 312.165Z" fill="#E0E0E0"/>
<path d="M502.854 300.007C502.736 300.074 502.611 300.126 502.48 300.161L501.38 300.527L497.346 301.84C493.936 302.948 489.243 304.524 484.066 306.24C478.888 307.956 474.166 309.54 470.734 310.574C469.018 311.095 467.624 311.498 466.656 311.755L465.542 312.048C465.413 312.088 465.28 312.115 465.146 312.129C465.263 312.059 465.388 312.004 465.52 311.968L466.612 311.608L470.653 310.296C474.063 309.188 478.72 307.612 483.934 305.852C489.148 304.092 493.826 302.559 497.258 301.525C498.974 301.004 500.368 300.601 501.336 300.344L502.458 300.051C502.588 300.022 502.721 300.008 502.854 300.007Z" fill="#E0E0E0"/>
<path d="M507.76 330.902C507.76 331.012 402.329 331.093 272.301 331.093C142.274 331.093 36.8134 331.012 36.8134 330.902C36.8134 330.792 142.223 330.733 272.301 330.733C402.38 330.733 507.76 330.799 507.76 330.902Z" fill="#263238"/>
<path d="M453.441 305.301C454.717 306.951 457.013 306.269 458.039 305.169C459.066 304.069 459.44 302.544 459.785 301.077C460.562 297.741 461.347 294.243 460.474 290.928C460.25 289.92 459.755 288.992 459.044 288.244C458.683 287.878 458.232 287.614 457.736 287.478C457.241 287.341 456.718 287.338 456.221 287.467C455.062 287.833 454.395 289.014 453.925 290.136C452.537 293.435 451.903 297.003 452.07 300.579C452.039 302.255 452.517 303.902 453.441 305.301Z" fill="#0083FF"/>
<g opacity="0.2">
<path opacity="0.2" d="M453.441 305.301C454.717 306.951 457.013 306.269 458.039 305.169C459.066 304.069 459.44 302.544 459.785 301.077C460.562 297.741 461.347 294.243 460.474 290.928C460.25 289.92 459.755 288.992 459.044 288.244C458.683 287.878 458.232 287.614 457.736 287.478C457.241 287.341 456.718 287.338 456.221 287.467C455.062 287.833 454.395 289.014 453.925 290.136C452.537 293.435 451.903 297.003 452.07 300.579C452.039 302.255 452.517 303.902 453.441 305.301Z" fill="black"/>
</g>
<path d="M458.333 313.72C460.288 312.677 462.527 312.289 464.72 312.613C465.91 312.662 467.051 313.106 467.961 313.874C468.805 314.71 469.032 316.243 468.159 317.042C467.589 317.466 466.889 317.681 466.179 317.651C464.478 317.717 462.579 317.511 461.273 318.604C460.54 319.22 460.063 320.217 459.154 320.555C458.695 320.684 458.207 320.661 457.763 320.489C457.319 320.317 456.942 320.006 456.69 319.601C456.207 318.773 456.06 317.792 456.279 316.859C456.356 316.213 456.581 315.593 456.938 315.049C457.294 314.504 457.771 314.049 458.333 313.72Z" fill="#0083FF"/>
<path d="M450.266 307.919C450.838 307.086 451.199 306.125 451.316 305.121C451.434 304.117 451.305 303.099 450.941 302.155C450.18 300.266 448.911 298.624 447.274 297.411C445.424 295.925 443.302 294.814 441.026 294.14C440.146 293.837 439.21 293.727 438.284 293.817C437.826 293.867 437.387 294.026 437.004 294.281C436.621 294.537 436.305 294.881 436.084 295.284C435.504 296.538 436.194 297.983 436.92 299.149C438.19 301.214 439.622 303.176 441.202 305.015C442.478 306.482 443.923 307.949 445.771 308.543C447.619 309.137 449.511 308.968 450.413 307.663" fill="#0083FF"/>
<path d="M454.667 331.056C454.716 330.8 454.738 330.539 454.733 330.279C454.733 329.707 454.799 328.995 454.835 328.145C454.872 327.294 454.967 326.187 455.151 325.021C455.367 323.756 455.683 322.51 456.097 321.295C456.501 320.084 457.074 318.937 457.798 317.885C458.39 317.03 459.167 316.318 460.071 315.803C460.68 315.455 461.342 315.207 462.029 315.069C462.278 315.047 462.524 314.997 462.763 314.923C462.502 314.892 462.239 314.892 461.978 314.923C461.262 315.012 460.569 315.231 459.932 315.568C458.979 316.072 458.158 316.793 457.534 317.673C456.776 318.74 456.181 319.914 455.767 321.156C455.347 322.388 455.035 323.654 454.835 324.94C454.684 325.987 454.598 327.043 454.579 328.101C454.579 329.003 454.579 329.736 454.579 330.235C454.576 330.511 454.605 330.787 454.667 331.056Z" fill="#263238"/>
<path d="M454.725 329.421C454.735 329.301 454.735 329.181 454.725 329.061C454.725 328.79 454.725 328.445 454.674 328.027C454.623 327.14 454.557 325.827 454.527 324.243C454.447 321.046 454.527 316.631 454.784 311.777C455.041 306.922 455.561 302.507 456.045 299.347C456.163 298.555 456.28 297.843 456.39 297.22C456.5 296.597 456.588 296.054 456.683 295.614C456.779 295.174 456.823 294.881 456.874 294.602C456.898 294.484 456.913 294.363 456.918 294.243C456.865 294.352 456.828 294.468 456.808 294.587L456.559 295.592C456.449 296.025 456.339 296.56 456.214 297.183C456.089 297.807 455.95 298.518 455.825 299.31C455.148 303.438 454.692 307.6 454.461 311.777C454.175 316.653 454.161 321.09 454.3 324.287C454.359 325.893 454.461 327.184 454.549 328.079L454.659 329.105C454.667 329.213 454.689 329.319 454.725 329.421Z" fill="#263238"/>
<path d="M454.314 320.892C454.322 320.534 454.3 320.176 454.248 319.821C454.138 318.848 453.979 317.882 453.772 316.925C453.469 315.505 453.082 314.104 452.613 312.73C452.054 311.039 451.375 309.39 450.582 307.795C449.2 304.856 447.297 302.192 444.964 299.933C444.559 299.548 444.13 299.188 443.681 298.855C443.483 298.709 443.307 298.562 443.131 298.445L442.64 298.137C442.34 297.94 442.029 297.762 441.708 297.601C442.79 298.374 443.826 299.209 444.81 300.102C447.063 302.385 448.908 305.036 450.266 307.941C451.056 309.521 451.737 311.153 452.305 312.825C452.78 314.188 453.186 315.573 453.522 316.976C453.808 318.171 453.984 319.176 454.102 319.836C454.143 320.193 454.214 320.546 454.314 320.892Z" fill="#263238"/>
<path d="M108.445 166.283H25.5344V221.811H108.445V166.283Z" fill="#FAFAFA"/>
<path d="M85.9173 199.965H83.7173V186.67C83.6639 185.17 83.0306 183.75 81.9506 182.707C80.8707 181.665 79.4285 181.083 77.9277 181.083C76.4268 181.083 74.9846 181.665 73.9047 182.707C72.8247 183.75 72.1914 185.17 72.138 186.67V199.965H69.938V186.67C70.001 184.591 70.8711 182.618 72.364 181.17C73.8568 179.722 75.855 178.912 77.935 178.912C80.015 178.912 82.0132 179.722 83.506 181.17C84.9989 182.618 85.869 184.591 85.932 186.67L85.9173 199.965Z" fill="#263238"/>
<path d="M86.3724 194.047H69.469C68.0961 194.047 66.983 195.16 66.983 196.533V205.597C66.983 206.97 68.0961 208.083 69.469 208.083H86.3724C87.7453 208.083 88.8584 206.97 88.8584 205.597V196.533C88.8584 195.16 87.7453 194.047 86.3724 194.047Z" fill="#263238"/>
<path d="M77.9239 201.065C77.5627 201.065 77.2097 200.958 76.9094 200.758C76.6091 200.557 76.3751 200.272 76.2369 199.938C76.0987 199.604 76.0625 199.237 76.133 198.883C76.2034 198.529 76.3774 198.204 76.6327 197.948C76.8881 197.693 77.2134 197.519 77.5677 197.448C77.9219 197.378 78.289 197.414 78.6227 197.552C78.9563 197.691 79.2415 197.925 79.4422 198.225C79.6428 198.525 79.7499 198.878 79.7499 199.239C79.7499 199.724 79.5575 200.188 79.2151 200.531C78.8726 200.873 78.4082 201.065 77.9239 201.065Z" fill="#455A64"/>
<path d="M78.4226 199.965H77.4253V203.727H78.4226V199.965Z" fill="#455A64"/>
<path d="M66.4403 199.804C68.024 199.106 69.368 197.959 70.3053 196.504C71.2426 195.049 71.7321 193.351 71.713 191.62C71.713 186.729 68.0463 182.747 63.4483 182.725C58.8503 182.703 55.1323 186.648 55.1103 191.525C55.0722 193.272 55.5554 194.992 56.4984 196.464C57.4414 197.936 58.8014 199.093 60.405 199.789C47.667 201.733 48.2096 215.6 48.2096 215.6L78.4156 215.739C78.4156 215.739 79.105 201.718 66.4403 199.804Z" fill="#0083FF"/>
<path d="M108.438 221.819C108.438 221.819 108.438 221.467 108.438 220.799C108.438 220.132 108.438 219.149 108.438 217.866C108.438 215.292 108.438 211.523 108.394 206.697C108.394 197.047 108.35 183.187 108.321 166.283L108.467 166.437H25.6007L25.7913 166.247C25.7913 186.047 25.7913 204.842 25.7913 221.782L25.6227 221.606L85.338 221.687L102.41 221.738H106.949H108.123H108.526H106.993H102.483L85.4553 221.789L25.6227 221.87H25.4467V221.701C25.4467 204.761 25.4467 185.951 25.4467 166.166V165.975H25.6447L108.548 166.019H108.702V166.166C108.702 183.106 108.643 197.003 108.621 206.675C108.621 211.486 108.621 215.248 108.585 217.815C108.585 219.083 108.585 220.051 108.585 220.748C108.585 221.445 108.438 221.819 108.438 221.819Z" fill="#263238"/>
<path d="M108.423 172.957C108.423 173.059 89.8699 173.147 66.9972 173.147C44.1245 173.147 25.5712 173.059 25.5712 172.957C25.5712 172.854 44.1172 172.766 66.9972 172.766C89.8772 172.766 108.423 172.854 108.423 172.957Z" fill="#263238"/>
<path d="M30.9909 169.627C30.9909 169.797 30.9406 169.963 30.8463 170.104C30.752 170.245 30.618 170.355 30.4612 170.42C30.3045 170.485 30.132 170.502 29.9655 170.469C29.7991 170.436 29.6462 170.354 29.5262 170.234C29.4062 170.114 29.3245 169.961 29.2914 169.795C29.2583 169.628 29.2753 169.456 29.3402 169.299C29.4052 169.142 29.5151 169.008 29.6562 168.914C29.7973 168.82 29.9632 168.769 30.1329 168.769C30.3605 168.769 30.5787 168.86 30.7396 169.021C30.9005 169.181 30.9909 169.4 30.9909 169.627Z" fill="#263238"/>
<path d="M33.7994 169.627C33.7994 169.855 33.709 170.073 33.5481 170.234C33.3872 170.395 33.1689 170.485 32.9414 170.485C32.7138 170.485 32.4956 170.395 32.3347 170.234C32.1738 170.073 32.0834 169.855 32.0834 169.627C32.0834 169.4 32.1738 169.181 32.3347 169.021C32.4956 168.86 32.7138 168.769 32.9414 168.769C33.1689 168.769 33.3872 168.86 33.5481 169.021C33.709 169.181 33.7994 169.4 33.7994 169.627Z" fill="#263238"/>
<path d="M36.8132 169.627C36.8131 169.796 36.7633 169.961 36.67 170.102C36.5766 170.242 36.4439 170.352 36.2884 170.418C36.1329 170.483 35.9615 170.501 35.7957 170.47C35.6299 170.439 35.477 170.359 35.3562 170.241C35.2354 170.124 35.152 169.973 35.1164 169.808C35.0809 169.643 35.0948 169.471 35.1563 169.314C35.2179 169.157 35.3245 169.021 35.4626 168.924C35.6008 168.828 35.7645 168.774 35.9332 168.769C36.0477 168.766 36.1616 168.786 36.2683 168.828C36.3749 168.87 36.4721 168.933 36.5541 169.013C36.6362 169.093 36.7013 169.188 36.7458 169.294C36.7903 169.399 36.8132 169.513 36.8132 169.627Z" fill="#263238"/>
<path d="M108.438 221.819C108.438 221.819 108.438 221.467 108.438 220.799C108.438 220.132 108.438 219.149 108.438 217.866C108.438 215.292 108.438 211.523 108.394 206.697C108.394 197.047 108.35 183.187 108.321 166.283L108.467 166.437H25.6007L25.7913 166.247C25.7913 186.047 25.7913 204.842 25.7913 221.782L25.6227 221.606L85.338 221.687L102.41 221.738H106.949H108.123H108.526H106.993H102.483L85.4553 221.789L25.6227 221.87H25.4467V221.701C25.4467 204.761 25.4467 185.951 25.4467 166.166V165.975H25.6447L108.548 166.019H108.702V166.166C108.702 183.106 108.643 197.003 108.621 206.675C108.621 211.486 108.621 215.248 108.585 217.815C108.585 219.083 108.585 220.051 108.585 220.748C108.585 221.445 108.438 221.819 108.438 221.819Z" fill="#263238"/>
<path d="M66.4471 223.667C66.3445 223.667 66.2565 223.256 66.2565 222.75C66.2565 222.244 66.3445 221.833 66.4471 221.833C66.5498 221.833 66.6451 222.244 66.6451 222.75C66.6451 223.256 66.5571 223.667 66.4471 223.667Z" fill="#263238"/>
<path d="M66.4473 231.675C66.2612 231.022 66.1965 230.341 66.2566 229.665C66.1961 228.992 66.2607 228.313 66.4473 227.663C66.6426 228.311 66.7099 228.991 66.6453 229.665C66.7095 230.342 66.6423 231.024 66.4473 231.675Z" fill="#263238"/>
<path d="M66.4473 239.697C66.2612 239.045 66.1965 238.364 66.2566 237.688C66.1961 237.015 66.2607 236.336 66.4473 235.686C66.6426 236.334 66.7099 237.014 66.6453 237.688C66.7095 238.364 66.6423 239.047 66.4473 239.697Z" fill="#263238"/>
<path d="M66.4473 247.72C66.2612 247.068 66.1965 246.387 66.2566 245.711C66.1961 245.037 66.2607 244.359 66.4473 243.709C66.6426 244.357 66.7099 245.037 66.6453 245.711C66.7095 246.387 66.6423 247.069 66.4473 247.72Z" fill="#263238"/>
<path d="M66.4473 255.743C66.2612 255.09 66.1965 254.409 66.2566 253.733C66.1961 253.06 66.2607 252.381 66.4473 251.731C66.6426 252.38 66.7099 253.06 66.6453 253.733C66.7095 254.41 66.6423 255.092 66.4473 255.743Z" fill="#263238"/>
<path d="M68.2805 261.587C67.6885 261.774 67.0649 261.839 66.4471 261.778L66.2565 261.587V260.898C66.2565 260.678 66.2565 260.48 66.3005 260.311C66.3005 259.981 66.3811 259.776 66.4325 259.776C66.4838 259.776 66.5351 259.981 66.5718 260.311C66.5718 260.48 66.5718 260.678 66.5718 260.898V261.243V261.587C66.4838 261.499 66.7551 261.778 66.3738 261.397C67.0157 261.326 67.6654 261.391 68.2805 261.587Z" fill="#263238"/>
<path d="M75.4893 261.587C74.9073 261.773 74.2934 261.838 73.6853 261.778C73.0797 261.838 72.4683 261.773 71.8887 261.587C72.4683 261.402 73.0797 261.337 73.6853 261.397C74.2934 261.337 74.9073 261.401 75.4893 261.587Z" fill="#263238"/>
<path d="M82.6975 261.587C82.1154 261.773 81.5015 261.838 80.8935 261.778C80.2854 261.838 79.6715 261.773 79.0895 261.587C79.6715 261.401 80.2854 261.337 80.8935 261.397C81.5015 261.337 82.1154 261.401 82.6975 261.587Z" fill="#263238"/>
<path d="M89.9061 261.587C89.3241 261.773 88.7101 261.838 88.1021 261.778C87.4941 261.838 86.8801 261.773 86.2981 261.587C86.8801 261.401 87.4941 261.337 88.1021 261.397C88.7101 261.337 89.3241 261.401 89.9061 261.587Z" fill="#263238"/>
<path d="M97.1083 261.587C95.9216 261.842 94.6944 261.842 93.5077 261.587C94.6944 261.333 95.9216 261.333 97.1083 261.587Z" fill="#263238"/>
<path d="M104.317 261.587C103.13 261.842 101.903 261.842 100.716 261.587C101.903 261.333 103.13 261.333 104.317 261.587Z" fill="#263238"/>
<path d="M111.525 261.587C110.336 261.842 109.107 261.842 107.917 261.587C109.107 261.333 110.336 261.333 111.525 261.587Z" fill="#263238"/>
<path d="M118.727 261.587C117.54 261.842 116.313 261.842 115.126 261.587C116.313 261.333 117.54 261.333 118.727 261.587Z" fill="#263238"/>
<path d="M125.935 261.587C124.749 261.842 123.521 261.842 122.335 261.587C123.521 261.333 124.749 261.333 125.935 261.587Z" fill="#263238"/>
<path d="M133.144 261.587C131.955 261.842 130.725 261.842 129.536 261.587C130.725 261.333 131.955 261.333 133.144 261.587Z" fill="#263238"/>
<path d="M140.346 261.587C139.159 261.842 137.932 261.842 136.745 261.587C137.932 261.333 139.159 261.333 140.346 261.587Z" fill="#263238"/>
<path d="M145.787 261.587C145.787 261.69 145.376 261.778 144.87 261.778C144.364 261.778 143.954 261.69 143.954 261.587C143.954 261.485 144.364 261.397 144.87 261.397C145.376 261.397 145.787 261.485 145.787 261.587Z" fill="#263238"/>
<path d="M146.644 53.8188H102.343V114.444H146.644V53.8188Z" fill="white"/>
<path d="M146.667 114.4C146.667 114.4 146.667 114.297 146.667 114.099C146.667 113.901 146.667 113.608 146.667 113.241C146.667 112.508 146.667 111.364 146.667 109.927C146.667 107.03 146.667 102.806 146.608 97.4599C146.608 86.7899 146.527 71.6613 146.476 53.7606L146.674 53.9586L102.381 54.0099L102.601 53.7899V114.415L102.425 114.239L134.596 114.305L143.55 114.349H145.904H146.725C146.725 114.349 146.469 114.349 145.948 114.349H143.623L134.706 114.4L102.439 114.517H102.256V114.334C102.256 97.3206 102.205 76.3546 102.175 53.7093V53.4893H102.403H146.696H146.901V53.6946C146.901 71.6466 146.85 86.8266 146.828 97.5259C146.828 102.843 146.828 107.059 146.784 109.934C146.784 111.357 146.784 112.449 146.784 113.205C146.784 113.564 146.784 113.843 146.784 114.041C146.757 114.164 146.717 114.284 146.667 114.4Z" fill="#263238"/>
<path d="M129.426 66C129.426 66.1247 124.608 66.22 118.661 66.2273C112.713 66.2347 107.895 66.1393 107.895 66.0147C107.895 65.89 112.713 65.7874 118.661 65.7874C124.608 65.7874 129.426 65.8754 129.426 66Z" fill="#263238"/>
<path d="M141.071 71.2578C141.071 71.3825 133.643 71.4851 124.483 71.4925C115.324 71.4998 107.895 71.4045 107.895 71.2798C107.895 71.1552 115.324 71.0525 124.483 71.0525C133.643 71.0525 141.071 71.1332 141.071 71.2578Z" fill="#263238"/>
<path d="M141.079 76.758C141.079 76.8753 133.65 76.978 124.491 76.9853C115.331 76.9927 107.903 76.8973 107.903 76.78C107.903 76.6627 115.331 76.5527 124.491 76.5453C133.65 76.538 141.079 76.6333 141.079 76.758Z" fill="#263238"/>
<path d="M141.078 82.2506C141.078 82.3753 133.657 82.478 124.498 82.4853C115.338 82.4926 107.91 82.3973 107.91 82.2726C107.91 82.148 115.331 82.0453 124.498 82.038C133.664 82.0306 141.078 82.1333 141.078 82.2506Z" fill="#263238"/>
<path d="M141.086 87.7433C141.086 87.868 133.657 87.9707 124.498 87.978C115.338 87.9853 107.91 87.89 107.91 87.7727C107.91 87.6553 115.338 87.5453 124.498 87.538C133.657 87.5307 141.086 87.626 141.086 87.7433Z" fill="#263238"/>
<path d="M141.086 93.2433C141.086 93.368 133.664 93.4706 124.505 93.478C115.346 93.4853 107.917 93.39 107.917 93.2653C107.917 93.1406 115.338 93.038 124.505 93.0306C133.672 93.0233 141.086 93.1333 141.086 93.2433Z" fill="#263238"/>
<path d="M141.093 98.736C141.093 98.8607 133.664 98.9633 124.505 98.9707C115.346 98.978 107.917 98.8827 107.917 98.7653C107.917 98.648 115.346 98.538 124.505 98.5307C133.664 98.5233 141.093 98.6187 141.093 98.736Z" fill="#263238"/>
<path d="M125.752 104.243C125.752 104.368 121.763 104.471 116.842 104.471C111.921 104.471 107.925 104.383 107.925 104.258C107.925 104.133 111.914 104.031 116.842 104.031C121.77 104.031 125.752 104.133 125.752 104.243Z" fill="#263238"/>
<path d="M142.794 118.837C147.764 118.837 151.792 114.808 151.792 109.839C151.792 104.869 147.764 100.841 142.794 100.841C137.825 100.841 133.796 104.869 133.796 109.839C133.796 114.808 137.825 118.837 142.794 118.837Z" fill="#0083FF"/>
<path d="M147.958 106.37C148.339 106.729 146.572 109.245 144.012 111.995C143.594 112.435 143.191 112.853 142.802 113.241L142.179 113.857L141.556 113.337C139.319 111.459 137.852 109.846 138.124 109.494C138.395 109.142 140.324 110.176 142.692 111.885L141.453 111.98C141.812 111.569 142.186 111.129 142.612 110.689C145.2 107.939 147.569 106.011 147.958 106.37Z" fill="#E0E0E0"/>
<path d="M121.14 117.751C120.885 116.542 120.885 115.294 121.14 114.085C121.394 115.294 121.394 116.542 121.14 117.751Z" fill="#263238"/>
<path d="M121.14 125.085C120.885 123.876 120.885 122.627 121.14 121.418C121.394 122.627 121.394 123.876 121.14 125.085Z" fill="#263238"/>
<path d="M121.14 132.418C120.885 131.209 120.885 129.96 121.14 128.751C121.394 129.96 121.394 131.209 121.14 132.418Z" fill="#263238"/>
<path d="M121.14 139.751C120.885 138.542 120.885 137.293 121.14 136.084C121.394 137.293 121.394 138.542 121.14 139.751Z" fill="#263238"/>
<path d="M121.14 147.085C120.885 145.876 120.885 144.627 121.14 143.418C121.394 144.627 121.394 145.876 121.14 147.085Z" fill="#263238"/>
<path d="M121.14 154.418C120.885 153.209 120.885 151.96 121.14 150.751C121.394 151.96 121.394 153.209 121.14 154.418Z" fill="#263238"/>
<path d="M121.14 161.751C120.885 160.542 120.885 159.293 121.14 158.084C121.394 159.293 121.394 160.542 121.14 161.751Z" fill="#263238"/>
<path d="M121.14 169.085C120.885 167.876 120.885 166.627 121.14 165.418C121.394 166.627 121.394 167.876 121.14 169.085Z" fill="#263238"/>
<path d="M124.666 172.876C124.074 173.062 123.451 173.127 122.833 173.067C122.261 173.081 121.689 173.041 121.124 172.949H121.044V172.898C121.044 172.817 121.088 172.773 121.11 172.773C121.132 172.773 121.161 172.817 121.183 172.898L121.11 172.832C121.674 172.733 122.246 172.691 122.818 172.707C123.439 172.638 124.068 172.696 124.666 172.876Z" fill="#263238"/>
<path d="M132 172.876C130.791 173.13 129.542 173.13 128.333 172.876C129.542 172.622 130.791 172.622 132 172.876Z" fill="#263238"/>
<path d="M139.333 172.876C138.124 173.13 136.876 173.13 135.667 172.876C136.876 172.622 138.124 172.622 139.333 172.876Z" fill="#263238"/>
<path d="M146.667 172.876C145.458 173.13 144.209 173.13 143 172.876C144.209 172.622 145.458 172.622 146.667 172.876Z" fill="#263238"/>
<path d="M154 172.876C152.791 173.13 151.542 173.13 150.333 172.876C151.542 172.622 152.791 172.622 154 172.876Z" fill="#263238"/>
<path d="M276.151 106.539C275.897 105.33 275.897 104.081 276.151 102.872C276.405 104.081 276.405 105.33 276.151 106.539Z" fill="#263238"/>
<path d="M276.151 113.872C275.897 112.663 275.897 111.414 276.151 110.205C276.405 111.414 276.405 112.663 276.151 113.872Z" fill="#263238"/>
<path d="M276.151 121.205C275.897 119.996 275.897 118.748 276.151 117.539C276.405 118.748 276.405 119.996 276.151 121.205Z" fill="#263238"/>
<path d="M276.151 128.531C275.897 127.322 275.897 126.074 276.151 124.865C276.405 126.074 276.405 127.322 276.151 128.531Z" fill="#263238"/>
<path d="M276.151 135.872C275.898 134.663 275.898 133.414 276.151 132.205C276.405 133.414 276.405 134.663 276.151 135.872Z" fill="#263238"/>
<path d="M276.151 143.205C275.897 141.996 275.897 140.748 276.151 139.539C276.405 140.748 276.405 141.996 276.151 143.205Z" fill="#263238"/>
<path d="M276.151 150.539C275.897 149.33 275.897 148.081 276.151 146.872C276.405 148.081 276.405 149.33 276.151 150.539Z" fill="#263238"/>
<path d="M276.151 157.872C275.897 156.663 275.897 155.414 276.151 154.205C276.405 155.414 276.405 156.663 276.151 157.872Z" fill="#263238"/>
<path d="M325.952 111.247H325.519H324.221H319.168L300.219 111.313L234.813 111.467H234.666L234.615 111.298C233.897 108.84 233.769 106.247 234.243 103.73C234.717 101.214 235.779 98.8448 237.343 96.8166C238.906 94.7884 240.927 93.1584 243.24 92.0595C245.553 90.9607 248.093 90.4241 250.653 90.4934L250.411 90.8088C250.009 89.3785 249.838 87.893 249.905 86.4088C250.103 81.3488 252.978 76.4648 257.392 74.2061C259.533 73.0866 261.916 72.508 264.332 72.5208C266.747 72.5336 269.124 73.1374 271.252 74.2794L270.915 74.4041C272.094 71.6679 273.829 69.2063 276.009 67.1752C278.189 65.1441 280.767 63.5878 283.58 62.6048C288.977 60.6394 294.961 60.8961 299.669 63.3381C304.147 65.7057 307.666 69.5513 309.628 74.2208C311.43 78.3239 311.863 82.8988 310.86 87.2668L310.676 87.0614C313.259 86.7877 315.87 87.1685 318.266 88.1688C320.395 89.0307 322.312 90.3442 323.884 92.0188C324.602 92.7667 325.199 93.6229 325.651 94.5561C326.055 95.4197 326.372 96.3212 326.597 97.2474C326.977 98.8617 327.194 100.51 327.242 102.168C327.323 104.452 327.123 106.738 326.648 108.973C326.524 109.551 326.367 110.122 326.179 110.682C326.047 111.063 325.974 111.247 325.974 111.247" fill="#0083FF"/>
<path d="M317.658 86.13H314.835V69.146C314.835 67.1836 314.055 65.3015 312.668 63.9139C311.28 62.5262 309.398 61.7467 307.435 61.7467C305.473 61.7467 303.591 62.5262 302.203 63.9139C300.816 65.3015 300.036 67.1836 300.036 69.146V86.13H297.213V69.146C297.213 66.4348 298.29 63.8346 300.207 61.9175C302.124 60.0004 304.724 58.9233 307.435 58.9233C310.147 58.9233 312.747 60.0004 314.664 61.9175C316.581 63.8346 317.658 66.4348 317.658 69.146V86.13Z" fill="#E0E0E0"/>
<path d="M318.927 78.5693H295.944C294.571 78.5693 293.458 79.6824 293.458 81.0553V94.0207C293.458 95.3937 294.571 96.5067 295.944 96.5067H318.927C320.3 96.5067 321.413 95.3937 321.413 94.0207V81.0553C321.413 79.6824 320.3 78.5693 318.927 78.5693Z" fill="#E0E0E0"/>
<path d="M307.435 87.538C306.972 87.5395 306.519 87.4033 306.133 87.1468C305.747 86.8903 305.446 86.5251 305.268 86.0973C305.09 85.6696 305.043 85.1986 305.133 84.7441C305.223 84.2897 305.446 83.8722 305.774 83.5445C306.101 83.2169 306.519 82.994 306.973 82.904C307.428 82.8139 307.899 82.8609 308.326 83.0389C308.754 83.2168 309.119 83.5178 309.376 83.9036C309.632 84.2894 309.769 84.7427 309.767 85.206C309.767 85.8245 309.521 86.4177 309.084 86.855C308.647 87.2923 308.054 87.538 307.435 87.538Z" fill="#455A64"/>
<path d="M308.073 86.1299H306.797V90.9332H308.073V86.1299Z" fill="#455A64"/>
<path d="M479.314 80.4906C481.417 78.5346 482.926 76.0262 483.669 73.2525C484.412 70.4788 484.359 67.5519 483.516 64.8069C482.673 62.062 481.074 59.6099 478.902 57.7314C476.73 55.853 474.073 54.6241 471.235 54.1855C468.397 53.7469 465.493 54.1163 462.856 55.2514C460.218 56.3864 457.953 58.2413 456.321 60.6037C454.688 62.966 453.754 65.7403 453.625 68.6089C453.496 71.4775 454.177 74.3245 455.591 76.8239L452.474 79.7572L453.208 84.8906L448.39 83.5999L444.496 87.2666L445.229 92.3999L440.396 91.0432L437.067 94.1452L437.522 97.2912L434.588 96.4699L432.667 98.2665L432.374 103.055L439.509 104.852L462.66 83.2479C465.401 84.4739 468.441 84.8661 471.402 84.3758C474.364 83.8855 477.116 82.5342 479.314 80.4906ZM477.056 61.6879C477.652 62.3232 478.046 63.1211 478.188 63.9806C478.33 64.8401 478.214 65.7224 477.854 66.5157C477.494 67.3091 476.907 67.9778 476.167 68.4371C475.427 68.8964 474.567 69.1257 473.696 69.0958C472.826 69.066 471.983 68.7784 471.276 68.2695C470.569 67.7605 470.029 67.0532 469.725 66.2371C469.42 65.4209 469.365 64.5327 469.565 63.685C469.766 62.8373 470.214 62.0682 470.852 61.4752C471.704 60.6833 472.835 60.2612 473.998 60.301C475.16 60.3409 476.26 60.8395 477.056 61.6879Z" fill="#263238"/>
<path d="M477.055 61.688C477.055 61.688 476.769 61.4167 476.183 61.0574C475.356 60.556 474.386 60.3444 473.425 60.456C472.645 60.5391 471.903 60.8378 471.283 61.3187C470.663 61.7996 470.19 62.4438 469.915 63.1788C469.641 63.9139 469.577 64.7109 469.73 65.4805C469.883 66.25 470.247 66.9617 470.782 67.5358C471.317 68.1099 472.001 68.5236 472.758 68.7306C473.515 68.9376 474.314 68.9298 475.067 68.7079C475.82 68.486 476.496 68.0589 477.019 67.4744C477.543 66.8899 477.893 66.1711 478.031 65.3987C478.206 64.4452 478.062 63.4604 477.62 62.5974C477.305 61.9887 477.026 61.71 477.055 61.688C477.085 61.666 477.136 61.7394 477.268 61.8787C477.455 62.076 477.618 62.2952 477.752 62.5314C478.272 63.4152 478.466 64.4527 478.302 65.4647C478.203 66.0589 477.987 66.6274 477.665 67.1368C477.344 67.6462 476.924 68.0862 476.43 68.4312C475.936 68.7761 475.378 69.019 474.789 69.1455C474.2 69.272 473.592 69.2797 473 69.168C472.045 68.9909 471.173 68.5107 470.512 67.7987C469.852 67.0867 469.438 66.1808 469.333 65.2154C469.262 64.6153 469.312 64.0072 469.481 63.4268C469.649 62.8465 469.932 62.3058 470.312 61.8367C470.693 61.3677 471.164 60.9798 471.698 60.696C472.231 60.4122 472.816 60.2384 473.418 60.1847C474.43 60.0864 475.445 60.3458 476.285 60.918C476.511 61.0683 476.718 61.2456 476.901 61.446C476.965 61.518 477.017 61.5997 477.055 61.688Z" fill="#263238"/>
<path d="M479.314 80.4907C479.247 80.5672 479.173 80.6383 479.094 80.7033L478.42 81.3047C477.513 82.0375 476.53 82.6694 475.486 83.1893C473.478 84.1497 471.286 84.6635 469.061 84.6951C466.835 84.7268 464.629 84.2756 462.594 83.3727H462.719L439.612 105.013L439.538 105.072H439.45L432.315 103.283L432.168 103.246V103.099C432.256 101.633 432.352 99.9753 432.454 98.318V98.2447L432.513 98.1933L434.456 96.3747L434.53 96.3087H434.632L437.566 97.1373L437.331 97.3427C437.192 96.36 437.038 95.282 436.876 94.1967V94.094L436.942 94.028L440.294 90.904L440.367 90.8307H440.47L445.302 92.1873L445.06 92.3927C444.826 90.7573 444.569 88.9973 444.327 87.2593V87.164L444.393 87.0907L445.427 86.13L448.287 83.4607L448.368 83.3873H448.47L453.303 84.744L453.061 84.9493C452.812 83.2138 452.567 81.5027 452.328 79.816V79.7207L452.401 79.6547L455.51 76.7213L455.474 76.9487C454.278 74.8153 453.598 72.4322 453.486 69.9893C453.431 68.8027 453.518 67.6137 453.743 66.4473C453.951 65.3014 454.293 64.1839 454.762 63.118C455.93 60.4103 457.85 58.0947 460.294 56.4462C462.739 54.7977 465.606 53.8856 468.553 53.8185C471.501 53.7513 474.406 54.5317 476.924 56.0671C479.441 57.6025 481.464 59.8283 482.754 62.48C483.966 64.9859 484.473 67.7745 484.22 70.5467C484.054 72.5986 483.47 74.5949 482.504 76.4133L482.218 76.956L481.91 77.44C481.698 77.748 481.529 78.056 481.324 78.3053C480.913 78.804 480.59 79.2513 480.282 79.5667L479.549 80.3L479.3 80.5273L479.527 80.2707L480.209 79.5373C480.51 79.222 480.818 78.804 481.214 78.276C481.412 78.0193 481.58 77.7113 481.778 77.4033L482.086 76.9193L482.358 76.3767C483.446 74.2519 484.023 71.9026 484.043 69.5155C484.064 67.1285 483.527 64.7697 482.475 62.6267C480.863 59.3845 478.144 56.8265 474.809 55.4155C471.475 54.0045 467.745 53.8337 464.296 54.934C462.249 55.5872 460.364 56.6685 458.767 58.1061C457.17 59.5437 455.898 61.3046 455.034 63.272C454.578 64.3123 454.245 65.4027 454.044 66.5207C453.823 67.6579 453.742 68.8178 453.802 69.9747C453.908 72.3626 454.576 74.6917 455.752 76.7727L455.818 76.8973L455.716 77L452.606 79.9333L452.665 79.772C452.91 81.4733 453.154 83.1844 453.398 84.9053L453.442 85.1913L453.164 85.118L448.331 83.7613L448.514 83.7173L445.654 86.3867L444.62 87.3473L444.679 87.186C444.936 88.9533 445.185 90.7133 445.412 92.3193L445.456 92.6053L445.178 92.532L440.345 91.1753L440.528 91.1313L437.177 94.2553L437.236 94.0867C437.39 95.172 437.544 96.25 437.69 97.2327V97.5187L437.419 97.4453L434.486 96.6167L434.662 96.5727L432.718 98.3913L432.777 98.2667C432.674 99.924 432.572 101.559 432.476 103.048L432.344 102.865L439.48 104.669H439.318L462.506 83.116L462.558 83.0647H462.631C464.638 83.9643 466.814 84.4221 469.013 84.4069C471.212 84.3917 473.382 83.904 475.376 82.9767C476.428 82.4773 477.424 81.8677 478.346 81.158C478.647 80.916 478.874 80.7253 479.036 80.586L479.314 80.4907Z" fill="#263238"/>
<path d="M478.801 78.7598C480.904 76.8039 482.413 74.2955 483.156 71.5218C483.899 68.748 483.846 65.8212 483.003 63.0762C482.16 60.3312 480.56 57.8792 478.389 56.0007C476.217 54.1223 473.56 52.8934 470.722 52.4548C467.884 52.0162 464.98 52.3856 462.343 53.5207C459.705 54.6557 457.44 56.5106 455.808 58.873C454.175 61.2353 453.241 64.0096 453.112 66.8782C452.983 69.7468 453.664 72.5938 455.078 75.0932L451.969 78.0265L452.702 83.1598L447.869 81.8032L443.975 85.4698L444.709 90.6032L439.876 89.2465L436.554 92.3998L437.009 95.5458L434.075 94.7245L432.132 96.5432L431.839 101.325L438.974 103.121L462.125 81.5245C464.869 82.7543 467.914 83.1479 470.88 82.6562C473.846 82.1644 476.601 80.8092 478.801 78.7598ZM476.543 59.9498C477.14 60.5848 477.535 61.3828 477.678 62.2425C477.821 63.1023 477.705 63.9852 477.345 64.7791C476.986 65.5731 476.399 66.2424 475.658 66.7021C474.918 67.1618 474.057 67.3913 473.186 67.3614C472.315 67.3315 471.473 67.0436 470.765 66.5342C470.058 66.0248 469.518 65.3168 469.214 64.5001C468.91 63.6833 468.855 62.7946 469.056 61.9467C469.258 61.0987 469.707 60.3297 470.346 59.7372C471.198 58.9475 472.327 58.5268 473.488 58.5666C474.649 58.6064 475.747 59.1037 476.543 59.9498Z" fill="#E0E0E0"/>
<path d="M476.542 59.9499C476.542 59.9499 476.256 59.6859 475.67 59.3266C474.844 58.8221 473.873 58.6079 472.912 58.7179C472.133 58.8023 471.392 59.1021 470.773 59.5838C470.154 60.0654 469.681 60.7099 469.408 61.445C469.134 62.1801 469.071 62.9768 469.225 63.7458C469.379 64.5149 469.744 65.2259 470.279 65.7993C470.814 66.3727 471.498 66.7858 472.255 66.9923C473.011 67.1988 473.81 67.1906 474.563 66.9686C475.315 66.7466 475.99 66.3195 476.513 65.7353C477.037 65.151 477.387 64.4326 477.525 63.6606C477.701 62.7087 477.554 61.7251 477.107 60.8666C476.791 60.2579 476.513 59.9792 476.542 59.9499C476.571 59.9206 476.623 60.0086 476.755 60.1406C476.942 60.3379 477.104 60.557 477.239 60.7932C477.758 61.6771 477.953 62.7146 477.789 63.7266C477.692 64.3232 477.478 64.8945 477.158 65.407C476.837 65.9196 476.418 66.3631 475.924 66.7114C475.43 67.0598 474.872 67.306 474.282 67.4357C473.691 67.5653 473.081 67.5758 472.487 67.4666C471.532 67.2857 470.661 66.8034 470.001 66.0906C469.341 65.3778 468.927 64.4721 468.82 63.5066C468.712 62.6105 468.878 61.7028 469.297 60.9032C469.645 60.2273 470.158 59.6504 470.789 59.226C471.42 58.8016 472.148 58.5436 472.905 58.4759C473.917 58.3819 474.93 58.641 475.772 59.2092C476 59.3572 476.207 59.5348 476.388 59.7372C476.501 59.8741 476.552 59.945 476.542 59.9499Z" fill="#263238"/>
<path d="M478.801 78.7599C478.731 78.8325 478.658 78.9011 478.581 78.9653L477.913 79.5666C477.007 80.2995 476.023 80.9315 474.98 81.4513C472.972 82.4117 470.78 82.9254 468.554 82.957C466.329 82.9887 464.123 82.5375 462.088 81.6346H462.213L439.076 103.253L439.01 103.319H438.915L431.779 101.53H431.633V101.383C431.721 99.9166 431.816 98.2519 431.919 96.5946V96.5212L431.97 96.4772C432.571 95.9126 433.239 95.2819 433.913 94.6586L433.994 94.5852H434.089L437.023 95.4066L436.788 95.6119C436.641 94.6293 436.487 93.5512 436.333 92.4659V92.3706L436.399 92.2972L439.751 89.1806L439.824 89.1073H439.927L444.759 90.4566L444.517 90.6693C444.283 89.0266 444.026 87.2739 443.784 85.5359V85.4406L443.857 85.3746L444.884 84.4066L447.744 81.7372L447.825 81.6639H447.927L452.76 83.0206L452.518 83.2332C452.269 81.4879 452.019 79.7719 451.785 78.0999V78.0046L451.858 77.9386L454.967 75.0052V75.2326C453.766 73.1011 453.083 70.7173 452.973 68.2732C452.875 65.9183 453.311 63.5717 454.249 61.4092C455.416 58.7016 457.336 56.3859 459.781 54.7374C462.225 53.0889 465.092 52.1769 468.04 52.1097C470.988 52.0425 473.893 52.823 476.41 54.3584C478.927 55.8938 480.951 58.1196 482.24 60.7713C483.459 63.26 483.978 66.0329 483.743 68.7939C483.578 70.846 482.994 72.8425 482.027 74.6606L481.749 75.2033L481.433 75.6872C481.221 76.0026 481.052 76.3033 480.854 76.5599C480.436 77.0586 480.121 77.4986 479.813 77.8139L479.079 78.5473C478.918 78.7086 478.83 78.7819 478.83 78.7819C478.83 78.7819 478.903 78.6866 479.057 78.5253L479.739 77.7919C480.04 77.4766 480.348 77.0586 480.751 76.5232C480.942 76.2666 481.111 75.9586 481.309 75.6506L481.617 75.1666L481.895 74.6239C482.755 72.8264 483.252 70.8772 483.358 68.8877C483.464 66.8981 483.178 64.9071 482.514 63.0283C481.851 61.1495 480.824 59.4198 479.493 57.9378C478.161 56.4559 476.55 55.2507 474.753 54.3912C472.955 53.5317 471.006 53.0347 469.017 52.9285C467.027 52.8223 465.036 53.109 463.157 53.7723C461.278 54.4355 459.549 55.4623 458.067 56.7941C456.585 58.1258 455.38 59.7364 454.52 61.5339C453.607 63.6486 453.186 65.9428 453.288 68.2439C453.394 70.6295 454.063 72.9563 455.239 75.0346L455.312 75.1666L455.202 75.2619L452.093 78.1952L452.151 78.0339C452.391 79.7353 452.635 81.4464 452.885 83.1673L452.929 83.4606L452.65 83.3799L447.817 82.0232L448.001 81.9792L445.141 84.6486L444.107 85.6166L444.165 85.4479C444.422 87.2152 444.671 88.9752 444.899 90.5812L444.943 90.8746L444.664 90.7939L439.846 89.4666L440.029 89.4226L436.678 92.5466L436.737 92.3853C436.891 93.4706 437.052 94.5853 437.191 95.5313L437.228 95.8099L436.957 95.7366L434.023 94.9079L434.199 94.8639L432.249 96.6826L432.307 96.5579C432.205 98.2152 432.102 99.8506 432.007 101.339L431.875 101.156L439.01 102.96L438.849 103.004L462 81.4439L462.059 81.3926H462.125C464.426 82.4217 466.943 82.8724 469.458 82.7052C471.326 82.5666 473.154 82.0947 474.855 81.3119C475.891 80.8048 476.874 80.1956 477.789 79.4932L478.478 78.9139L478.801 78.7599Z" fill="#263238"/>
<path d="M477.4 77.5646C478.153 76.7583 478.839 75.8926 479.453 74.9759C480.152 73.8889 480.681 72.702 481.023 71.4559C481.493 69.8108 481.643 68.0903 481.463 66.3886C481.253 64.3285 480.563 62.3464 479.446 60.6026C478.164 58.6002 476.372 56.9752 474.254 55.8946C473.118 55.3065 471.899 54.896 470.639 54.6773C469.989 54.5605 469.332 54.4846 468.673 54.4499C468 54.4404 467.326 54.4747 466.657 54.5526C463.85 54.876 461.221 56.0913 459.157 58.0198C457.092 59.9484 455.701 62.4885 455.187 65.2666C455.064 65.9281 454.983 66.5968 454.945 67.2686C454.934 67.9298 454.963 68.591 455.033 69.2486C455.173 70.512 455.499 71.7477 456.001 72.9153C456.93 75.1043 458.426 77.0057 460.335 78.4226C461.856 79.5437 463.597 80.3303 465.444 80.731C467.29 81.1316 469.2 81.1372 471.049 80.7473C472.317 80.4935 473.538 80.0484 474.672 79.4273C475.628 78.8753 476.54 78.2501 477.4 77.5573C477.4 77.5573 477.349 77.6159 477.246 77.7113L476.769 78.1366C476.515 78.3771 476.24 78.5954 475.948 78.7893C475.563 79.0596 475.162 79.3046 474.745 79.5226C473.602 80.1742 472.365 80.6466 471.079 80.9233C469.195 81.3409 467.244 81.3535 465.356 80.9603C463.467 80.5672 461.683 79.7771 460.123 78.6426C458.162 77.1967 456.62 75.2556 455.657 73.0179C455.138 71.8263 454.805 70.5627 454.667 69.2706C454.587 68.5991 454.555 67.9227 454.571 67.2466C454.601 66.5547 454.682 65.8659 454.813 65.1859C455.343 62.3306 456.775 59.7207 458.899 57.7404C461.023 55.7602 463.727 54.5142 466.613 54.1859C467.299 54.1066 467.99 54.0748 468.681 54.0906C469.357 54.1241 470.031 54.2025 470.697 54.3253C471.992 54.5568 473.243 54.9846 474.408 55.5939C476.574 56.7083 478.402 58.382 479.703 60.4413C480.838 62.2277 481.532 64.2588 481.727 66.3666C481.889 68.0943 481.717 69.8371 481.221 71.4999C480.855 72.7582 480.299 73.9528 479.571 75.0419C479.316 75.4441 479.032 75.8265 478.72 76.1859C478.498 76.4515 478.252 76.697 477.987 76.9193L477.525 77.3666C477.459 77.5206 477.4 77.5719 477.4 77.5646Z" fill="#263238"/>
<path d="M476.777 66.7333C476.777 66.7333 477.1 66.4033 477.51 65.7213C478.014 64.9067 478.276 63.9665 478.269 63.009C478.261 62.0515 477.983 61.1156 477.466 60.3093C476.983 59.5594 476.307 58.9538 475.508 58.5567C474.637 58.1081 473.65 57.9342 472.678 58.058C471.629 58.178 470.647 58.6309 469.875 59.3502C469.103 60.0695 468.581 61.0174 468.388 62.0547C468.199 63.019 468.304 64.0177 468.688 64.922C468.963 65.5645 469.368 66.143 469.878 66.6212C470.387 67.0994 470.991 67.4668 471.649 67.7004C472.308 67.934 473.008 68.0285 473.705 67.9782C474.402 67.9279 475.081 67.7337 475.699 67.408C476.432 67.0267 476.733 66.6747 476.762 66.7333C476.792 66.792 476.696 66.8287 476.535 66.9753C476.314 67.1919 476.068 67.3814 475.802 67.54C474.931 68.0416 473.934 68.2801 472.93 68.2268C471.927 68.1734 470.96 67.8304 470.148 67.2393C469.336 66.6512 468.708 65.8449 468.337 64.9141C467.966 63.9834 467.866 62.9664 468.05 61.9813C468.257 60.8652 468.817 59.8451 469.647 59.0713C470.478 58.2976 471.535 57.8112 472.663 57.684C473.363 57.5997 474.072 57.6569 474.749 57.8522C475.426 58.0475 476.057 58.377 476.604 58.8209C477.152 59.2649 477.604 59.8144 477.935 60.4366C478.266 61.0589 478.468 61.7413 478.53 62.4433C478.64 63.6294 478.334 64.8167 477.664 65.802C477.486 66.0681 477.28 66.314 477.048 66.5353C476.968 66.6144 476.877 66.6811 476.777 66.7333Z" fill="#263238"/>
<path d="M437.067 102.278C436.994 102.204 442.201 97.2251 448.705 91.1605C455.21 85.0958 460.541 80.2338 460.615 80.3145C460.688 80.3951 455.481 85.3671 448.969 91.4391C442.457 97.5111 437.163 102.358 437.067 102.278Z" fill="#263238"/>
<path d="M414.561 168.527C413.352 168.782 412.103 168.782 410.894 168.527C412.103 168.273 413.352 168.273 414.561 168.527Z" fill="#263238"/>
<path d="M421.894 168.527C420.685 168.782 419.436 168.782 418.227 168.527C419.436 168.273 420.685 168.273 421.894 168.527Z" fill="#263238"/>
<path d="M429.228 168.527C428.019 168.782 426.77 168.782 425.561 168.527C426.77 168.273 428.019 168.273 429.228 168.527Z" fill="#263238"/>
<path d="M436.561 168.527C435.352 168.782 434.103 168.782 432.894 168.527C434.103 168.273 435.352 168.273 436.561 168.527Z" fill="#263238"/>
<path d="M443.894 168.527C442.685 168.782 441.437 168.782 440.228 168.527C441.437 168.273 442.685 168.273 443.894 168.527Z" fill="#263238"/>
<path d="M451.228 168.527C450.019 168.782 448.77 168.782 447.561 168.527C448.77 168.273 450.019 168.273 451.228 168.527Z" fill="#263238"/>
<path d="M457.454 167.42C457.527 167.42 457.601 167.875 457.63 168.527V168.667H457.447H456.713C456.096 168.727 455.472 168.662 454.88 168.476C455.472 168.29 456.096 168.225 456.713 168.285H457.447L457.271 168.461C457.307 167.875 457.373 167.42 457.454 167.42Z" fill="#263238"/>
<path d="M457.454 160.087C457.708 161.296 457.708 162.544 457.454 163.753C457.2 162.544 457.2 161.296 457.454 160.087Z" fill="#263238"/>
<path d="M457.454 152.753C457.708 153.962 457.708 155.211 457.454 156.42C457.2 155.211 457.2 153.962 457.454 152.753Z" fill="#263238"/>
<path d="M457.454 145.42C457.708 146.629 457.708 147.878 457.454 149.087C457.2 147.878 457.2 146.629 457.454 145.42Z" fill="#263238"/>
<path d="M457.454 138.087C457.708 139.296 457.708 140.544 457.454 141.753C457.2 140.544 457.2 139.296 457.454 138.087Z" fill="#263238"/>
<path d="M457.454 130.753C457.708 131.962 457.708 133.211 457.454 134.42C457.2 133.211 457.2 131.962 457.454 130.753Z" fill="#263238"/>
<path d="M457.454 123.42C457.708 124.629 457.708 125.878 457.454 127.087C457.2 125.878 457.2 124.629 457.454 123.42Z" fill="#263238"/>
<path d="M457.454 116.087C457.708 117.296 457.708 118.544 457.454 119.753C457.2 118.544 457.2 117.296 457.454 116.087Z" fill="#263238"/>
<path d="M457.454 108.753C457.708 109.962 457.708 111.211 457.454 112.42C457.2 111.211 457.2 109.962 457.454 108.753Z" fill="#263238"/>
<path d="M457.454 101.42C457.708 102.629 457.708 103.878 457.454 105.087C457.2 103.878 457.2 102.629 457.454 101.42Z" fill="#263238"/>
<path d="M457.454 94.0867C457.708 95.2957 457.708 96.5443 457.454 97.7533C457.2 96.5443 457.2 95.2957 457.454 94.0867Z" fill="#263238"/>
<path d="M402.468 241.619C401.259 241.873 400.01 241.873 398.801 241.619C400.01 241.364 401.259 241.364 402.468 241.619Z" fill="#263238"/>
<path d="M409.801 241.619C408.592 241.873 407.343 241.873 406.134 241.619C407.343 241.364 408.592 241.364 409.801 241.619Z" fill="#263238"/>
<path d="M417.134 241.619C415.925 241.873 414.677 241.873 413.468 241.619C414.677 241.364 415.925 241.364 417.134 241.619Z" fill="#263238"/>
<path d="M424.468 241.619C423.259 241.873 422.01 241.873 420.801 241.619C422.01 241.364 423.259 241.364 424.468 241.619Z" fill="#263238"/>
<path d="M431.801 241.619C430.592 241.873 429.344 241.873 428.135 241.619C429.344 241.364 430.592 241.364 431.801 241.619Z" fill="#263238"/>
<path d="M439.134 241.619C437.925 241.873 436.677 241.873 435.468 241.619C436.677 241.364 437.925 241.364 439.134 241.619Z" fill="#263238"/>
<path d="M446.468 241.619C445.259 241.873 444.01 241.873 442.801 241.619C444.01 241.364 445.259 241.364 446.468 241.619Z" fill="#263238"/>
<path d="M453.801 241.619C452.592 241.873 451.344 241.873 450.135 241.619C451.344 241.364 452.592 241.364 453.801 241.619Z" fill="#263238"/>
<path d="M461.134 241.619C459.925 241.873 458.677 241.873 457.468 241.619C458.677 241.364 459.925 241.364 461.134 241.619Z" fill="#263238"/>
<path d="M468.468 241.619C467.259 241.873 466.01 241.873 464.801 241.619C466.01 241.364 467.259 241.364 468.468 241.619Z" fill="#263238"/>
<path d="M475.119 240.937C475.185 240.937 475.229 241.201 475.266 241.626V241.758H475.104C474.796 241.758 474.371 241.795 473.96 241.795C473.343 241.859 472.718 241.794 472.127 241.604C472.719 241.418 473.343 241.353 473.96 241.413C474.4 241.413 474.796 241.413 475.104 241.457L474.958 241.604C475.002 241.201 475.06 240.937 475.119 240.937Z" fill="#263238"/>
<path d="M475.2 233.604C475.385 234.196 475.445 234.82 475.376 235.437C475.431 236.056 475.358 236.68 475.163 237.27C474.982 236.677 474.925 236.053 474.994 235.437C474.939 234.818 475.009 234.195 475.2 233.604Z" fill="#263238"/>
<path d="M475.266 226.27C475.447 226.863 475.507 227.487 475.442 228.103C475.497 228.723 475.425 229.347 475.229 229.937C475.049 229.343 474.991 228.72 475.061 228.103C475.005 227.485 475.075 226.861 475.266 226.27Z" fill="#263238"/>
<path d="M475.339 218.937C475.52 219.53 475.579 220.153 475.515 220.77C475.566 221.389 475.493 222.012 475.302 222.603C475.122 222.01 475.062 221.387 475.126 220.77C475.076 220.151 475.148 219.528 475.339 218.937Z" fill="#263238"/>
<path d="M451.073 195.954L452.422 220.733C452.443 221.16 452.626 221.561 452.935 221.856C453.243 222.151 453.653 222.316 454.08 222.317L498.674 222.647C499.118 222.649 499.545 222.475 499.861 222.163C500.177 221.851 500.356 221.427 500.36 220.983L500.5 201.696C500.502 201.475 500.46 201.256 500.377 201.052C500.293 200.847 500.171 200.661 500.015 200.504C499.86 200.347 499.675 200.223 499.471 200.138C499.267 200.053 499.048 200.009 498.828 200.009H471.401C470.958 200.009 470.533 199.832 470.22 199.518L465.49 194.788C465.337 194.633 465.154 194.51 464.953 194.425C464.751 194.341 464.535 194.297 464.317 194.297L452.752 194.209C452.526 194.209 452.302 194.254 452.094 194.343C451.886 194.431 451.698 194.561 451.541 194.724C451.384 194.887 451.262 195.08 451.181 195.291C451.101 195.503 451.064 195.728 451.073 195.954Z" fill="#0083FF"/>
<path d="M500.531 197.095L451.803 196.737L451.589 225.85L500.318 226.207L500.531 197.095Z" fill="#F5F5F5"/>
<path d="M447.912 199.32L451.41 229.709C451.438 229.972 451.562 230.215 451.758 230.391C451.955 230.567 452.21 230.664 452.474 230.663L499.957 231.015C500.229 231.017 500.491 230.917 500.692 230.733C500.892 230.549 501.015 230.296 501.035 230.025L503.653 199.679C503.665 199.531 503.646 199.382 503.598 199.242C503.55 199.101 503.473 198.972 503.373 198.862C503.272 198.753 503.15 198.665 503.014 198.605C502.878 198.545 502.731 198.514 502.582 198.513L448.99 198.125C448.838 198.124 448.688 198.155 448.549 198.216C448.41 198.278 448.285 198.368 448.183 198.481C448.082 198.594 448.005 198.727 447.958 198.871C447.911 199.016 447.896 199.169 447.912 199.32Z" fill="#0083FF"/>
<path d="M408.115 152.071H162.675C156.774 152.071 151.991 156.855 151.991 162.756V317.827C151.991 323.728 156.774 328.511 162.675 328.511H408.115C414.016 328.511 418.799 323.728 418.799 317.827V162.756C418.799 156.855 414.016 152.071 408.115 152.071Z" fill="#263238"/>
<path d="M140.8 315.465H429.902V317.849C429.902 321.311 428.527 324.631 426.079 327.079C423.631 329.527 420.311 330.902 416.849 330.902H153.89C150.428 330.902 147.108 329.527 144.66 327.079C142.212 324.631 140.837 321.311 140.837 317.849V315.465H140.8Z" fill="#263238"/>
<path d="M410.894 159.082H159.155V308.081H410.894V159.082Z" fill="#455A64"/>
<path d="M259.094 315.465L262.68 321.171H313.156L316.492 315.465H259.094Z" fill="#455A64"/>
<path d="M403.833 164.127H166.739C165.414 164.127 164.341 165.201 164.341 166.525V305.206C164.341 306.53 165.414 307.604 166.739 307.604H403.833C405.157 307.604 406.231 306.53 406.231 305.206V166.525C406.231 165.201 405.157 164.127 403.833 164.127Z" fill="#EBEBEB"/>
<path d="M406.231 174.643H164.341V307.611H406.231V174.643Z" fill="#FAFAFA"/>
<path d="M184.177 169.671C184.177 170.055 184.063 170.429 183.85 170.748C183.637 171.066 183.334 171.314 182.98 171.461C182.626 171.607 182.236 171.645 181.86 171.57C181.485 171.494 181.14 171.309 180.869 171.038C180.599 170.766 180.415 170.421 180.341 170.045C180.267 169.669 180.307 169.279 180.454 168.925C180.602 168.572 180.851 168.27 181.171 168.058C181.49 167.846 181.865 167.734 182.248 167.735C182.502 167.735 182.753 167.785 182.988 167.883C183.222 167.98 183.435 168.123 183.615 168.303C183.794 168.483 183.936 168.696 184.032 168.931C184.129 169.166 184.178 169.417 184.177 169.671Z" fill="#263238"/>
<path d="M172.473 169.671C172.473 170.054 172.359 170.429 172.147 170.747C171.934 171.065 171.631 171.313 171.278 171.46C170.924 171.607 170.535 171.645 170.159 171.57C169.784 171.495 169.439 171.311 169.168 171.04C168.897 170.77 168.713 170.425 168.638 170.049C168.563 169.674 168.602 169.284 168.748 168.93C168.895 168.577 169.143 168.274 169.461 168.062C169.78 167.849 170.154 167.735 170.537 167.735C171.05 167.735 171.543 167.939 171.906 168.302C172.269 168.665 172.473 169.158 172.473 169.671Z" fill="#263238"/>
<path d="M178.09 169.671C178.09 170.055 177.976 170.429 177.763 170.748C177.55 171.066 177.247 171.314 176.893 171.461C176.539 171.607 176.149 171.645 175.773 171.57C175.398 171.494 175.053 171.309 174.782 171.038C174.512 170.766 174.328 170.421 174.254 170.045C174.18 169.669 174.22 169.279 174.367 168.925C174.515 168.572 174.764 168.27 175.084 168.058C175.403 167.846 175.778 167.734 176.161 167.735C176.415 167.735 176.666 167.785 176.901 167.883C177.135 167.98 177.348 168.123 177.527 168.303C177.707 168.483 177.849 168.696 177.945 168.931C178.042 169.166 178.091 169.417 178.09 169.671Z" fill="#263238"/>
<path d="M416.533 315.465C416.533 315.561 357.317 315.641 284.284 315.641C211.251 315.641 152.013 315.561 152.013 315.465C152.013 315.37 211.222 315.289 284.284 315.289C357.346 315.289 416.533 315.37 416.533 315.465Z" fill="#455A64"/>
<path d="M236.302 241.626H181.104V245.322H236.302V241.626Z" fill="#E0E0E0"/>
<path d="M307.597 190.359H252.399V194.055H307.597V190.359Z" fill="#E0E0E0"/>
<path d="M389.694 204.109C389.694 204.204 358.96 204.285 321.046 204.285C283.133 204.285 252.399 204.204 252.399 204.109C252.399 204.013 283.133 203.94 321.046 203.94C358.96 203.94 389.694 204.013 389.694 204.109Z" fill="#E0E0E0"/>
<path d="M389.694 212.175C389.694 212.271 358.96 212.344 321.046 212.344C283.133 212.344 252.399 212.271 252.399 212.175C252.399 212.08 283.133 211.999 321.046 211.999C358.96 211.999 389.694 212.08 389.694 212.175Z" fill="#E0E0E0"/>
<path d="M389.694 220.235C389.694 220.33 358.96 220.411 321.046 220.411C283.133 220.411 252.399 220.33 252.399 220.235C252.399 220.139 283.133 220.066 321.046 220.066C358.96 220.066 389.694 220.139 389.694 220.235Z" fill="#E0E0E0"/>
<path d="M389.694 228.301C389.694 228.397 358.96 228.47 321.046 228.47C283.133 228.47 252.399 228.397 252.399 228.301C252.399 228.206 283.133 228.125 321.046 228.125C358.96 228.125 389.694 228.206 389.694 228.301Z" fill="#E0E0E0"/>
<path d="M389.694 236.361C389.694 236.456 358.96 236.537 321.046 236.537C283.133 236.537 252.399 236.456 252.399 236.361C252.399 236.265 283.133 236.192 321.046 236.192C358.96 236.192 389.694 236.265 389.694 236.361Z" fill="#E0E0E0"/>
<path d="M305.991 244.427C305.991 244.523 293.994 244.596 279.195 244.596C264.396 244.596 252.399 244.523 252.399 244.427C252.399 244.332 264.396 244.251 279.195 244.251C293.994 244.251 305.991 244.332 305.991 244.427Z" fill="#E0E0E0"/>
<path d="M388.667 260.069C388.667 260.165 368.463 260.245 343.552 260.245C318.641 260.245 298.43 260.165 298.43 260.069C298.43 259.974 318.626 259.901 343.552 259.901C368.478 259.901 388.667 259.974 388.667 260.069Z" fill="#E0E0E0"/>
<path d="M388.667 268.635C388.667 268.73 368.463 268.803 343.552 268.803C318.641 268.803 298.43 268.73 298.43 268.635C298.43 268.539 318.626 268.458 343.552 268.458C368.478 268.458 388.667 268.539 388.667 268.635Z" fill="#E0E0E0"/>
<path d="M388.667 277.2C388.667 277.295 368.463 277.369 343.552 277.369C318.641 277.369 298.467 277.288 298.467 277.2C298.467 277.112 318.663 277.024 343.589 277.024C368.515 277.024 388.667 277.097 388.667 277.2Z" fill="#E0E0E0"/>
<path d="M388.667 285.75C388.667 285.846 368.463 285.919 343.552 285.919C318.641 285.919 298.43 285.846 298.43 285.75C298.43 285.655 318.626 285.574 343.552 285.574C368.478 285.574 388.667 285.655 388.667 285.75Z" fill="#E0E0E0"/>
<path d="M236.442 259.255C236.442 259.351 224.401 259.424 209.543 259.424C194.686 259.424 182.645 259.351 182.645 259.255C182.645 259.16 194.686 259.079 209.543 259.079C224.401 259.079 236.442 259.16 236.442 259.255Z" fill="#E0E0E0"/>
<path d="M236.442 265.973C236.442 266.068 224.401 266.149 209.543 266.149C194.686 266.149 182.645 266.068 182.645 265.973C182.645 265.877 194.686 265.804 209.543 265.804C224.401 265.804 236.442 265.877 236.442 265.973Z" fill="#E0E0E0"/>
<path d="M236.442 272.697C236.442 272.793 224.401 272.873 209.543 272.873C194.686 272.873 182.645 272.793 182.645 272.697C182.645 272.602 194.686 272.521 209.543 272.521C224.401 272.521 236.442 272.602 236.442 272.697Z" fill="#E0E0E0"/>
<path d="M236.442 279.4C236.442 279.495 224.401 279.569 209.543 279.569C194.686 279.569 182.645 279.495 182.645 279.4C182.645 279.305 194.686 279.224 209.543 279.224C224.401 279.224 236.442 279.327 236.442 279.4Z" fill="#E0E0E0"/>
<path d="M236.442 286.139C236.442 286.235 224.401 286.315 209.543 286.315C194.686 286.315 182.645 286.235 182.645 286.139C182.645 286.044 194.686 285.971 209.543 285.971C224.401 285.971 236.442 286.044 236.442 286.139Z" fill="#E0E0E0"/>
<path d="M291.522 255.992H252.362V293.883H291.522V255.992Z" fill="#F5F5F5"/>
<path d="M255.398 290.635L266.237 271.135L275.096 283.602L280.486 276.98L288.494 290.635H255.398Z" fill="#EBEBEB"/>
<path d="M278.872 267.344C278.873 267.903 278.709 268.45 278.399 268.915C278.09 269.381 277.649 269.744 277.133 269.958C276.616 270.173 276.048 270.229 275.5 270.121C274.951 270.012 274.448 269.743 274.052 269.348C273.657 268.952 273.388 268.449 273.279 267.9C273.171 267.352 273.227 266.784 273.442 266.267C273.656 265.751 274.019 265.31 274.485 265.001C274.95 264.691 275.497 264.526 276.056 264.528C276.803 264.528 277.519 264.825 278.047 265.353C278.575 265.881 278.872 266.597 278.872 267.344Z" fill="#EBEBEB"/>
<path d="M288.493 290.745C288.486 290.691 288.486 290.637 288.493 290.583C288.493 290.473 288.493 290.327 288.493 290.143C288.493 289.74 288.493 289.175 288.493 288.442C288.493 286.939 288.493 284.775 288.449 282.003C288.449 276.467 288.405 268.591 288.369 259.123L288.53 259.285H255.442L255.625 259.101V267.667C255.625 270.453 255.625 273.181 255.625 275.829C255.625 281.138 255.625 286.154 255.625 290.774L255.464 290.605L279.385 290.693L286.132 290.73H287.921H288.391H288.552H287.958H286.198L279.488 290.767L255.464 290.855H255.295V290.693C255.295 286.073 255.295 281.057 255.295 275.748C255.295 273.101 255.295 270.373 255.295 267.586V259.138L255.486 258.947H288.574H288.735V259.101C288.699 268.635 288.669 276.525 288.655 282.084C288.655 284.827 288.618 286.99 288.611 288.486C288.611 289.205 288.611 289.762 288.611 290.158C288.611 290.334 288.611 290.473 288.611 290.583C288.577 290.641 288.538 290.695 288.493 290.745Z" fill="#EBEBEB"/>
<path d="M235.261 184.052H182.146V235.444H235.261V184.052Z" fill="#F5F5F5"/>
<path d="M186.259 231.044L200.955 204.6L212.974 221.503L220.278 212.527L231.139 231.044H186.259Z" fill="#E0E0E0"/>
<path d="M218.093 199.467C218.093 200.222 217.869 200.961 217.449 201.589C217.029 202.218 216.433 202.707 215.735 202.997C215.036 203.286 214.268 203.361 213.527 203.214C212.786 203.067 212.105 202.703 211.571 202.168C211.037 201.634 210.673 200.953 210.525 200.212C210.378 199.471 210.453 198.703 210.743 198.005C211.032 197.306 211.521 196.71 212.15 196.29C212.778 195.87 213.517 195.646 214.272 195.646C215.286 195.646 216.258 196.049 216.974 196.765C217.691 197.482 218.093 198.453 218.093 199.467Z" fill="#E0E0E0"/>
<path d="M231.139 231.191C231.139 231.191 231.139 231.117 231.139 230.978C231.139 230.839 231.139 230.626 231.139 230.377C231.139 229.834 231.139 229.064 231.139 228.067C231.139 226.028 231.103 223.08 231.081 219.34C231.081 211.831 231.015 201.146 230.971 188.313L231.183 188.525L186.311 188.562C186.252 188.613 186.787 188.085 186.56 188.32V199.848C186.56 203.627 186.56 207.318 186.56 210.921C186.56 218.115 186.56 224.921 186.56 231.183L186.34 230.963L218.79 231.073L227.942 231.132H230.377H231H231.22H231.029H230.421H228.037L218.937 231.191L186.34 231.301H186.12V231.081C186.12 224.818 186.12 218.013 186.12 210.819C186.12 207.22 186.12 203.529 186.12 199.745V188.327C185.893 188.547 186.428 188.005 186.377 188.063L231.249 188.1H231.469V188.32C231.425 201.212 231.389 211.948 231.359 219.487C231.359 223.205 231.315 226.138 231.301 228.162C231.301 229.137 231.301 229.9 231.301 230.435C231.301 230.677 231.301 230.861 231.301 231.007C231.262 231.08 231.207 231.143 231.139 231.191Z" fill="#E0E0E0"/>
<path d="M242.381 203.581L245.007 208.897L250.873 209.748L246.627 213.891L247.625 219.736L242.381 216.979L237.13 219.736L238.135 213.891L233.889 209.748L239.756 208.897L242.381 203.581Z" fill="#0083FF"/>
<path d="M260.862 185.101L263.487 190.417L269.354 191.268L265.108 195.411L266.112 201.256L260.862 198.491L255.611 201.256L256.616 195.411L252.37 191.268L258.236 190.417L260.862 185.101Z" fill="#0083FF"/>
<path d="M285.56 177.848L288.185 183.165L294.052 184.015L289.806 188.151L290.811 193.996L285.56 191.239L280.309 193.996L281.314 188.151L277.068 184.015L282.935 183.165L285.56 177.848Z" fill="#0083FF"/>
<path d="M311.124 185.277L313.75 190.593L319.616 191.444L315.37 195.58L316.375 201.425L311.124 198.667L305.874 201.425L306.878 195.58L302.632 191.444L308.499 190.593L311.124 185.277Z" fill="#0083FF"/>
<path d="M328.739 202.891L331.364 208.208L337.231 209.059L332.985 213.202L333.99 219.039L328.739 216.282L323.495 219.039L324.493 213.202L320.247 209.059L326.114 208.208L328.739 202.891Z" fill="#0083FF"/>
<path d="M335.133 228.455L337.759 233.772L343.625 234.623L339.379 238.759L340.377 244.603L335.133 241.846L329.883 244.603L330.887 238.759L326.641 234.623L332.508 233.772L335.133 228.455Z" fill="#0083FF"/>
<path d="M328.914 253.843L331.54 259.16L337.406 260.011L333.16 264.154L334.165 269.999L328.914 267.234L323.664 269.999L324.668 264.154L320.422 260.011L326.289 259.16L328.914 253.843Z" fill="#0083FF"/>
<path d="M310.2 271.465L312.826 276.782L318.692 277.633L314.446 281.769L315.451 287.613L310.2 284.856L304.957 287.613L305.954 281.769L301.716 277.633L307.582 276.782L310.2 271.465Z" fill="#0083FF"/>
<path d="M285.061 278.725L287.687 284.042L293.553 284.893L289.307 289.036L290.312 294.873L285.061 292.116L279.818 294.873L280.815 289.036L276.569 284.893L282.436 284.042L285.061 278.725Z" fill="#0083FF"/>
<path d="M261.052 271.473L263.677 276.789L269.544 277.64L265.298 281.776L266.302 287.621L261.052 284.863L255.808 287.621L256.806 281.776L252.56 277.64L258.434 276.789L261.052 271.473Z" fill="#0083FF"/>
<path d="M242.059 253.381L244.677 258.698L250.543 259.556L246.305 263.692L247.302 269.537L242.059 266.779L236.808 269.537L237.813 263.692L233.567 259.556L239.433 258.698L242.059 253.381Z" fill="#0083FF"/>
<path d="M235.664 228.485L238.289 233.801L244.156 234.652L239.91 238.795L240.915 244.633L235.664 241.875L230.413 244.633L231.418 238.795L227.172 234.652L233.039 233.801L235.664 228.485Z" fill="#0083FF"/>
<path d="M303.666 246.723H298.533V218.783C298.533 215.62 297.276 212.587 295.04 210.351C292.804 208.115 289.771 206.859 286.609 206.859C283.446 206.859 280.413 208.115 278.177 210.351C275.941 212.587 274.685 215.62 274.685 218.783V246.723H269.551V218.783C269.551 216.543 269.993 214.325 270.85 212.255C271.707 210.186 272.963 208.305 274.547 206.721C276.131 205.137 278.012 203.881 280.081 203.024C282.151 202.167 284.369 201.725 286.609 201.725C288.849 201.725 291.067 202.167 293.136 203.024C295.206 203.881 297.086 205.137 298.67 206.721C300.254 208.305 301.51 210.186 302.368 212.255C303.225 214.325 303.666 216.543 303.666 218.783V246.723Z" fill="#263238"/>
<path d="M305.338 234.292H267.879C265.526 234.292 263.618 236.2 263.618 238.553V259.534C263.618 261.887 265.526 263.794 267.879 263.794H305.338C307.691 263.794 309.598 261.887 309.598 259.534V238.553C309.598 236.2 307.691 234.292 305.338 234.292Z" fill="#0083FF"/>
<path d="M290.452 245.197C290.452 245.957 290.226 246.7 289.804 247.332C289.382 247.964 288.782 248.456 288.079 248.747C287.377 249.038 286.605 249.114 285.859 248.966C285.114 248.818 284.429 248.452 283.892 247.914C283.354 247.377 282.988 246.692 282.84 245.947C282.692 245.201 282.768 244.429 283.059 243.727C283.35 243.024 283.842 242.424 284.474 242.002C285.106 241.58 285.849 241.354 286.609 241.354C287.628 241.354 288.605 241.759 289.326 242.48C290.047 243.201 290.452 244.178 290.452 245.197Z" fill="#263238"/>
<path d="M287.657 246.723H285.56V254.628H287.657V246.723Z" fill="#263238"/>
<path d="M266.068 260.993C265.966 260.993 265.878 256.073 265.878 249.993C265.878 243.914 265.966 238.993 266.068 238.993C266.171 238.993 266.259 243.914 266.259 249.993C266.259 256.073 266.2 260.993 266.068 260.993Z" fill="#FAFAFA"/>
<path d="M283.602 250.125C283.602 250.125 283.419 250.067 283.147 249.869C282.767 249.584 282.433 249.243 282.157 248.857C281.682 248.224 281.352 247.494 281.19 246.72C281.028 245.945 281.039 245.144 281.222 244.374C281.404 243.604 281.754 242.884 282.247 242.264C282.739 241.645 283.362 241.142 284.071 240.79C284.493 240.57 284.945 240.417 285.413 240.335C285.583 240.3 285.757 240.3 285.927 240.335C285.335 240.537 284.759 240.782 284.203 241.069C283.551 241.427 282.982 241.919 282.531 242.511C282.081 243.103 281.759 243.783 281.587 244.507C281.415 245.23 281.397 245.982 281.533 246.714C281.669 247.445 281.956 248.14 282.377 248.754C282.748 249.243 283.158 249.702 283.602 250.125Z" fill="#FAFAFA"/>
<path d="M124.864 221.195C124.347 222.874 124.388 224.675 124.982 226.329C125.583 227.967 126.36 229.536 127.299 231.007C128.509 228.077 129.55 225.08 130.416 222.031C130.555 221.711 130.612 221.361 130.583 221.013C130.553 220.665 130.438 220.329 130.247 220.037C130.045 219.869 129.81 219.747 129.557 219.677C129.304 219.607 129.04 219.593 128.78 219.633C127.218 219.728 125.736 220.36 124.586 221.423" fill="#263238"/>
<path d="M60.1989 303.453L48.2015 330.873H64.7162L76.4789 303.233L60.1989 303.453Z" fill="#263238"/>
<path d="M131.537 330.55C147.722 325.189 136.627 303.783 136.627 303.783L65.8821 310.435C63.1656 310.435 60.5598 311.511 58.6354 313.429C56.7111 315.346 55.6252 317.948 55.6155 320.665C55.6155 323.387 56.6971 325.999 58.6225 327.924C60.5479 329.85 63.1593 330.931 65.8821 330.931L131.603 330.579" fill="#455A64"/>
<path d="M147.627 330.902C163.401 325.578 153.002 303.769 153.002 303.769L84.0687 310.266C77.3367 310.354 74.0441 313.603 74.0441 320.481C74.0441 326.128 76.1414 330.895 84.0467 330.748L147.656 330.909" fill="#455A64"/>
<path d="M132.087 307.391H131.897H131.317L129.117 307.479L121.007 307.883L94.2474 309.349C92.9348 309.415 91.6441 309.525 90.3754 309.547C89.1068 309.569 87.8381 309.621 86.6061 309.694C85.3741 309.767 84.1641 309.863 82.9394 309.987C81.7625 310.073 80.6028 310.32 79.4928 310.721C78.4186 311.123 77.4415 311.748 76.6254 312.554C75.8496 313.349 75.2543 314.302 74.8801 315.348C74.5273 316.323 74.2814 317.334 74.1468 318.362C74.0163 319.307 73.9526 320.26 73.9561 321.215C73.929 322.861 74.2385 324.495 74.8654 326.018C75.3421 327.151 76.0781 328.155 77.0141 328.951C77.5864 329.443 78.2489 329.819 78.9648 330.059C79.4488 330.213 79.4634 330.161 78.9648 329.985C78.2714 329.719 77.6308 329.332 77.0728 328.841C76.1777 328.045 75.4776 327.054 75.0268 325.945C74.4306 324.446 74.1437 322.842 74.1834 321.229C74.1877 320.289 74.2587 319.351 74.3961 318.421C74.5306 317.419 74.7766 316.435 75.1294 315.487C75.4859 314.487 76.0594 313.578 76.8088 312.825C77.596 312.052 78.5383 311.455 79.5734 311.073C80.6623 310.695 81.7969 310.466 82.9468 310.391C84.1201 310.273 85.3301 310.178 86.5621 310.112C87.7941 310.046 89.0408 309.987 90.3168 309.965C91.5928 309.943 92.8834 309.841 94.1888 309.775L120.999 308.154L129.11 307.633L131.31 307.472L131.882 307.421C131.952 307.425 132.022 307.415 132.087 307.391Z" fill="#263238"/>
<path d="M147.664 314.145C147.496 314.271 147.308 314.366 147.106 314.424C146.566 314.619 146 314.735 145.427 314.769C144.472 314.841 143.512 314.703 142.616 314.365C141.72 314.026 140.91 313.495 140.241 312.809C139.573 312.123 139.063 311.299 138.747 310.394C138.432 309.49 138.319 308.527 138.416 307.575C138.46 307.003 138.591 306.442 138.805 305.91C138.863 305.709 138.96 305.523 139.091 305.36C138.889 306.092 138.754 306.84 138.688 307.597C138.628 308.504 138.76 309.413 139.075 310.266C139.39 311.119 139.881 311.896 140.516 312.547C141.151 313.198 141.916 313.708 142.76 314.044C143.605 314.38 144.511 314.534 145.42 314.497C146.177 314.455 146.929 314.337 147.664 314.145Z" fill="#263238"/>
<path d="M112.581 270.783L106.032 293.179L81.8102 295.775V300.073L117.406 300.564L122.246 271.407L112.581 270.783Z" fill="#FFBE9D"/>
<path d="M144.165 247.39C148.463 247.39 160.101 249.59 161.12 257.437C162.044 264.521 163.423 272.558 163.423 272.558L148.111 272.969L153.325 274.355L155.525 307.421L115.881 306.042L117.985 289.043L119.745 272.067L111.085 271.333C111.085 271.333 114.018 256.542 119.217 251.973C122.478 249.338 126.451 247.737 130.628 247.375C135.137 247.12 139.657 247.12 144.165 247.375" fill="#0083FF"/>
<path d="M121.168 261.067C121.263 261.067 120.655 267.051 119.819 274.413C118.983 281.776 118.227 287.738 118.132 287.723C118.037 287.709 118.645 281.739 119.489 274.377C120.332 267.014 121.08 261.067 121.168 261.067Z" fill="#263238"/>
<path d="M145.346 247.441C145.346 247.441 145.346 247.537 145.39 247.72C145.434 247.903 145.427 248.175 145.434 248.519C145.455 249.515 145.309 250.506 145.002 251.453C144.601 252.899 143.827 254.214 142.758 255.266C142.099 255.893 141.317 256.378 140.462 256.689C139.532 256.994 138.559 257.147 137.58 257.143C136.599 257.168 135.617 257.102 134.647 256.945C133.742 256.803 132.881 256.454 132.132 255.926C130.934 254.997 130.092 253.684 129.748 252.208C129.488 251.253 129.377 250.264 129.418 249.275C129.418 248.93 129.455 248.659 129.477 248.475C129.482 248.381 129.499 248.287 129.528 248.197C129.549 248.556 129.549 248.916 129.528 249.275C129.534 250.252 129.675 251.225 129.946 252.164C130.309 253.575 131.136 254.822 132.293 255.706C133.01 256.201 133.83 256.527 134.691 256.659C135.632 256.809 136.584 256.873 137.536 256.85C138.48 256.85 139.418 256.701 140.316 256.41C141.136 256.124 141.886 255.666 142.516 255.068C143.562 254.056 144.332 252.794 144.752 251.401C145.066 250.476 145.242 249.51 145.273 248.534C145.332 247.867 145.324 247.441 145.346 247.441Z" fill="#263238"/>
<g opacity="0.2">
<path opacity="0.2" d="M147.473 261.067C146.006 268.085 144.092 275.293 142.625 282.333C142.418 283.846 141.888 285.297 141.071 286.587C140.466 287.325 139.76 287.975 138.973 288.515C136.144 290.779 132.996 292.612 129.631 293.957C134.542 293.537 139.408 292.691 144.173 291.427C144.571 291.404 144.96 291.303 145.319 291.129C145.678 290.955 145.998 290.712 146.262 290.413C146.526 290.114 146.728 289.766 146.857 289.389C146.985 289.011 147.038 288.612 147.011 288.215C148.067 279.217 147.744 270.145 147.473 261.081" fill="black"/>
</g>
<path d="M163.672 272.675C163.292 272.741 162.906 272.77 162.521 272.763L159.375 272.881C156.727 272.969 153.061 273.057 149.005 273.137H147.707H147.546V272.976C147.399 269.214 147.465 265.87 147.546 263.443C147.546 262.247 147.627 261.279 147.671 260.612C147.672 260.265 147.704 259.919 147.766 259.578C147.794 259.922 147.794 260.268 147.766 260.612C147.766 261.345 147.766 262.291 147.766 263.45C147.766 265.855 147.722 269.199 147.876 272.939L147.707 272.778H149.013C153.061 272.697 156.727 272.646 159.382 272.624H162.528C162.91 272.612 163.293 272.629 163.672 272.675Z" fill="#263238"/>
<path d="M51.472 274.267L65.002 300.887H107.667L105.937 297.418L93.58 297.044L83.504 274.619C83.1979 273.936 82.7004 273.356 82.0718 272.95C81.4432 272.544 80.7104 272.329 79.962 272.331H52.6747C52.4473 272.333 52.2242 272.392 52.026 272.504C51.8277 272.615 51.6609 272.775 51.5409 272.968C51.4209 273.161 51.3517 273.381 51.3397 273.608C51.3276 273.835 51.3731 274.062 51.472 274.267Z" fill="#E0E0E0"/>
<path d="M71.2063 287.833C72.1094 287.833 72.8416 287.101 72.8416 286.198C72.8416 285.295 72.1094 284.562 71.2063 284.562C70.3031 284.562 69.5709 285.295 69.5709 286.198C69.5709 287.101 70.3031 287.833 71.2063 287.833Z" fill="#263238"/>
<path d="M145.559 227.333L144.034 248.981C143.912 250.684 143.149 252.277 141.9 253.44C140.652 254.603 139.009 255.25 137.302 255.251C136.379 255.251 135.465 255.062 134.618 254.695C133.771 254.328 133.008 253.791 132.376 253.117C131.744 252.444 131.258 251.648 130.946 250.779C130.634 249.91 130.503 248.986 130.563 248.065C130.702 246.004 130.819 244.31 130.819 244.31C130.819 244.31 125.591 243.496 125.517 238.26C125.517 235.789 125.811 230.927 126.177 226.314C126.385 223.732 127.556 221.322 129.458 219.563C131.36 217.804 133.853 216.824 136.444 216.817C137.739 216.891 139.007 217.224 140.171 217.796C141.336 218.368 142.374 219.169 143.224 220.149C144.074 221.13 144.718 222.271 145.12 223.505C145.521 224.739 145.67 226.041 145.559 227.333Z" fill="#FFBE9D"/>
<path d="M130.79 244.581C133.211 244.628 135.59 243.951 137.624 242.638C137.624 242.638 136.004 246.407 130.775 245.938L130.79 244.581Z" fill="#EB996E"/>
<path d="M127.819 229.731C127.819 229.926 127.897 230.112 128.034 230.25C128.172 230.387 128.358 230.465 128.553 230.465C128.744 230.475 128.931 230.41 129.075 230.284C129.219 230.158 129.308 229.981 129.323 229.79C129.323 229.596 129.245 229.409 129.108 229.271C128.97 229.134 128.784 229.057 128.589 229.057C128.398 229.047 128.211 229.111 128.067 229.237C127.923 229.363 127.834 229.541 127.819 229.731Z" fill="#263238"/>
<path d="M127.35 228.705C127.446 228.8 128.01 228.382 128.817 228.382C129.624 228.382 130.21 228.785 130.284 228.69C130.357 228.595 130.232 228.47 129.976 228.279C129.626 228.04 129.212 227.912 128.788 227.913C128.369 227.914 127.961 228.047 127.622 228.294C127.387 228.485 127.306 228.661 127.35 228.705Z" fill="#263238"/>
<path d="M135.402 229.951C135.402 230.146 135.479 230.332 135.617 230.47C135.754 230.607 135.941 230.685 136.135 230.685C136.32 230.685 136.498 230.616 136.634 230.491C136.77 230.366 136.854 230.194 136.869 230.01C136.869 229.815 136.791 229.629 136.654 229.491C136.516 229.354 136.33 229.277 136.135 229.277C135.951 229.276 135.772 229.345 135.636 229.47C135.5 229.595 135.417 229.767 135.402 229.951Z" fill="#263238"/>
<path d="M135.263 228.851C135.358 228.947 135.93 228.529 136.729 228.536C137.529 228.543 138.123 228.939 138.196 228.837C138.269 228.734 138.145 228.617 137.888 228.433C137.54 228.189 137.125 228.061 136.7 228.067C136.281 228.064 135.873 228.195 135.534 228.441C135.307 228.631 135.219 228.8 135.263 228.851Z" fill="#263238"/>
<path d="M132.344 234.821C131.92 234.69 131.482 234.611 131.039 234.586C130.833 234.586 130.635 234.527 130.599 234.388C130.583 234.173 130.631 233.959 130.738 233.772L131.347 232.21C131.908 230.884 132.364 229.516 132.711 228.118C132.043 229.397 131.477 230.726 131.017 232.093C130.819 232.643 130.621 233.163 130.437 233.662C130.305 233.912 130.268 234.201 130.335 234.476C130.365 234.548 130.411 234.612 130.469 234.664C130.528 234.716 130.597 234.755 130.672 234.777C130.785 234.804 130.9 234.819 131.017 234.821C131.457 234.881 131.904 234.881 132.344 234.821Z" fill="#263238"/>
<path d="M134.713 235.4C134.581 235.4 134.581 236.265 133.833 236.867C133.085 237.468 132.153 237.395 132.146 237.512C132.139 237.629 132.359 237.681 132.747 237.695C133.26 237.704 133.759 237.53 134.155 237.204C134.535 236.892 134.78 236.445 134.837 235.957C134.874 235.591 134.771 235.4 134.713 235.4Z" fill="#263238"/>
<path d="M135.057 225.698C135.138 225.918 135.945 225.815 136.884 225.925C137.822 226.035 138.592 226.299 138.717 226.101C138.842 225.903 138.644 225.801 138.336 225.588C137.925 225.328 137.461 225.165 136.978 225.111C136.495 225.058 136.006 225.116 135.549 225.28C135.197 225.419 135.021 225.595 135.057 225.698Z" fill="#263238"/>
<path d="M127.651 226.373C127.791 226.556 128.385 226.373 129.015 226.373C129.646 226.373 130.24 226.497 130.372 226.299C130.504 226.101 130.372 226.028 130.093 225.852C129.762 225.642 129.375 225.536 128.983 225.548C128.591 225.56 128.212 225.689 127.893 225.918C127.666 226.094 127.6 226.285 127.651 226.373Z" fill="#263238"/>
<path d="M143.792 231.609C143.88 231.565 147.392 230.545 147.275 234.124C147.158 237.703 143.609 236.852 143.609 236.749C143.609 236.647 143.792 231.609 143.792 231.609Z" fill="#FFBE9D"/>
<path d="M144.723 235.4C144.723 235.4 144.789 235.444 144.891 235.495C144.964 235.526 145.043 235.541 145.122 235.541C145.201 235.541 145.28 235.526 145.353 235.495C145.584 235.354 145.774 235.154 145.903 234.916C146.032 234.678 146.095 234.409 146.087 234.139C146.101 233.831 146.051 233.524 145.94 233.237C145.908 233.125 145.851 233.021 145.772 232.936C145.693 232.851 145.595 232.785 145.485 232.745C145.415 232.723 145.339 232.726 145.27 232.754C145.202 232.783 145.146 232.834 145.111 232.899C145.06 233.002 145.111 233.075 145.06 233.075C145.009 233.075 144.987 233.017 145.06 232.87C145.08 232.781 145.132 232.702 145.207 232.65C145.256 232.614 145.311 232.589 145.371 232.575C145.43 232.561 145.491 232.559 145.551 232.569C145.698 232.602 145.833 232.671 145.945 232.772C146.057 232.872 146.141 232.999 146.189 233.141C146.329 233.459 146.392 233.806 146.373 234.153C146.377 234.472 146.289 234.786 146.118 235.055C145.947 235.325 145.702 235.539 145.412 235.671C145.314 235.692 145.212 235.692 145.114 235.672C145.015 235.652 144.922 235.612 144.84 235.554C144.73 235.517 144.715 235.437 144.723 235.4Z" fill="#EB996E"/>
<path d="M112.207 300.931H60.0598V303.475H112.207V300.931Z" fill="#263238"/>
<path d="M96.147 302.207L112.009 330.902H126.214L112.207 303.475L96.147 302.207Z" fill="#263238"/>
<path d="M112.199 303.475C112.199 303.578 100.51 303.725 86.0926 303.798C71.6753 303.871 59.986 303.842 59.986 303.739C59.986 303.637 71.6753 303.49 86.0926 303.417C100.51 303.343 112.199 303.373 112.199 303.475Z" fill="#455A64"/>
<path d="M124.732 223.982C125.208 224.157 125.716 224.228 126.222 224.192C126.727 224.155 127.22 224.011 127.665 223.769C127.586 223.858 127.526 223.963 127.49 224.077C127.454 224.191 127.443 224.311 127.456 224.429C127.47 224.548 127.509 224.662 127.571 224.764C127.632 224.867 127.714 224.955 127.812 225.023C128.224 225.277 128.71 225.384 129.191 225.324C131.797 225.223 134.274 224.165 136.15 222.354C136.192 222.807 136.365 223.237 136.649 223.592C136.934 223.946 137.316 224.21 137.749 224.349C138.622 224.609 139.552 224.609 140.425 224.349C140.101 225.674 140.047 227.05 140.264 228.397C140.382 229.067 140.693 229.688 141.16 230.183C141.626 230.678 142.227 231.026 142.889 231.183C143.057 231.876 143.114 232.592 143.058 233.303C143.109 234.036 143.52 234.828 144.239 234.85C144.957 234.872 145.331 234.219 145.419 233.596C145.507 232.973 145.133 231.704 145.581 230.699C146.028 229.695 145.874 229.805 146.351 228.712C146.827 227.619 147.084 226.109 147.48 224.972C147.91 223.841 147.944 222.597 147.575 221.445C147.373 220.88 147.002 220.391 146.513 220.043C146.024 219.696 145.44 219.507 144.84 219.501C145.059 218.935 145.094 218.314 144.939 217.727C144.784 217.139 144.447 216.616 143.977 216.232C143.507 215.847 142.928 215.621 142.322 215.585C141.715 215.549 141.113 215.706 140.601 216.033C140.601 216.033 136.524 213.261 132.014 214.793C127.504 216.326 126.829 220.418 125.847 220.543C124.864 220.667 121.887 219.076 122.4 220.073C122.913 221.071 123.764 222.075 124.189 222.119C124.615 222.163 120.779 220.543 122.099 221.995C122.834 222.828 123.729 223.504 124.732 223.982Z" fill="#263238"/>
<path d="M160.68 258.867C160.261 258.363 159.786 257.908 159.265 257.51C157.789 256.494 156.025 255.98 154.234 256.043C151.968 256.043 149.372 257.019 146.82 258.581C144.268 260.143 141.65 262.247 138.409 263.663C135.346 265.047 131.863 265.176 128.707 264.022C127.348 263.514 126.081 262.791 124.952 261.881C123.889 261.059 122.95 260.231 122.019 259.563C120.63 258.43 118.934 257.738 117.149 257.576C116.492 257.561 115.837 257.647 115.206 257.833C115.206 257.833 115.206 257.833 115.323 257.774C115.44 257.72 115.56 257.674 115.683 257.635C116.158 257.492 116.653 257.423 117.149 257.429C118.983 257.534 120.741 258.202 122.18 259.343C124.057 260.641 125.971 262.702 128.78 263.692C131.858 264.781 135.236 264.648 138.218 263.318C141.386 261.939 143.982 259.805 146.6 258.28C149.218 256.755 151.858 255.728 154.19 255.772C156.035 255.731 157.842 256.307 159.323 257.407C159.718 257.706 160.07 258.056 160.372 258.449C160.492 258.575 160.595 258.715 160.68 258.867Z" fill="#FAFAFA"/>
<path d="M147.634 278.168C147.634 278.168 147.275 277.933 146.622 277.559C145.697 277.027 144.695 276.641 143.652 276.415C142.113 276.073 140.515 276.101 138.988 276.496C137.258 276.929 135.49 277.838 133.525 278.564C132.563 278.919 131.564 279.165 130.548 279.297C129.599 279.416 128.64 279.434 127.688 279.349C126.077 279.205 124.505 278.776 123.046 278.08C122.06 277.622 121.144 277.027 120.325 276.313C120.098 276.126 119.884 275.922 119.687 275.704C119.548 275.565 119.474 275.484 119.489 275.469C119.504 275.455 119.819 275.733 120.42 276.203C121.262 276.859 122.181 277.41 123.156 277.845C124.6 278.487 126.142 278.881 127.717 279.011C129.646 279.161 131.584 278.883 133.393 278.197C135.19 277.415 137.029 276.732 138.9 276.151C140.219 275.822 141.591 275.765 142.932 275.983C144.274 276.202 145.557 276.69 146.703 277.42C146.957 277.582 147.202 277.759 147.436 277.948C147.568 278.087 147.642 278.161 147.634 278.168Z" fill="#FAFAFA"/>
<path d="M153.406 290.495C152.944 290.313 152.471 290.161 151.99 290.041C150.654 289.824 149.284 289.948 148.008 290.4C147.122 290.691 146.263 291.059 145.442 291.5C144.547 291.969 143.616 292.527 142.611 293.069C141.559 293.665 140.445 294.145 139.289 294.499C138.024 294.871 136.687 294.926 135.395 294.661C132.733 294.081 130.628 292.541 128.692 291.39C127.043 290.242 125.151 289.489 123.163 289.19C121.818 289.048 120.464 289.341 119.298 290.026C118.882 290.296 118.498 290.614 118.154 290.972C118.214 290.855 118.287 290.747 118.374 290.649C118.619 290.366 118.903 290.119 119.218 289.916C120.397 289.151 121.8 288.805 123.2 288.933C124.974 289.021 126.932 289.894 128.89 291.075C130.848 292.255 132.938 293.722 135.49 294.272C136.723 294.526 137.999 294.475 139.208 294.125C140.339 293.781 141.43 293.319 142.464 292.747C143.469 292.219 144.408 291.669 145.317 291.199C146.163 290.764 147.047 290.406 147.957 290.129C149.272 289.68 150.683 289.596 152.042 289.887C152.408 289.974 152.762 290.105 153.098 290.275C153.303 290.4 153.413 290.481 153.406 290.495Z" fill="#FAFAFA"/>
<path d="M155.276 304.509C155.163 304.58 155.039 304.632 154.909 304.663C154.538 304.769 154.157 304.833 153.772 304.854C152.351 304.854 150.945 304.56 149.644 303.989C148.748 303.638 147.832 303.342 146.901 303.101C145.829 302.876 144.729 302.812 143.638 302.911C141.32 303.109 138.878 303.989 136.304 304.737C135.03 305.116 133.724 305.383 132.403 305.536C131.166 305.652 129.919 305.634 128.685 305.485C126.609 305.195 124.577 304.651 122.635 303.864C121.328 303.353 120.048 302.775 118.8 302.133C118.352 301.913 118.015 301.723 117.788 301.598C117.665 301.541 117.549 301.47 117.443 301.385C117.575 301.414 117.701 301.463 117.817 301.532L118.858 302.001C119.768 302.412 121.058 303.006 122.73 303.622C124.66 304.363 126.672 304.873 128.722 305.14C129.94 305.274 131.17 305.274 132.388 305.14C133.688 304.989 134.971 304.724 136.224 304.348C138.812 303.615 141.284 302.727 143.667 302.544C144.794 302.446 145.929 302.523 147.033 302.771C147.975 303.025 148.898 303.341 149.798 303.717C151.065 304.295 152.432 304.623 153.824 304.685C154.312 304.667 154.798 304.609 155.276 304.509Z" fill="#FAFAFA"/>
<path d="M162.8 268.972C162.676 269.15 162.525 269.309 162.353 269.441C161.899 269.824 161.389 270.135 160.842 270.365C160.022 270.706 159.141 270.879 158.253 270.871C157.163 270.831 156.096 270.548 155.129 270.043C154.103 269.551 153.179 269.016 152.277 268.693C151.486 268.407 150.639 268.314 149.805 268.422C149.244 268.494 148.713 268.715 148.265 269.06C147.957 269.324 147.825 269.515 147.796 269.493C147.871 269.284 147.997 269.098 148.163 268.95C148.602 268.533 149.156 268.258 149.754 268.158C150.637 268.003 151.545 268.073 152.394 268.363C153.398 268.748 154.378 269.194 155.327 269.698C156.236 270.177 157.236 270.457 158.261 270.519C159.105 270.545 159.946 270.408 160.739 270.116C161.462 269.804 162.153 269.421 162.8 268.972Z" fill="#FAFAFA"/>
<path d="M120.208 268.605C120.208 268.605 120.164 268.73 119.973 268.862C119.696 269.032 119.374 269.117 119.049 269.104C118.572 269.087 118.106 268.953 117.692 268.715C117.23 268.459 116.79 268.099 116.314 267.791C115.505 267.259 114.522 267.062 113.571 267.241C112.838 267.373 112.434 267.645 112.398 267.586C112.696 267.271 113.086 267.058 113.512 266.977C114.02 266.84 114.551 266.813 115.07 266.9C115.589 266.986 116.083 267.182 116.519 267.476C117.025 267.799 117.45 268.158 117.868 268.407C118.23 268.636 118.638 268.781 119.064 268.833C119.458 268.861 119.854 268.783 120.208 268.605Z" fill="#FAFAFA"/>
<path d="M100.29 292.285L110.96 291.001L118.477 295.929L147.224 289.043L148.067 272.998L160.974 272.675L160.673 291.507C160.643 292.948 160.328 294.368 159.746 295.687C159.164 297.005 158.328 298.196 157.284 299.189C156.241 300.183 155.011 300.961 153.666 301.477C152.32 301.994 150.886 302.239 149.446 302.199L107.338 301.033L105.548 297.447L96.5137 297.183L100.29 292.285Z" fill="#FFBE9D"/>
<path d="M146.864 289.043C146.687 289.108 146.506 289.162 146.322 289.205L144.76 289.615L138.988 291.082L119.922 295.702L118.154 296.12H118.081L118.022 296.076L110.506 291.133H110.608L99.9383 292.365H100.004L97.1883 295.944C96.8656 296.333 96.6163 296.677 96.4549 296.883C96.3718 296.996 96.2785 297.101 96.1763 297.198C96.2443 297.074 96.3228 296.956 96.4109 296.846L97.1443 295.871L99.8869 292.204H99.9309L110.594 290.869H110.652H110.704L118.228 295.783H118.096L119.87 295.357L138.937 290.833L144.738 289.498L146.314 289.153C146.494 289.099 146.678 289.063 146.864 289.043Z" fill="#EB996E"/>
<path d="M106.12 295.343C104.743 295.508 103.355 295.564 101.97 295.511H101.236H101.346C100.509 296.276 99.6091 296.968 98.6549 297.579C99.4098 296.737 100.237 295.961 101.126 295.262L101.178 295.218H101.992C103.369 295.148 104.75 295.189 106.12 295.343Z" fill="#EB996E"/>
<path d="M152.158 292.255C151.649 291.366 150.929 290.616 150.062 290.07C149.195 289.524 148.208 289.199 147.186 289.124C147.483 289.019 147.801 288.994 148.11 289.051C148.868 289.128 149.599 289.379 150.244 289.784C150.889 290.188 151.429 290.738 151.821 291.39C152.009 291.643 152.125 291.942 152.158 292.255Z" fill="#EB996E"/>
</svg>
